<?xml version="1.0" encoding="UTF-8" standalone="no"?>
<!DOCTYPE svg PUBLIC "-//W3C//DTD SVG 1.1//EN" "http://www.w3.org/Graphics/SVG/1.1/DTD/svg11.dtd">
<svg width="100%" height="100%" viewBox="0 0 800 800" version="1.1" xmlns="http://www.w3.org/2000/svg" xmlns:xlink="http://www.w3.org/1999/xlink" xml:space="preserve" xmlns:serif="http://www.serif.com/" style="fill-rule:evenodd;clip-rule:evenodd;stroke-linejoin:round;stroke-miterlimit:2;">
    <g>
        <g>
            <path d="M400,0C179.094,0 0,179.094 0,400C0,620.906 179.094,800 400,800C620.906,800 800,620.906 800,400C800,179.094 620.906,0 400,0ZM269.08,65.014C230.12,107.388 199.267,168.334 180.4,240.002L77.733,240.002C117.467,160.533 185.733,97.694 269.08,65.014ZM40,400C40,357.814 47.933,317.614 61.347,280L171.494,280C164.294,317.959 160,358.067 160,400C160,441.933 164.294,482.041 171.48,520L61.347,520C47.933,482.386 40,442.188 40,400ZM77.733,560L180.4,560C199.28,631.667 230.12,692.612 269.08,734.986C185.733,702.306 117.467,639.467 77.733,560ZM380,758.106C311.547,745.213 252.067,667.106 221.627,560L380,560L380,758.106ZM380,520L212.094,520C204.4,482.241 200,441.88 200,400C200,358.12 204.4,317.759 212.094,280L380,280L380,520ZM380,240L221.627,240C252.067,132.894 311.547,54.786 380,41.894L380,240ZM722.267,240L619.6,240C600.72,168.333 569.88,107.386 530.92,65.012C614.267,97.694 682.533,160.533 722.267,240ZM420,41.894C488.453,54.788 547.933,132.894 578.373,240L420,240L420,41.894ZM420,280L587.906,280C595.6,317.759 600,358.12 600,400C600,441.88 595.6,482.241 587.906,520L420,520L420,280ZM420,758.106L420,560L578.373,560C547.933,667.106 488.453,745.214 420,758.106ZM530.92,734.986C569.88,692.6 600.72,631.666 619.6,560L722.267,560C682.533,639.467 614.267,702.306 530.92,734.986ZM628.506,520C635.706,482.041 640,441.933 640,400C640,358.067 635.706,317.959 628.52,280L738.667,280C752.067,317.614 760,357.814 760,400C760,442.188 752.067,482.386 738.653,520L628.506,520Z" style="fill:white;fill-rule:nonzero;"/>
        </g>
    </g>
</svg>
