<?xml version="1.0" encoding="UTF-8" standalone="no"?>
<!DOCTYPE svg PUBLIC "-//W3C//DTD SVG 1.1//EN" "http://www.w3.org/Graphics/SVG/1.1/DTD/svg11.dtd">
<svg width="100%" height="100%" viewBox="0 0 800 211" version="1.1" xmlns="http://www.w3.org/2000/svg" xmlns:xlink="http://www.w3.org/1999/xlink" xml:space="preserve" xmlns:serif="http://www.serif.com/" style="fill-rule:evenodd;clip-rule:evenodd;stroke-linejoin:round;stroke-miterlimit:2;">
    <g transform="matrix(1,0,0,1,0,-294.7)">
        <path d="M111.733,339C95.221,339 81.633,352.588 81.633,369.1L81.633,504.767L37.567,504.767L37.567,410.967L0,410.967L0,367.033L37.6,367.033C38.589,327.055 71.743,294.706 111.733,294.7L155.767,294.7L155.767,338.767L111.733,339ZM355.933,400.333C352.319,400.336 349.099,402.69 348,406.133L330.267,467.267C323.762,489.393 303.312,504.696 280.25,504.696C257.188,504.696 236.738,489.393 230.233,467.267L212.5,406.1C211.342,402.707 208.135,400.412 204.55,400.412C200.965,400.412 197.758,402.707 196.6,406.1L178.867,467.267C172.247,489.477 151.642,504.781 128.467,504.7L116.2,504.7L116.2,460.7L128.633,460.7C132.204,460.695 135.383,458.368 136.467,454.967L154.2,393.8C160.796,371.687 181.275,356.425 204.35,356.425C227.425,356.425 247.904,371.687 254.5,393.8L272.367,455.033C273.409,458.485 276.611,460.863 280.217,460.863C283.822,460.863 287.024,458.485 288.067,455.033L305.8,393.9C312.396,371.787 332.875,356.525 355.95,356.525C379.025,356.525 399.504,371.787 406.1,393.9L423.833,455.033C424.894,458.461 428.079,460.819 431.667,460.833L444.133,460.833L444.133,504.8L431.833,504.8C408.654,504.892 388.043,489.584 381.433,467.367L363.7,406.2C362.626,402.799 359.498,400.437 355.933,400.333ZM445.6,430.533C445.6,389.847 479.08,356.367 519.767,356.367C560.453,356.367 593.933,389.847 593.933,430.533C593.933,471.22 560.453,504.7 519.767,504.7C479.08,504.7 445.6,471.22 445.6,430.533ZM549.867,430.533C549.867,414.021 536.279,400.433 519.767,400.433C503.254,400.433 489.667,414.021 489.667,430.533C489.667,447.046 503.254,460.633 519.767,460.633C536.279,460.633 549.867,447.046 549.867,430.533ZM705.667,445.867C706.51,444.556 707.256,443.186 707.9,441.767C711.719,434.33 719.407,429.636 727.767,429.636C740.018,429.636 750.1,439.717 750.1,451.969L750.1,452.033C750.098,455.04 749.473,458.013 748.267,460.767L747.633,462.1C735.028,488.018 708.654,504.563 679.833,504.633C639.147,504.633 605.667,471.153 605.667,430.467C605.667,389.78 639.147,356.3 679.833,356.3L683.1,356.3C694.973,356.799 706.559,360.112 716.9,365.967L716.9,294.7L760.967,294.7L760.967,395.033C760.611,407.968 750.162,418.548 737.233,419.067C724.225,419.443 711.522,415.015 701.567,406.633C696.337,402.551 689.901,400.311 683.267,400.267L680,400.267C663.497,400.28 649.924,413.864 649.924,430.367C649.924,446.879 663.512,460.467 680.024,460.467C690.607,460.467 700.441,454.886 705.867,445.8L705.667,445.867ZM140.933,387.467C140.933,400.34 130.34,410.933 117.467,410.933C104.593,410.933 94,400.34 94,387.467C94,374.593 104.593,364 117.467,364C130.34,364 140.933,374.593 140.933,387.467ZM754.2,481.967C754.197,482.111 754.196,482.256 754.196,482.4C754.196,494.963 764.533,505.3 777.096,505.3C789.658,505.3 799.996,494.963 799.996,482.4C799.996,469.839 789.661,459.502 777.1,459.5C777,459.499 776.9,459.498 776.8,459.498C764.451,459.498 754.272,469.619 754.2,481.967ZM758.3,481.967C758.709,472.024 767,464.067 776.951,464.067C787.191,464.067 795.618,472.493 795.618,482.733C795.618,492.955 787.222,501.373 777,501.4C776.916,501.401 776.832,501.402 776.748,501.402C766.544,501.402 758.148,493.005 758.148,482.802C758.148,482.523 758.154,482.245 758.167,481.967L758.3,481.967ZM767.7,494.733L771.833,494.733L771.833,483.333L776.4,483.333L783.6,494.667L788.167,494.667L780.633,483C780.705,483.002 780.776,483.003 780.847,483.003C784.56,483.003 787.614,479.949 787.614,476.237C787.614,476.091 787.609,475.945 787.6,475.8C787.6,470.733 784.6,468.233 778.433,468.233L768.2,468.233L767.7,494.733ZM771.833,471.8L777.1,471.8C779.9,471.8 782.933,472.367 782.933,475.833C782.933,479.333 779.6,480.433 775.933,480.433L771.633,480.433L771.833,471.8Z" style="fill:white;fill-rule:nonzero;"/>
    </g>
</svg>
