<?xml version="1.0" encoding="UTF-8" standalone="no"?>
<!DOCTYPE svg PUBLIC "-//W3C//DTD SVG 1.1//EN" "http://www.w3.org/Graphics/SVG/1.1/DTD/svg11.dtd">
<svg width="100%" height="100%" viewBox="0 0 275 100" version="1.1" xmlns="http://www.w3.org/2000/svg" xmlns:xlink="http://www.w3.org/1999/xlink" xml:space="preserve" xmlns:serif="http://www.serif.com/" style="fill-rule:evenodd;clip-rule:evenodd;stroke-linejoin:round;stroke-miterlimit:2;">
    <path d="M82.775,79.842L64.9,49.775L82.775,19.708L91.392,49.775L82.775,79.842ZM42.992,76.908L20.533,54.633L56.283,54.633L74.158,84.7L42.992,76.908ZM42.992,22.55L74.067,14.758L56.192,44.825L20.442,44.825L42.992,22.55ZM88.642,0L48.033,10.542L41.983,20.9L29.792,20.808L0,49.775L29.792,78.742L41.983,78.65L48.033,89.008L88.642,99.642L99.55,60.133L93.408,49.867L99.55,39.6L88.642,0ZM180.858,29.242C175.45,29.242 171.783,31.533 169.033,35.75L168.85,35.75L168.85,30.342L159.317,30.342L159.317,70.125L169.033,70.125L169.033,47.575C169.033,42.167 172.425,38.408 177.1,38.408C181.5,38.408 184.8,41.067 184.8,45.742L184.8,70.217L194.517,70.217L194.517,44.183C194.608,35.475 189.108,29.242 180.858,29.242ZM144.558,53.35C144.558,58.667 141.533,62.333 136.583,62.333C132.092,62.333 129.25,59.767 129.25,55.092L129.25,30.342L119.533,30.342L119.533,56.925C119.533,65.633 124.483,71.317 133.375,71.317C138.967,71.317 142.083,69.208 144.742,65.542L145.017,65.542L145.017,70.217L154.367,70.217L154.367,30.342L144.65,30.342L144.65,53.35L144.558,53.35ZM199.742,30.342L209.458,30.342L209.458,70.125L199.742,70.125L199.742,30.342ZM199.742,17.967L209.458,17.967L209.458,25.942L199.742,25.942L199.742,17.967ZM264.55,30.342L258.775,48.308C257.492,51.975 256.483,57.017 256.483,57.017L256.208,57.017C256.208,57.017 254.925,51.975 253.642,48.308L247.133,30.342L236.683,30.342L247.408,58.667C249.7,64.717 250.433,67.283 250.433,69.483C250.433,72.783 248.692,74.892 244.567,74.892L240.808,74.892L240.808,83.233L247.042,83.233C255.108,83.233 257.95,80.025 260.975,71.225L275,30.433L264.55,30.433L264.55,30.342ZM227.608,58.483L227.608,37.4L233.842,37.4L233.842,30.433L227.608,30.433L227.608,17.967L217.892,17.967L217.892,30.342L212.392,30.342L212.392,37.308L217.892,37.308L217.892,60.683C217.892,68.2 223.575,70.217 228.708,70.217C232.925,70.217 234.025,70.033 234.025,70.033L234.025,62.333L231.55,62.333C229.258,62.425 227.608,61.417 227.608,58.483Z" style="fill:white;fill-rule:nonzero;"/>
</svg>
