<?xml version="1.0" encoding="UTF-8" standalone="no"?>
<!DOCTYPE svg PUBLIC "-//W3C//DTD SVG 1.1//EN" "http://www.w3.org/Graphics/SVG/1.1/DTD/svg11.dtd">
<svg width="100%" height="100%" viewBox="0 0 24 24" version="1.1" xmlns="http://www.w3.org/2000/svg" xmlns:xlink="http://www.w3.org/1999/xlink" xml:space="preserve" xmlns:serif="http://www.serif.com/" style="fill-rule:evenodd;clip-rule:evenodd;stroke-linejoin:round;stroke-miterlimit:2;">
    <g>
        <g transform="matrix(0.900312,0,0,0.900312,1.19625,-2.33585)">
            <path d="M6,12C6,12.764 5.381,13.385 4.615,13.385C3.851,13.385 3.231,12.764 3.231,12C3.231,11.235 3.851,10.615 4.615,10.615C5.381,10.615 6,11.235 6,12M13.846,6.462C13.846,7.481 13.02,8.308 12,8.308C10.981,8.308 10.154,7.481 10.154,6.462C10.154,5.442 10.981,4.615 12,4.615C13.02,4.615 13.846,5.442 13.846,6.462M1.846,12C1.846,12.506 1.43,12.923 0.923,12.923C0.923,12.923 0.923,12.923 0.923,12.923C0.414,12.923 0,12.51 0,12C0,11.49 0.414,11.077 0.923,11.077C1.433,11.077 1.846,11.49 1.846,12M24,12C24,12.509 23.587,12.923 23.077,12.923C22.568,12.923 22.154,12.509 22.154,12C22.154,11.49 22.568,11.077 23.077,11.077C23.587,11.077 24,11.49 24,12M20.769,12C20.769,12.764 20.15,13.385 19.385,13.385C18.62,13.385 18,12.764 18,12C18,11.235 18.62,10.615 19.385,10.615C20.15,10.615 20.769,11.235 20.769,12M12.544,14.836C12.547,15.371 12.8,15.849 13.202,16.15C13.603,16.483 13.861,16.99 13.861,17.554C13.861,18.568 13.041,19.385 12.031,19.385L12,19.385C10.988,19.385 10.168,18.568 10.168,17.554C10.168,16.99 10.428,16.483 10.829,16.15C11.229,15.849 11.49,15.371 11.487,14.836L11.487,14.707C11.483,14.168 11.229,13.689 10.829,13.392C10.428,13.056 10.168,12.55 10.168,11.984C10.168,10.972 10.988,10.154 12,10.154L12.031,10.154C13.041,10.154 13.861,10.972 13.861,11.984C13.861,12.55 13.603,13.056 13.202,13.392C12.785,13.699 12.54,14.189 12.544,14.707L12.544,14.836M16.237,12.066C16.24,12.601 16.492,13.08 16.895,13.38C17.295,13.714 17.553,14.221 17.553,14.785C17.553,15.799 16.734,16.615 15.724,16.615L15.693,16.615C14.681,16.615 13.861,15.799 13.861,14.785C13.861,14.221 14.12,13.714 14.521,13.38C14.921,13.08 15.183,12.602 15.179,12.066L15.179,11.938C15.175,11.399 14.921,10.92 14.521,10.623C14.12,10.287 13.861,9.78 13.861,9.215C13.861,8.202 14.681,7.385 15.693,7.385L15.724,7.385C16.734,7.385 17.553,8.202 17.553,9.215C17.553,9.78 17.295,10.287 16.895,10.623C16.477,10.93 16.232,11.42 16.237,11.938L16.237,12.066M8.852,12.066C8.855,12.601 9.108,13.08 9.51,13.38C9.927,13.727 10.168,14.243 10.168,14.785C10.168,15.799 9.349,16.615 8.339,16.615L8.308,16.615C7.296,16.615 6.476,15.799 6.476,14.785C6.476,14.221 6.736,13.714 7.137,13.38C7.537,13.08 7.798,12.602 7.794,12.066L7.794,11.938C7.79,11.399 7.537,10.92 7.137,10.623C6.736,10.287 6.476,9.78 6.476,9.215C6.476,8.202 7.296,7.385 8.308,7.385L8.339,7.385C9.349,7.385 10.168,8.202 10.168,9.215C10.168,9.78 9.911,10.287 9.51,10.623C9.093,10.93 8.848,11.42 8.852,11.938L8.852,12.066" style="fill:white;fill-rule:nonzero;"/>
        </g>
        <g id="Wwise-Logo-2016-Wwise_R-Color.svg" transform="matrix(0.0417001,0,0,0.0417001,12,13.8833)">
            <g transform="matrix(1,0,0,1,-420,-370)">
                <g id="_-009fdaff" serif:id="#009fdaff">
                </g>
                <g id="_-00549fff" serif:id="#00549fff">
                </g>
                <g id="_-000000ff" serif:id="#000000ff">
                    <path d="M228.07,459.81C232.28,458.91 236.74,458.95 240.97,459.74C244.38,460.34 243.91,464.43 244.03,467.01C243.76,486.31 243.61,505.62 243.82,524.92C243.86,530.91 246.13,537.19 251.13,540.79C257.39,545.38 265.64,545.85 273.09,544.92C279.47,544.09 285.88,540.64 288.75,534.67C291.32,529.53 290.98,523.62 291.01,518.05C290.87,501.01 291.28,483.96 290.72,466.93C290.88,464.55 290.4,461.16 293.11,460.05C297.3,459.07 301.72,459.35 305.98,459.74C308.67,459.86 309.67,462.69 309.49,465C309.53,484.65 309.49,504.3 309.5,523.94C309.59,531.68 307.66,539.64 302.78,545.77C295.1,555.72 282.35,560.77 269.99,560.77C261.31,560.75 252.3,559.66 244.64,555.3C240.76,553.21 237.59,550.08 234.6,546.9C229.44,553.05 222.35,557.5 214.49,559.21C203.94,561.42 192.56,561.69 182.43,557.55C173.68,554.13 165.97,547.44 162.37,538.65C160.08,533.4 159.79,527.6 159.74,521.96C159.74,505.31 159.77,488.65 159.73,472C159.78,468.68 159.48,465.3 160.23,462.04C160.69,459.93 163.22,459.66 165,459.53C168.64,459.46 172.37,459.12 175.94,460.01C178.14,460.57 178.26,463.14 178.26,465C178.25,484.36 178.24,503.72 178.25,523.09C178.27,528.63 179.28,534.63 183.33,538.74C188.29,544.08 196.03,545.52 203.03,545.29C210.04,545.23 217.72,542.94 221.89,536.93C226.41,530.56 225.35,522.34 225.51,514.99C225.26,498.29 225.17,481.59 225.27,464.89C225.28,462.91 225.67,460.19 228.07,459.81Z" style="fill:white;fill-rule:nonzero;"/>
                    <path d="M688.3,460.48C694.4,457.4 702.87,461.74 702.53,468.96C703.4,475.72 696.26,481.04 689.95,478.95C681.53,477.2 680.6,463.84 688.3,460.48M689.36,462.37C683.32,465.14 684.27,475.78 690.98,477C696.27,478.56 701.38,473.27 700.19,468.03C699.79,462.97 693.73,460.05 689.36,462.37Z" style="fill:white;fill-rule:nonzero;"/>
                    <path d="M689.03,464.15C691.65,464.61 695.59,463.15 697.07,466.11C698.15,468.01 696.34,469.56 695.56,471.15C696.35,472.43 697.13,473.72 697.9,475.04C695.39,474.18 693.51,472.33 691.65,470.56C691.08,472.27 690.45,473.98 689.4,475.48C688.89,471.72 688.95,467.93 689.03,464.15M691.13,465.88L691.13,469.71C692.63,469.23 694.17,468.79 695.58,468.04C695.22,465.86 692.62,466.49 691.13,465.88Z" style="fill:white;fill-rule:nonzero;"/>
                    <path d="M627.05,480.15C635.77,478.42 644.92,478.51 653.57,480.66C664.58,483.47 674.95,490.56 679.85,501.05C683.21,508.39 684.45,516.87 682.96,524.82C681.66,525.06 680.36,525.21 679.05,525.25C656.68,525.31 634.31,525.15 611.94,525.33C613.63,531.67 617.32,537.67 623.18,540.92C633.84,547.08 648.26,546.48 658.16,539.03C665.03,538.99 671.91,538.96 678.78,539.05C673.09,548.47 663.29,555.02 652.61,557.42C642.47,559.73 631.66,559.45 621.74,556.26C610.73,552.64 600.87,544.32 597.16,533.12C593.64,522.43 594.03,510.22 599.12,500.09C604.56,489.45 615.56,482.54 627.05,480.15M622.96,496.79C617.28,499.95 613.64,505.65 611.76,511.74C630.07,511.74 648.37,511.79 666.68,511.71C665.2,507.45 663.32,503.15 659.9,500.08C650.13,491.04 634.25,490.11 622.96,496.79Z" style="fill:white;fill-rule:nonzero;"/>
                    <path d="M330.03,480.99C334.33,479.02 339.39,479.62 343.96,480.23C345.91,480.4 346.58,482.25 346.48,483.97C346.64,496.99 346.27,510.02 346.73,523.03C346.86,527.85 346.09,533.04 348.58,537.43C351.15,542.29 356.6,545.08 361.98,545.26C367.43,545.56 373.52,544.56 377.4,540.37C381.03,536.56 381.77,531.03 381.76,525.98C381.74,512.65 381.76,499.32 381.73,485.99C381.8,483.95 381.56,480.89 384.14,480.34C388.34,479.41 392.78,479.48 396.99,480.31C399.1,480.79 399.32,483.21 399.26,485.01C399.27,499.02 399.22,513.04 399.26,527.06C399.34,532 400.42,537.36 404.18,540.86C408.04,544.65 413.76,545.53 418.95,545.27C423.89,545.12 428.88,542.81 431.68,538.65C434.05,535.27 434.47,531.02 434.51,527.02C434.5,513 434.49,498.99 434.49,484.98C434.38,483.09 434.72,480.47 437.07,480.22C441.21,479.55 445.57,479.39 449.68,480.38C452.14,480.92 451.84,484.02 452.01,485.96C451.95,501.99 452.1,518.03 451.93,534.07C451.67,543.83 444.55,552.11 436.05,556.2C421.44,563.04 402.02,561.36 390.52,549.39C385.4,554.8 378.47,558.25 371.15,559.44C358.92,561.63 345.04,558.98 336.14,549.82C331.65,545.43 329.05,539.27 329.04,532.99C328.93,517.66 329.06,502.33 328.97,487C329.07,484.98 328.86,482.75 330.03,480.99Z" style="fill:white;fill-rule:nonzero;"/>
                    <path d="M471.73,486.02C471.85,484.06 471.61,481 474,480.32C478.24,479.43 482.73,479.44 486.98,480.3C489.2,480.66 489.32,483.15 489.27,484.94C489.24,509.54 489.26,534.15 489.25,558.75C483.42,558.75 477.58,558.74 471.75,558.75C471.74,534.51 471.76,510.27 471.73,486.02Z" style="fill:white;fill-rule:nonzero;"/>
                    <path d="M514.46,486.33C520.88,481.51 529.18,480.22 537.01,480C551.59,479.99 566.17,480 580.75,480C580.41,484.42 581.76,489.38 579.44,493.4C577.33,493.92 575.14,493.93 572.99,494.01C559.97,494.06 546.95,493.9 533.94,494.05C530.67,494.04 526.64,495.36 526.03,499.05C524.66,503.04 528.97,505.62 532.09,506.83C545.44,511.75 560.13,512.59 572.92,519.12C578.05,521.75 582.97,525.8 584.64,531.54C586.42,538.44 584.78,546.52 579.31,551.36C571.74,558.34 560.79,558.96 551.02,558.76C536.52,558.74 522.01,558.75 507.51,558.75C507.61,554.56 507.07,550.29 507.92,546.16C508.67,544.57 510.51,544.83 511.97,544.74C526.96,544.7 541.96,544.83 556.95,544.71C560.81,544.58 566.06,543.59 566.84,539.05C568.13,534.44 563.3,531.67 559.72,530.29C546.63,525.47 532.29,524.46 519.72,518.14C514.84,515.74 510.18,512.03 508.31,506.76C506,499.57 508.24,490.87 514.46,486.33Z" style="fill:white;fill-rule:nonzero;"/>
                </g>
            </g>
        </g>
    </g>
</svg>
