<?xml version="1.0" encoding="UTF-8" standalone="no"?>
<!DOCTYPE svg PUBLIC "-//W3C//DTD SVG 1.1//EN" "http://www.w3.org/Graphics/SVG/1.1/DTD/svg11.dtd">
<svg width="100%" height="100%" viewBox="0 0 1000 1000" version="1.1" xmlns="http://www.w3.org/2000/svg" xmlns:xlink="http://www.w3.org/1999/xlink" xml:space="preserve" xmlns:serif="http://www.serif.com/" style="fill-rule:evenodd;clip-rule:evenodd;stroke-linejoin:round;stroke-miterlimit:2;">
    <g transform="matrix(1.24296,0,0,1.24296,-121.479,-121.479)">
        <path d="M134.905,216.138C166.258,222.2 198.605,219.803 230.128,217.974C249.373,216.858 268.615,215.59 287.822,213.865C357.458,207.612 427.009,200.286 496.646,194.041C546.944,189.531 598.281,184.826 648.864,188.55C680.487,190.878 716.548,196.11 748.086,200.259C773.494,203.602 848.512,212.952 873.597,218.138C878.581,219.169 884.763,226.252 887.528,230.269C901.756,250.937 894.067,279.513 893.417,302.493C892.862,322.12 892.988,341.769 893.38,361.401C894.999,442.5 897.122,523.587 899.45,604.666C901.011,659.023 912.382,723.117 874.719,767.482C870.579,772.36 865.748,776.535 860.833,780.483C823.318,810.618 773.302,810.354 728.861,811.301C700.863,811.898 672.865,812.86 644.862,812.794C522.599,812.507 400.575,802.193 278.602,794.627C236.056,791.988 167.546,795.593 124.905,795.585C118.897,795.691 102.821,780.773 102.315,769.614C91.292,651.783 104.275,387.07 99.354,263.271C98.701,246.833 126.973,214.577 134.905,216.138ZM400.348,480.65L379.519,422.929C376.752,417.239 373.941,411.46 370.01,406.502C354.633,387.109 338.264,368.51 321.751,350.074C314.78,342.292 307.183,335.087 299.603,327.897L285.569,329.241L281.292,336.855C283.589,358.163 285.887,379.474 287.783,400.823C288.103,404.431 288.021,408.067 287.939,411.688C289.879,413.143 291.823,414.601 293.644,416.202C296.355,418.585 298.366,420.737 300.523,423.631C302.006,425.62 304.537,428.174 305.323,430.526C305.81,431.98 306.071,433.504 306.33,435.015L295.491,429.688L288.008,428.495L283.24,474.516C279.734,477.875 276.223,481.24 272.488,484.342C266.301,489.48 260.303,494.941 253.494,499.22C246.03,503.91 212.042,521.197 212.042,521.197L218.269,525.994C218.269,525.994 224.483,527.59 227.586,528.403C234.699,530.268 260.951,537.18 260.951,537.18C260.951,537.18 269.963,537.047 274.31,536.951C278.552,536.857 287.035,536.603 287.035,536.603L290.843,537.949L279.432,542.461L257.293,543.547C257.293,543.547 239.3,540.299 230.312,538.632C220.894,536.884 200.781,533.062 200.781,533.062L180.633,536.12C180.633,536.12 162.55,544.506 149.937,550.038L145,562.232L175.301,575.203L260.821,585.94C264.456,583.848 268.1,581.751 271.903,579.98C276.8,577.698 281.666,575.193 286.886,573.798C290.615,572.802 292.03,584.172 292.03,584.172C299.174,583.481 306.322,582.789 313.423,581.748C323.908,580.21 334.59,579.388 344.768,576.437C350.936,574.648 356.353,570.866 361.929,567.682C365.331,565.739 368.501,563.405 371.656,561.082L382.757,561.288L396.028,547.525L409.299,549.491C413.061,552.82 416.92,556.234 419.621,560.469C421.096,562.781 421.267,565.759 421.423,568.497C421.4,569.933 421.375,571.455 420.768,572.757C418.287,578.073 415.496,583.272 412.248,588.158C411.489,589.3 409.018,589.213 408.921,590.581C408.705,593.595 417.983,590.451 417.983,590.451L436.333,583.079C439.17,579.756 442.03,576.407 445.344,573.559C448.294,571.023 451.669,569.013 455.01,567.022L462.383,568.005L464.677,574.559C461.884,579.384 459.075,584.238 455.666,588.649C452.547,592.685 448.851,596.25 445.18,599.79L440.903,606.948C442.231,607.956 443.591,608.987 445.136,609.611C447.46,610.55 449.946,612.143 452.389,611.587C457.566,610.407 462.049,607.164 466.746,604.688C470.14,602.9 473.392,600.851 476.637,598.807C479.842,596.075 483.072,593.321 485.812,590.124C488.998,586.407 491.673,582.273 494.332,578.163C497.194,579.483 500.082,580.814 502.688,582.587C505.411,584.44 507.828,586.718 510.224,588.977C511.322,590.59 512.427,592.214 513.283,593.968C514.673,596.815 516.445,599.61 516.942,602.739C517.705,607.543 517.124,612.469 516.993,617.331C516.905,620.612 516.595,623.884 516.286,627.151L527.591,635.999C531.918,636.029 536.336,636.059 540.535,635.016C542.698,634.478 544.356,632.707 546.152,631.386C547.26,630.571 548.242,629.595 549.218,628.626L551.512,613.88C549.729,608.485 547.914,602.993 547.416,597.333C547.08,593.511 548.086,589.652 549.054,585.94C553.127,586.321 557.245,586.707 561.179,587.83C565.061,588.938 568.711,590.77 572.32,592.581L576.579,613.717L573.794,620.926C577.739,627.374 581.693,633.837 585.099,640.586C587.603,645.548 589.55,650.778 591.489,655.987L592.636,682.693L578.054,701.207C579.891,702.98 581.763,704.787 583.133,706.941C591.231,719.673 598.331,733.02 606.398,745.771C609.819,751.178 625.076,741.348 625.076,741.348C625.709,737.381 626.344,733.399 626.551,729.387C626.946,721.696 626.293,713.965 626.878,706.286C627.16,702.581 628.157,698.953 629.141,695.37C627,690.891 624.856,686.406 622.997,681.802C621.269,677.523 619.636,673.19 618.389,668.746C617.666,666.166 617.386,663.475 617.109,660.81C613.672,655.082 610.209,649.312 607.637,643.146C603.96,634.33 600.955,625.221 598.421,616.01C596.508,609.056 595.414,601.893 594.325,594.762L606.101,592.97L616.341,601.418C619.111,605.885 621.882,610.352 624.789,614.73C634.41,629.217 643.66,641.495 652.488,656.546C661.855,672.516 670.771,688.748 679.684,704.975L687.155,722.277C689.416,724.989 691.746,727.784 694.71,729.704C698.792,732.348 703.749,733.37 707.981,735.766C712.955,738.582 717.607,741.943 722.24,745.29C724.724,744.82 727.214,744.349 729.729,744.099C732.924,743.78 736.148,743.311 739.347,743.583C741.71,743.784 739.28,750.696 739.28,750.696L759.759,752.335C760.915,751.942 762.081,751.545 763.159,750.973C764.767,750.12 766.651,749.496 767.788,748.075C768.832,746.769 768.937,744.924 769.303,743.293C769.541,742.233 769.566,741.133 769.59,740.047C762.491,734.039 755.39,728.029 748.449,721.84C738.293,712.784 728.33,703.514 718.303,694.315C712.46,688.954 706.65,683.558 700.84,678.162C698.052,673.597 695.264,669.03 692.32,664.564C688.927,659.416 685.571,654.231 681.834,649.327C680.313,647.33 678.442,645.616 676.591,643.92C674.785,643.395 672.812,642.822 671.512,641.462C669.083,638.923 667.606,635.616 665.778,632.615C661.417,625.456 658.578,617.222 655.292,609.677C653.408,605.351 651.483,601.043 649.558,596.734L639.4,579.531C639.15,575.496 638.894,571.363 639.727,567.407C640.18,565.258 644.857,563.274 644.857,563.274L662.521,578.634C671.721,588.287 680.921,597.941 690.249,607.472C694.282,611.593 701.308,619.109 707.118,622.724C713.557,626.73 714.813,626.336 723.049,626.944C725.13,627.098 727.222,627.049 729.308,627.001C732.43,626.459 735.636,625.902 738.483,624.511C741.373,623.1 743.825,620.894 746.216,618.744L747.218,606.306L704.21,577.89C693.076,570.608 681.916,563.309 671.442,555.106C667.686,552.165 664.672,548.353 661.714,544.61C657.318,540.207 652.892,535.773 649.17,530.786C647.522,528.578 648.119,522.778 649.17,520.803C650.478,518.343 652.545,516.341 654.546,514.403C656.515,516.466 658.587,518.639 661.202,519.779C670.286,523.737 689.315,530.875 701.906,532.322C705.468,532.732 709.136,533.249 712.658,532.578C716.456,531.855 719.982,530.015 723.41,528.226L723.922,521.315C721.223,519.838 718.46,518.327 716.242,516.195C709.624,509.834 703.581,502.893 697.554,495.971C696.751,492.975 695.909,489.834 696.274,486.755C696.535,484.556 698.004,482.627 699.346,480.867C703.44,479.047 707.683,477.161 712.146,476.771C714.809,476.538 717.441,477.869 719.826,479.075L724.434,470.627L724.178,460.899C727.663,461.208 731.342,461.535 734.418,463.203C738.625,465.483 741.686,469.433 745.426,472.419C752.269,477.882 758.917,483.629 766.162,488.547C769.005,490.477 771.749,488.238 774.61,490.083C779.459,493.21 783.834,497.036 788.178,500.835C791.283,495.796 794.417,490.709 796.626,485.219C804.161,466.486 828.624,414.551 830.163,383.424C830.591,374.748 828.978,356.396 827.377,347.707C826.086,340.699 825.008,333.556 822.462,326.9C821.148,323.465 805.51,292.644 802.998,289.958C793.681,281.663 784.057,275.317 773.921,272.211C764.2,271.706 754.448,271.201 744.723,271.638C739.709,271.864 735.804,275.911 730.633,275.571C726.992,275.331 723.546,273.807 720.075,272.683C717.803,271.947 715.612,270.972 713.43,270C696.739,274.011 680.026,278.028 663.629,283.107C644.887,288.913 645.807,291.081 627.018,296.118C623.54,297.05 619.832,297.424 616.624,299.06C614.258,300.267 612.567,302.503 610.733,304.424C609.592,305.619 608.658,307.002 607.732,308.371C609.586,310.932 611.445,313.498 613.087,316.2C621.998,330.852 622.443,346.129 623.171,349.938C624.393,351.134 625.623,352.339 626.665,353.694C628.361,355.898 630.311,358.014 631.363,360.587C635.267,370.138 646.729,406.272 648.566,416.171C649.363,420.468 648.62,424.922 648.286,429.28C648.081,431.955 647.516,434.594 646.954,437.218L666.563,439.42C668.207,440.621 669.859,441.829 671.342,443.225C673.433,445.193 676.051,446.881 677.258,449.486C678.085,451.272 677.294,453.441 676.971,455.382C676.757,456.669 676.204,457.885 675.664,459.073L655.741,474.932L648.794,471.131L649.318,463.005C646.099,460.525 642.872,458.038 639.885,455.282C634.955,450.734 629.702,446.418 625.594,441.116C622.786,437.491 611.608,414.405 609.919,410.736C609.642,410.134 602.251,391.849 600.53,390.121C597.265,386.841 588.637,397.285 588.637,397.285L587.064,404.887L598.725,453.83L611.832,474.67L619.701,486.7L615.371,497.083C611.988,493.186 608.604,489.287 605.385,485.254C591.317,467.633 590.985,467.974 580.966,447.937C579.142,444.289 577.529,440.537 575.918,436.79C572.913,435.71 569.739,434.57 567.413,432.383C566.214,431.255 570.806,428.795 570.806,428.795C564.929,415.769 559.044,402.724 554.029,389.343C551.384,382.284 550.038,374.803 547.869,367.585C547.502,366.365 546.963,365.201 546.427,364.046C542.055,360.903 537.661,357.745 533.713,354.084C531.03,351.597 528.87,348.592 526.635,345.696C523.842,342.077 521.24,338.314 518.64,334.555L507.892,334.161L501.6,337.307C502.205,340.406 502.811,343.509 503.599,346.566C504.909,351.639 505.856,356.859 507.892,361.686C513.381,374.706 519.466,387.49 526.111,399.959C537.419,421.179 551.907,440.6 563.204,461.825C568.307,471.413 572.509,481.457 576.958,491.365C579.631,497.319 582.101,503.363 584.569,509.404C587.285,513.778 590.008,518.164 592.302,522.774C594.561,527.314 596.917,531.892 598.2,536.798C598.919,539.546 598.551,542.5 598.2,545.318L587.19,545.973C575.939,532.351 566.675,517.934 558.092,503.244L553.505,477.554C552.751,475.583 551.97,473.541 550.621,471.918C546.988,467.545 542.831,463.627 538.694,459.728L531.485,458.548L523.883,467.461L527.028,485.287L548.524,522.774C553.733,533.553 557.439,543.998 560.189,554.231L548.393,549.041C546.73,544.175 545.066,539.308 543.412,534.439C542.27,531.077 541.137,527.712 540.004,524.346C538.019,520.556 536.029,516.756 534.368,512.812C532.529,508.443 531.757,503.621 529.519,499.443C527.287,495.277 524.168,491.631 521.096,488.04L509.465,486.729L504.091,490.53L504.091,506.521C507.518,510.614 510.979,514.748 513.659,519.366C515.136,521.911 515.784,524.879 516.411,527.754L513.266,552.789C510.221,551.852 506.984,550.856 504.615,548.726C501.605,546.019 499.599,542.322 497.668,538.764L498.586,521.856L486.789,488.957L477.614,488.171C476.04,490.013 474.402,491.931 473.551,494.2C472.653,496.595 472.576,499.245 472.502,501.802C473.355,503.676 474.251,505.643 474.337,507.7C474.702,516.326 473.311,516.006 470.667,524.084C469.532,527.553 469.048,531.213 468.57,534.832C467.454,535.622 466.254,536.471 464.9,536.667C463.414,536.883 461.815,536.624 460.444,536.012C459.258,535.482 458.379,534.399 457.56,533.39L458.216,510.06C456.642,506.078 455.054,502.06 452.842,498.394C451.947,496.912 450.454,495.855 449.041,494.855L443.867,493.281C443.328,493.941 442.734,494.667 442.618,495.511C442.216,498.434 442.931,501.468 442.341,504.36C441.04,510.747 439.629,517.21 436.982,523.167C435.977,525.429 430.035,525.788 430.035,525.788L422.302,517.662L422.826,509.011L421.516,499.705L405.787,491.316L403.952,482.403L400.348,480.65ZM764.067,403.027C764.067,403.027 766.278,401.409 768.223,400.508C771.812,398.844 783.393,392.841 783.393,392.841C783.393,392.841 786.986,390.27 786.546,389.046C786.269,388.275 784.57,387.307 784.57,387.307C784.57,387.307 780.275,386.361 778.134,386.655C773.925,387.234 759.318,390.778 759.318,390.778C759.318,390.778 756.829,387.789 755.99,386.054C754.205,382.368 748.614,368.66 748.614,368.66L745.607,365.341C745.607,365.341 742.956,364.566 742.277,364.792C739.914,365.579 742.861,380.724 742.861,380.724L746.27,393.227L742.872,395.674C742.872,395.674 733.351,398.91 725.825,403.194C721.201,405.826 716.748,409.514 717.439,411.139C717.796,411.978 719.431,412.978 719.431,412.978C724.004,413.045 727.531,411.818 731.558,411.086C735.661,410.34 739.964,409.495 744.05,408.503C746.419,407.927 748.815,407.304 751.14,406.641L761.538,427.597C761.538,427.597 764.977,433.23 767.181,436.043C768.662,437.933 768.969,437.489 769.611,437.185C771.586,436.25 770.88,430.338 770.535,426.503C770.027,420.866 766.042,413.405 764.422,408.646C763.115,404.805 764.067,403.027 764.067,403.027Z" style="fill:rgb(190,30,20);"/>
    </g>
    <g transform="matrix(1.24296,0,0,1.24296,-121.479,-121.479)">
        <path d="M134.905,216.138C166.258,222.2 198.605,219.803 230.128,217.974C249.373,216.858 268.615,215.59 287.822,213.865C357.458,207.612 427.009,200.286 496.646,194.041C546.944,189.531 598.281,184.826 648.864,188.55C680.487,190.878 716.548,196.11 748.086,200.259C773.494,203.602 848.512,212.952 873.597,218.138C878.581,219.169 884.763,226.252 887.528,230.269C901.756,250.937 894.067,279.513 893.417,302.493C892.862,322.12 892.988,341.769 893.38,361.401C894.999,442.5 897.122,523.587 899.45,604.666C901.011,659.023 912.382,723.117 874.719,767.482C870.579,772.36 865.748,776.535 860.833,780.483C823.318,810.618 773.302,810.354 728.861,811.301C700.863,811.898 672.865,812.86 644.862,812.794C522.599,812.507 400.575,802.193 278.602,794.627C236.056,791.988 167.546,795.593 124.905,795.585C118.897,795.691 102.821,780.773 102.315,769.614C91.292,651.783 104.275,387.07 99.354,263.271C98.701,246.833 126.973,214.577 134.905,216.138ZM400.348,480.65L379.519,422.929C376.752,417.239 373.941,411.46 370.01,406.502C354.633,387.109 338.264,368.51 321.751,350.074C314.78,342.292 307.183,335.087 299.603,327.897L285.569,329.241L281.292,336.855C283.589,358.163 285.887,379.474 287.783,400.823C288.103,404.431 288.021,408.067 287.939,411.688C289.879,413.143 291.823,414.601 293.644,416.202C296.355,418.585 298.366,420.737 300.523,423.631C302.006,425.62 304.537,428.174 305.323,430.526C305.81,431.98 306.071,433.504 306.33,435.015L295.491,429.688L288.008,428.495L283.24,474.516C279.734,477.875 276.223,481.24 272.488,484.342C266.301,489.48 260.303,494.941 253.494,499.22C246.03,503.91 212.042,521.197 212.042,521.197L218.269,525.994C218.269,525.994 224.483,527.59 227.586,528.403C234.699,530.268 260.951,537.18 260.951,537.18C260.951,537.18 269.963,537.047 274.31,536.951C278.552,536.857 287.035,536.603 287.035,536.603L290.843,537.949L279.432,542.461L257.293,543.547C257.293,543.547 239.3,540.299 230.312,538.632C220.894,536.884 200.781,533.062 200.781,533.062L180.633,536.12C180.633,536.12 162.55,544.506 149.937,550.038L145,562.232L175.301,575.203L260.821,585.94C264.456,583.848 268.1,581.751 271.903,579.98C276.8,577.698 281.666,575.193 286.886,573.798C290.615,572.802 292.03,584.172 292.03,584.172C299.174,583.481 306.322,582.789 313.423,581.748C323.908,580.21 334.59,579.388 344.768,576.437C350.936,574.648 356.353,570.866 361.929,567.682C365.331,565.739 368.501,563.405 371.656,561.082L382.757,561.288L396.028,547.525L409.299,549.491C413.061,552.82 416.92,556.234 419.621,560.469C421.096,562.781 421.267,565.759 421.423,568.497C421.4,569.933 421.375,571.455 420.768,572.757C418.287,578.073 415.496,583.272 412.248,588.158C411.489,589.3 409.018,589.213 408.921,590.581C408.705,593.595 417.983,590.451 417.983,590.451L436.333,583.079C439.17,579.756 442.03,576.407 445.344,573.559C448.294,571.023 451.669,569.013 455.01,567.022L462.383,568.005L464.677,574.559C461.884,579.384 459.075,584.238 455.666,588.649C452.547,592.685 448.851,596.25 445.18,599.79L440.903,606.948C442.231,607.956 443.591,608.987 445.136,609.611C447.46,610.55 449.946,612.143 452.389,611.587C457.566,610.407 462.049,607.164 466.746,604.688C470.14,602.9 473.392,600.851 476.637,598.807C479.842,596.075 483.072,593.321 485.812,590.124C488.998,586.407 491.673,582.273 494.332,578.163C497.194,579.483 500.082,580.814 502.688,582.587C505.411,584.44 507.828,586.718 510.224,588.977C511.322,590.59 512.427,592.214 513.283,593.968C514.673,596.815 516.445,599.61 516.942,602.739C517.705,607.543 517.124,612.469 516.993,617.331C516.905,620.612 516.595,623.884 516.286,627.151L527.591,635.999C531.918,636.029 536.336,636.059 540.535,635.016C542.698,634.478 544.356,632.707 546.152,631.386C547.26,630.571 548.242,629.595 549.218,628.626L551.512,613.88C549.729,608.485 547.914,602.993 547.416,597.333C547.08,593.511 548.086,589.652 549.054,585.94C553.127,586.321 557.245,586.707 561.179,587.83C565.061,588.938 568.711,590.77 572.32,592.581L576.579,613.717L573.794,620.926C577.739,627.374 581.693,633.837 585.099,640.586C587.603,645.548 589.55,650.778 591.489,655.987L592.636,682.693L578.054,701.207C579.891,702.98 581.763,704.787 583.133,706.941C591.231,719.673 598.331,733.02 606.398,745.771C609.819,751.178 625.076,741.348 625.076,741.348C625.709,737.381 626.344,733.399 626.551,729.387C626.946,721.696 626.293,713.965 626.878,706.286C627.16,702.581 628.157,698.953 629.141,695.37C627,690.891 624.856,686.406 622.997,681.802C621.269,677.523 619.636,673.19 618.389,668.746C617.666,666.166 617.386,663.475 617.109,660.81C613.672,655.082 610.209,649.312 607.637,643.146C603.96,634.33 600.955,625.221 598.421,616.01C596.508,609.056 595.414,601.893 594.325,594.762L606.101,592.97L616.341,601.418C619.111,605.885 621.882,610.352 624.789,614.73C634.41,629.217 643.66,641.495 652.488,656.546C661.855,672.516 670.771,688.748 679.684,704.975L687.155,722.277C689.416,724.989 691.746,727.784 694.71,729.704C698.792,732.348 703.749,733.37 707.981,735.766C712.955,738.582 717.607,741.943 722.24,745.29C724.724,744.82 727.214,744.349 729.729,744.099C732.924,743.78 736.148,743.311 739.347,743.583C741.71,743.784 739.28,750.696 739.28,750.696L759.759,752.335C760.915,751.942 762.081,751.545 763.159,750.973C764.767,750.12 766.651,749.496 767.788,748.075C768.832,746.769 768.937,744.924 769.303,743.293C769.541,742.233 769.566,741.133 769.59,740.047C762.491,734.039 755.39,728.029 748.449,721.84C738.293,712.784 728.33,703.514 718.303,694.315C712.46,688.954 706.65,683.558 700.84,678.162C698.052,673.597 695.264,669.03 692.32,664.564C688.927,659.416 685.571,654.231 681.834,649.327C680.313,647.33 678.442,645.616 676.591,643.92C674.785,643.395 672.812,642.822 671.512,641.462C669.083,638.923 667.606,635.616 665.778,632.615C661.417,625.456 658.578,617.222 655.292,609.677C653.408,605.351 651.483,601.043 649.558,596.734L639.4,579.531C639.15,575.496 638.894,571.363 639.727,567.407C640.18,565.258 644.857,563.274 644.857,563.274L662.521,578.634C671.721,588.287 680.921,597.941 690.249,607.472C694.282,611.593 701.308,619.109 707.118,622.724C713.557,626.73 714.813,626.336 723.049,626.944C725.13,627.098 727.222,627.049 729.308,627.001C732.43,626.459 735.636,625.902 738.483,624.511C741.373,623.1 743.825,620.894 746.216,618.744L747.218,606.306L704.21,577.89C693.076,570.608 681.916,563.309 671.442,555.106C667.686,552.165 664.672,548.353 661.714,544.61C657.318,540.207 652.892,535.773 649.17,530.786C647.522,528.578 648.119,522.778 649.17,520.803C650.478,518.343 652.545,516.341 654.546,514.403C656.515,516.466 658.587,518.639 661.202,519.779C670.286,523.737 689.315,530.875 701.906,532.322C705.468,532.732 709.136,533.249 712.658,532.578C716.456,531.855 719.982,530.015 723.41,528.226L723.922,521.315C721.223,519.838 718.46,518.327 716.242,516.195C709.624,509.834 703.581,502.893 697.554,495.971C696.751,492.975 695.909,489.834 696.274,486.755C696.535,484.556 698.004,482.627 699.346,480.867C703.44,479.047 707.683,477.161 712.146,476.771C714.809,476.538 717.441,477.869 719.826,479.075L724.434,470.627L724.178,460.899C727.663,461.208 731.342,461.535 734.418,463.203C738.625,465.483 741.686,469.433 745.426,472.419C752.269,477.882 758.917,483.629 766.162,488.547C769.005,490.477 771.749,488.238 774.61,490.083C779.459,493.21 783.834,497.036 788.178,500.835C791.283,495.796 794.417,490.709 796.626,485.219C804.161,466.486 828.624,414.551 830.163,383.424C830.591,374.748 828.978,356.396 827.377,347.707C826.086,340.699 825.008,333.556 822.462,326.9C821.148,323.465 805.51,292.644 802.998,289.958C793.681,281.663 784.057,275.317 773.921,272.211C764.2,271.706 754.448,271.201 744.723,271.638C739.709,271.864 735.804,275.911 730.633,275.571C726.992,275.331 723.546,273.807 720.075,272.683C717.803,271.947 715.612,270.972 713.43,270C696.739,274.011 680.026,278.028 663.629,283.107C644.887,288.913 645.807,291.081 627.018,296.118C623.54,297.05 619.832,297.424 616.624,299.06C614.258,300.267 612.567,302.503 610.733,304.424C609.592,305.619 608.658,307.002 607.732,308.371C609.586,310.932 611.445,313.498 613.087,316.2C621.998,330.852 622.443,346.129 623.171,349.938C624.393,351.134 625.623,352.339 626.665,353.694C628.361,355.898 630.311,358.014 631.363,360.587C635.267,370.138 646.729,406.272 648.566,416.171C649.363,420.468 648.62,424.922 648.286,429.28C648.081,431.955 647.516,434.594 646.954,437.218L666.563,439.42C668.207,440.621 669.859,441.829 671.342,443.225C673.433,445.193 676.051,446.881 677.258,449.486C678.085,451.272 677.294,453.441 676.971,455.382C676.757,456.669 676.204,457.885 675.664,459.073L655.741,474.932L648.794,471.131L649.318,463.005C646.099,460.525 642.872,458.038 639.885,455.282C634.955,450.734 629.702,446.418 625.594,441.116C622.786,437.491 611.608,414.405 609.919,410.736C609.642,410.134 602.251,391.849 600.53,390.121C597.265,386.841 588.637,397.285 588.637,397.285L587.064,404.887L598.725,453.83L611.832,474.67L619.701,486.7L615.371,497.083C611.988,493.186 608.604,489.287 605.385,485.254C591.317,467.633 590.985,467.974 580.966,447.937C579.142,444.289 577.529,440.537 575.918,436.79C572.913,435.71 569.739,434.57 567.413,432.383C566.214,431.255 570.806,428.795 570.806,428.795C564.929,415.769 559.044,402.724 554.029,389.343C551.384,382.284 550.038,374.803 547.869,367.585C547.502,366.365 546.963,365.201 546.427,364.046C542.055,360.903 537.661,357.745 533.713,354.084C531.03,351.597 528.87,348.592 526.635,345.696C523.842,342.077 521.24,338.314 518.64,334.555L507.892,334.161L501.6,337.307C502.205,340.406 502.811,343.509 503.599,346.566C504.909,351.639 505.856,356.859 507.892,361.686C513.381,374.706 519.466,387.49 526.111,399.959C537.419,421.179 551.907,440.6 563.204,461.825C568.307,471.413 572.509,481.457 576.958,491.365C579.631,497.319 582.101,503.363 584.569,509.404C587.285,513.778 590.008,518.164 592.302,522.774C594.561,527.314 596.917,531.892 598.2,536.798C598.919,539.546 598.551,542.5 598.2,545.318L587.19,545.973C575.939,532.351 566.675,517.934 558.092,503.244L553.505,477.554C552.751,475.583 551.97,473.541 550.621,471.918C546.988,467.545 542.831,463.627 538.694,459.728L531.485,458.548L523.883,467.461L527.028,485.287L548.524,522.774C553.733,533.553 557.439,543.998 560.189,554.231L548.393,549.041C546.73,544.175 545.066,539.308 543.412,534.439C542.27,531.077 541.137,527.712 540.004,524.346C538.019,520.556 536.029,516.756 534.368,512.812C532.529,508.443 531.757,503.621 529.519,499.443C527.287,495.277 524.168,491.631 521.096,488.04L509.465,486.729L504.091,490.53L504.091,506.521C507.518,510.614 510.979,514.748 513.659,519.366C515.136,521.911 515.784,524.879 516.411,527.754L513.266,552.789C510.221,551.852 506.984,550.856 504.615,548.726C501.605,546.019 499.599,542.322 497.668,538.764L498.586,521.856L486.789,488.957L477.614,488.171C476.04,490.013 474.402,491.931 473.551,494.2C472.653,496.595 472.576,499.245 472.502,501.802C473.355,503.676 474.251,505.643 474.337,507.7C474.702,516.326 473.311,516.006 470.667,524.084C469.532,527.553 469.048,531.213 468.57,534.832C467.454,535.622 466.254,536.471 464.9,536.667C463.414,536.883 461.815,536.624 460.444,536.012C459.258,535.482 458.379,534.399 457.56,533.39L458.216,510.06C456.642,506.078 455.054,502.06 452.842,498.394C451.947,496.912 450.454,495.855 449.041,494.855L443.867,493.281C443.328,493.941 442.734,494.667 442.618,495.511C442.216,498.434 442.931,501.468 442.341,504.36C441.04,510.747 439.629,517.21 436.982,523.167C435.977,525.429 430.035,525.788 430.035,525.788L422.302,517.662L422.826,509.011L421.516,499.705L405.787,491.316L403.952,482.403L400.348,480.65ZM764.067,403.027C764.067,403.027 766.278,401.409 768.223,400.508C771.812,398.844 783.393,392.841 783.393,392.841C783.393,392.841 786.986,390.27 786.546,389.046C786.269,388.275 784.57,387.307 784.57,387.307C784.57,387.307 780.275,386.361 778.134,386.655C773.925,387.234 759.318,390.778 759.318,390.778C759.318,390.778 756.829,387.789 755.99,386.054C754.205,382.368 748.614,368.66 748.614,368.66L745.607,365.341C745.607,365.341 742.956,364.566 742.277,364.792C739.914,365.579 742.861,380.724 742.861,380.724L746.27,393.227L742.872,395.674C742.872,395.674 733.351,398.91 725.825,403.194C721.201,405.826 716.748,409.514 717.439,411.139C717.796,411.978 719.431,412.978 719.431,412.978C724.004,413.045 727.531,411.818 731.558,411.086C735.661,410.34 739.964,409.495 744.05,408.503C746.419,407.927 748.815,407.304 751.14,406.641L761.538,427.597C761.538,427.597 764.977,433.23 767.181,436.043C768.662,437.933 768.969,437.489 769.611,437.185C771.586,436.25 770.88,430.338 770.535,426.503C770.027,420.866 766.042,413.405 764.422,408.646C763.115,404.805 764.067,403.027 764.067,403.027Z" style="fill:rgb(22,22,22);"/>
    </g>
</svg>
