<?xml version="1.0" encoding="UTF-8" standalone="no"?>
<!DOCTYPE svg PUBLIC "-//W3C//DTD SVG 1.1//EN" "http://www.w3.org/Graphics/SVG/1.1/DTD/svg11.dtd">
<svg width="100%" height="100%" viewBox="0 0 1000 1000" version="1.1" xmlns="http://www.w3.org/2000/svg" xmlns:xlink="http://www.w3.org/1999/xlink" xml:space="preserve" xmlns:serif="http://www.serif.com/" style="fill-rule:evenodd;clip-rule:evenodd;stroke-linejoin:round;stroke-miterlimit:2;">
    <g transform="matrix(1.24296,0,0,1.24296,-121.479,-121.479)">
        <g transform="matrix(0.888778,0,0,0.961889,44.3666,-13.6771)">
            <path d="M101.869,238.921C137.145,245.222 173.539,242.731 209.007,240.83C230.661,239.669 252.311,238.351 273.921,236.558C352.272,230.057 430.527,222.44 508.878,215.949C565.47,211.26 623.232,206.369 680.144,210.239C715.724,212.659 756.298,218.099 791.783,222.413C820.371,225.888 904.777,235.609 933,241C938.608,242.071 945.564,249.436 948.675,253.611C964.684,275.099 956.032,304.807 955.301,328.697C954.676,349.102 954.818,369.53 955.259,389.939C957.08,474.251 959.469,558.552 962.089,642.843C963.845,699.354 976.639,765.986 934.263,812.11C929.604,817.181 924.169,821.522 918.639,825.626C876.429,856.955 820.154,856.681 770.152,857.665C738.65,858.285 707.149,859.286 675.642,859.217C538.078,858.919 400.785,848.196 263.548,840.33C215.677,837.587 138.594,841.334 90.617,841.326C83.857,841.436 65.77,825.928 65.2,814.326C52.797,691.826 67.405,416.625 61.869,287.921C61.134,270.832 92.944,237.298 101.869,238.921ZM927.367,257.73C928.561,258.816 932.063,262.045 933.141,263.492C938.89,271.209 939.592,280.534 939.41,289.942C939.158,302.98 936.814,316.316 936.45,328.205C935.817,348.889 935.957,369.598 936.404,390.287C938.227,474.65 940.616,559.001 943.238,643.343C944.101,671.113 947.746,701.367 945.899,730.348C944.263,756.03 938.34,780.747 919.886,800.833C916.007,805.056 911.434,808.623 906.829,812.041C867.954,840.895 815.802,839.337 769.75,840.244C738.397,840.861 707.045,841.86 675.686,841.792C538.497,841.495 401.579,830.783 264.715,822.939C217.602,820.238 142.382,823.745 93.903,823.887C92.309,822.688 88.973,820.084 87.216,818.04C85.913,816.523 84.226,813.497 84.007,813.098L83.977,812.703C71.596,690.42 86.239,415.706 80.713,287.229C80.563,283.743 83.83,279.455 86.994,274.918C91.667,268.219 100.45,260.18 104.075,256.983C139.075,262.356 175.019,260.106 210.099,258.225C231.951,257.054 253.799,255.723 275.608,253.913C353.957,247.413 432.212,239.796 510.562,233.304C566.142,228.699 622.866,223.816 678.759,227.618C713.998,230.014 754.179,235.417 789.323,239.689C817.046,243.059 897.777,252.329 927.367,257.73Z" style="fill:rgb(190,30,20);"/>
        </g>
        <g transform="matrix(1,0,0,1,-3.97888,-0.820913)">
            <path d="M404.326,481.471L383.498,423.75C380.731,418.06 377.92,412.281 373.989,407.323C358.611,387.93 342.243,369.331 325.73,350.895C318.759,343.113 311.162,335.908 303.582,328.718L289.548,330.062L285.271,337.676C287.568,358.984 289.866,380.295 291.762,401.643C292.082,405.252 292,408.888 291.918,412.509C293.858,413.964 295.802,415.422 297.623,417.023C300.334,419.406 302.344,421.558 304.502,424.452C305.985,426.441 308.516,428.994 309.302,431.347C309.788,432.801 310.05,434.325 310.309,435.836L299.47,430.509L291.986,429.316L287.219,475.337C283.713,478.696 280.202,482.061 276.467,485.163C270.28,490.301 264.282,495.762 257.473,500.041C250.009,504.73 216.021,522.018 216.021,522.018L222.247,526.815C222.247,526.815 228.461,528.411 231.564,529.224C238.678,531.089 264.93,538.001 264.93,538.001C264.93,538.001 273.941,537.868 278.289,537.772C282.531,537.678 291.014,537.424 291.014,537.424L294.822,538.77L283.411,543.282L261.271,544.368C261.271,544.368 243.279,541.12 234.291,539.453C224.873,537.705 204.76,533.883 204.76,533.883L184.612,536.941C184.612,536.941 166.529,545.326 153.916,550.859L148.979,563.053L179.28,576.024L264.8,586.761C268.435,584.669 272.079,582.572 275.881,580.801C280.779,578.519 285.645,576.014 290.865,574.619C294.594,573.623 296.009,584.993 296.009,584.993C303.152,584.302 310.301,583.61 317.402,582.569C327.887,581.031 338.569,580.209 348.747,577.257C354.915,575.469 360.332,571.687 365.908,568.502C369.31,566.56 372.479,564.226 375.634,561.903L386.736,562.109L400.007,548.346L413.278,550.312C417.04,553.641 420.899,557.055 423.6,561.29C425.075,563.602 425.245,566.58 425.402,569.318C425.379,570.754 425.354,572.276 424.747,573.578C422.266,578.894 419.475,584.093 416.227,588.979C415.468,590.121 412.997,590.033 412.899,591.402C412.684,594.416 421.962,591.272 421.962,591.272L440.312,583.9C443.149,580.577 446.009,577.228 449.323,574.38C452.272,571.844 455.648,569.834 458.989,567.843L466.362,568.826L468.656,575.38C465.863,580.205 463.054,585.059 459.645,589.47C456.526,593.506 452.83,597.071 449.159,600.611L444.882,607.769C446.21,608.777 447.57,609.808 449.115,610.432C451.439,611.371 453.925,612.964 456.368,612.408C461.545,611.228 466.028,607.985 470.725,605.509C474.119,603.721 477.371,601.672 480.616,599.628C483.82,596.896 487.051,594.142 489.791,590.945C492.977,587.228 495.652,583.094 498.311,578.984C501.173,580.304 504.061,581.635 506.667,583.408C509.39,585.261 511.807,587.539 514.203,589.798C515.301,591.411 516.406,593.035 517.262,594.788C518.651,597.636 520.424,600.431 520.921,603.56C521.684,608.364 521.102,613.29 520.972,618.152C520.884,621.433 520.574,624.705 520.265,627.972L531.57,636.82C535.897,636.85 540.314,636.88 544.514,635.837C546.677,635.299 548.335,633.528 550.131,632.207C551.239,631.392 552.221,630.416 553.197,629.447L555.491,614.701C553.708,609.306 551.893,603.814 551.395,598.154C551.059,594.332 552.065,590.473 553.033,586.761C557.106,587.142 561.224,587.528 565.157,588.651C569.04,589.759 572.69,591.591 576.299,593.402L580.558,614.538L577.773,621.747C581.718,628.195 585.672,634.658 589.078,641.407C591.582,646.369 593.529,651.599 595.468,656.808L596.615,683.514L582.033,702.028C583.87,703.801 585.742,705.608 587.112,707.762C595.21,720.494 602.31,733.841 610.377,746.592C613.798,751.999 629.055,742.169 629.055,742.169C629.688,738.202 630.323,734.22 630.529,730.208C630.925,722.517 630.272,714.786 630.857,707.107C631.139,703.402 632.136,699.774 633.12,696.191C630.979,691.712 628.835,687.227 626.976,682.623C625.248,678.344 623.615,674.011 622.368,669.567C621.645,666.987 621.365,664.296 621.088,661.631C617.65,655.902 614.188,650.133 611.616,643.967C607.939,635.151 604.934,626.042 602.4,616.831C600.487,609.877 599.393,602.714 598.304,595.583L610.08,593.791L620.32,602.239C623.09,606.706 625.861,611.173 628.768,615.551C638.389,630.038 647.639,642.316 656.467,657.367C665.834,673.337 674.75,689.569 683.662,705.796L691.134,723.097C693.395,725.81 695.724,728.605 698.689,730.525C702.77,733.169 707.727,734.191 711.96,736.587C716.934,739.403 721.586,742.764 726.219,746.111C728.703,745.641 731.193,745.17 733.708,744.919C736.903,744.601 740.127,744.132 743.326,744.404C745.689,744.605 743.258,751.517 743.258,751.517L763.738,753.156C764.894,752.762 766.06,752.366 767.138,751.794C768.746,750.941 770.629,750.317 771.767,748.896C772.811,747.59 772.916,745.745 773.282,744.114C773.52,743.054 773.545,741.954 773.569,740.868C766.47,734.86 759.369,728.85 752.428,722.661C742.272,713.605 732.309,704.335 722.282,695.136C716.439,689.775 710.629,684.379 704.819,678.983C702.031,674.418 699.242,669.851 696.299,665.385C692.906,660.237 689.55,655.052 685.813,650.148C684.292,648.151 682.421,646.437 680.57,644.741C678.764,644.216 676.791,643.642 675.491,642.283C673.062,639.744 671.585,636.437 669.757,633.436C665.396,626.277 662.557,618.043 659.271,610.498C657.387,606.172 655.462,601.863 653.537,597.555L643.379,580.352C643.129,576.317 642.873,572.184 643.706,568.228C644.159,566.079 648.836,564.095 648.836,564.095L666.5,579.455C675.7,589.108 684.9,598.762 694.228,608.293C698.261,612.414 705.287,619.929 711.097,623.545C717.536,627.551 718.792,627.157 727.028,627.765C729.109,627.918 731.201,627.87 733.287,627.822C736.409,627.28 739.615,626.723 742.462,625.332C745.352,623.921 747.804,621.715 750.195,619.565L751.197,607.127L708.189,578.711C697.055,571.429 685.895,564.13 675.421,555.927C671.665,552.986 668.651,549.174 665.693,545.431C661.297,541.028 656.871,536.594 653.149,531.607C651.501,529.399 652.098,523.599 653.149,521.623C654.457,519.164 656.524,517.162 658.525,515.223C660.493,517.287 662.566,519.46 665.181,520.599C674.265,524.558 693.294,531.696 705.885,533.143C709.446,533.553 713.115,534.07 716.637,533.399C720.435,532.676 723.961,530.836 727.389,529.047L727.901,522.135C725.202,520.659 722.439,519.148 720.221,517.015C713.603,510.655 707.56,503.714 701.533,496.791C700.73,493.796 699.887,490.655 700.253,487.575C700.514,485.377 701.983,483.448 703.325,481.687C707.419,479.868 711.662,477.982 716.125,477.591C718.787,477.359 721.42,478.689 723.805,479.895L728.413,471.447L728.157,461.72C731.642,462.029 735.321,462.356 738.397,464.024C742.604,466.304 745.665,470.254 749.405,473.239C756.248,478.703 762.896,484.45 770.141,489.367C772.984,491.298 775.728,489.058 778.589,490.903C783.438,494.031 787.813,497.857 792.157,501.655C795.261,496.617 798.396,491.53 800.605,486.039C808.14,467.307 832.603,415.372 834.141,384.245C834.57,375.569 832.957,357.217 831.356,348.528C830.065,341.519 828.987,334.377 826.441,327.721C825.127,324.285 809.489,293.465 806.977,290.779C797.66,282.484 788.036,276.138 777.9,273.031C768.178,272.527 758.427,272.022 748.702,272.459C743.688,272.685 739.783,276.732 734.612,276.391C730.971,276.152 727.525,274.628 724.054,273.504C721.781,272.768 719.591,271.793 717.409,270.821C700.718,274.832 684.004,278.848 667.608,283.928C648.866,289.734 649.786,291.902 630.997,296.938C627.519,297.871 623.811,298.245 620.603,299.881C618.237,301.088 616.546,303.324 614.712,305.245C613.571,306.44 612.637,307.823 611.711,309.192C613.565,311.753 615.423,314.319 617.066,317.02C625.977,331.673 626.422,346.95 627.15,350.759C628.372,351.955 629.601,353.16 630.644,354.515C632.34,356.719 634.29,358.835 635.342,361.408C639.245,370.959 650.708,407.093 652.545,416.992C653.342,421.289 652.599,425.743 652.265,430.101C652.06,432.776 651.495,435.415 650.933,438.039L670.542,440.241C672.185,441.442 673.838,442.65 675.32,444.046C677.412,446.014 680.03,447.701 681.237,450.307C682.064,452.092 681.273,454.262 680.95,456.203C680.736,457.49 680.183,458.706 679.642,459.894L659.72,475.753L652.773,471.952L653.297,463.826C650.078,461.346 646.85,458.859 643.864,456.103C638.934,451.555 633.681,447.239 629.573,441.937C626.765,438.311 615.587,415.226 613.898,411.557C613.621,410.955 606.23,392.67 604.509,390.942C601.244,387.662 592.616,398.106 592.616,398.106L591.043,405.708L602.703,454.651L615.811,475.491L623.68,487.52L619.35,497.904C615.967,494.007 612.583,490.108 609.363,486.075C595.296,468.454 594.964,468.795 584.945,448.758C583.121,445.11 581.508,441.358 579.897,437.611C576.892,436.531 573.718,435.391 571.392,433.204C570.193,432.076 574.785,429.616 574.785,429.616C568.908,416.59 563.023,403.545 558.008,390.163C555.363,383.105 554.017,375.624 551.848,368.406C551.481,367.186 550.942,366.022 550.406,364.867C546.034,361.724 541.64,358.566 537.692,354.905C535.009,352.418 532.849,349.413 530.614,346.517C527.821,342.898 525.219,339.135 522.619,335.375L511.871,334.982L505.579,338.128C506.184,341.227 506.789,344.329 507.578,347.387C508.888,352.46 509.835,357.68 511.871,362.507C517.36,375.527 523.445,388.311 530.09,400.78C541.397,422 555.886,441.421 567.183,462.646C572.286,472.234 576.488,482.278 580.937,492.186C583.61,498.14 586.079,504.184 588.548,510.225C591.264,514.599 593.987,518.985 596.281,523.594C598.54,528.135 600.895,532.713 602.179,537.619C602.898,540.367 602.53,543.321 602.179,546.139L591.169,546.794C579.918,533.172 570.654,518.755 562.071,504.065L557.484,478.375C556.73,476.404 555.949,474.362 554.6,472.739C550.967,468.366 546.81,464.448 542.673,460.549L535.464,459.369L527.861,468.282L531.007,486.108L552.503,523.594C557.711,534.374 561.417,544.819 564.168,555.052L552.372,549.862C550.709,544.996 549.045,540.129 547.391,535.26C546.249,531.898 545.116,528.533 543.983,525.167C541.998,521.377 540.008,517.577 538.347,513.633C536.508,509.264 535.736,504.442 533.498,500.264C531.266,496.098 528.147,492.451 525.075,488.86L513.444,487.55L508.07,491.351L508.07,507.342C511.497,511.435 514.958,515.569 517.638,520.187C519.115,522.732 519.763,525.7 520.39,528.575L517.245,553.61C514.2,552.673 510.963,551.677 508.594,549.547C505.584,546.84 503.578,543.143 501.647,539.585L502.565,522.677L490.768,489.778L481.593,488.992C480.019,490.834 478.381,492.752 477.53,495.021C476.632,497.416 476.555,500.066 476.481,502.623C477.334,504.497 478.229,506.464 478.316,508.521C478.681,517.147 477.29,516.827 474.646,524.905C473.511,528.374 473.027,532.034 472.549,535.653C471.433,536.443 470.233,537.292 468.879,537.488C467.393,537.704 465.794,537.445 464.423,536.833C463.237,536.303 462.358,535.22 461.539,534.211L462.195,510.88C460.621,506.899 459.033,502.881 456.821,499.215C455.926,497.733 454.433,496.676 453.02,495.676L447.846,494.102C447.307,494.762 446.713,495.488 446.597,496.332C446.194,499.255 446.91,502.289 446.32,505.181C445.019,511.568 443.607,518.031 440.961,523.988C439.956,526.249 434.014,526.609 434.014,526.609L426.281,518.483L426.805,509.832L425.494,500.526L409.766,492.137L407.931,483.224L404.326,481.471ZM768.046,403.848C768.046,403.848 770.257,402.23 772.202,401.329C775.791,399.665 787.372,393.662 787.372,393.662C787.372,393.662 790.965,391.091 790.525,389.867C790.248,389.095 788.549,388.128 788.549,388.128C788.549,388.128 784.254,387.182 782.113,387.476C777.904,388.055 763.297,391.599 763.297,391.599C763.297,391.599 760.808,388.61 759.968,386.875C758.184,383.189 752.593,369.481 752.593,369.481L749.586,366.162C749.586,366.162 746.935,365.387 746.255,365.613C743.893,366.4 746.84,381.545 746.84,381.545L750.249,394.048L746.851,396.495C746.851,396.495 737.33,399.731 729.804,404.015C725.18,406.647 720.727,410.335 721.418,411.96C721.775,412.799 723.41,413.799 723.41,413.799C727.983,413.865 731.51,412.639 735.536,411.907C739.64,411.161 743.943,410.316 748.029,409.323C750.397,408.748 752.794,408.125 755.119,407.462L765.517,428.418C765.517,428.418 768.956,434.051 771.16,436.864C772.641,438.754 772.948,438.31 773.59,438.006C775.565,437.071 774.859,431.159 774.514,427.324C774.006,421.687 770.021,414.226 768.401,409.466C767.094,405.625 768.046,403.848 768.046,403.848Z" style="fill:rgb(190,30,20);"/>
        </g>
    </g>
</svg>
