<?xml version="1.0" encoding="UTF-8" standalone="no"?>
<!DOCTYPE svg PUBLIC "-//W3C//DTD SVG 1.1//EN" "http://www.w3.org/Graphics/SVG/1.1/DTD/svg11.dtd">
<svg width="100%" height="100%" viewBox="0 0 588 122" version="1.1" xmlns="http://www.w3.org/2000/svg" xmlns:xlink="http://www.w3.org/1999/xlink" xml:space="preserve" xmlns:serif="http://www.serif.com/" style="fill-rule:evenodd;clip-rule:evenodd;stroke-linejoin:round;stroke-miterlimit:2;">
    <g transform="matrix(1,0,0,1,-199.5,-451.037)">
        <g id="logo2" transform="matrix(1,0,0,1,-110.5,0)">
            <g transform="matrix(1,0,0,1,252.64,257.152)">
                <g transform="matrix(66.6667,0,0,66.6667,241.627,262.515)">
                    <path d="M0.037,-0.258C0.037,-0.307 0.047,-0.352 0.068,-0.393C0.088,-0.433 0.116,-0.466 0.152,-0.49C0.187,-0.515 0.228,-0.527 0.274,-0.527C0.316,-0.527 0.354,-0.516 0.387,-0.494C0.42,-0.472 0.446,-0.445 0.465,-0.414L0.465,-0.73L0.553,-0.73L0.553,-0.1C0.553,-0.089 0.555,-0.082 0.56,-0.077C0.564,-0.071 0.571,-0.069 0.581,-0.068L0.581,-0C0.564,0.003 0.551,0.004 0.542,0.004C0.525,0.004 0.509,-0.002 0.497,-0.014C0.484,-0.026 0.477,-0.039 0.477,-0.054L0.477,-0.098C0.456,-0.065 0.429,-0.038 0.394,-0.019C0.359,0 0.323,0.01 0.286,0.01C0.25,0.01 0.217,0.003 0.187,-0.011C0.156,-0.026 0.13,-0.045 0.108,-0.07C0.085,-0.096 0.068,-0.124 0.056,-0.156C0.043,-0.188 0.037,-0.222 0.037,-0.258ZM0.465,-0.182L0.465,-0.33C0.457,-0.353 0.444,-0.373 0.426,-0.391C0.408,-0.409 0.388,-0.424 0.366,-0.435C0.343,-0.446 0.321,-0.451 0.299,-0.451C0.273,-0.451 0.25,-0.446 0.229,-0.435C0.207,-0.424 0.19,-0.409 0.174,-0.391C0.16,-0.373 0.148,-0.352 0.14,-0.329C0.132,-0.306 0.128,-0.282 0.128,-0.257C0.128,-0.231 0.133,-0.207 0.141,-0.184C0.151,-0.161 0.163,-0.14 0.18,-0.122C0.196,-0.105 0.215,-0.091 0.236,-0.081C0.258,-0.071 0.282,-0.066 0.307,-0.066C0.323,-0.066 0.34,-0.069 0.357,-0.075C0.374,-0.081 0.39,-0.089 0.405,-0.1C0.42,-0.11 0.433,-0.123 0.444,-0.137C0.455,-0.151 0.462,-0.166 0.465,-0.182Z" style="fill:rgb(22,22,22);fill-rule:nonzero;"/>
                </g>
                <g transform="matrix(66.6667,0,0,66.6667,287.227,262.515)">
                    <path d="M0.03,-0.15C0.03,-0.183 0.04,-0.212 0.059,-0.236C0.078,-0.26 0.104,-0.279 0.137,-0.292C0.17,-0.305 0.209,-0.312 0.253,-0.312C0.276,-0.312 0.301,-0.31 0.327,-0.307C0.353,-0.303 0.376,-0.297 0.396,-0.29L0.396,-0.328C0.396,-0.367 0.384,-0.398 0.36,-0.421C0.336,-0.444 0.302,-0.455 0.258,-0.455C0.229,-0.455 0.202,-0.45 0.175,-0.44C0.149,-0.429 0.121,-0.414 0.092,-0.395L0.06,-0.457C0.094,-0.48 0.128,-0.498 0.162,-0.509C0.196,-0.521 0.231,-0.527 0.268,-0.527C0.335,-0.527 0.387,-0.509 0.426,-0.472C0.465,-0.435 0.484,-0.384 0.484,-0.319L0.484,-0.1C0.484,-0.089 0.486,-0.081 0.491,-0.076C0.495,-0.071 0.502,-0.069 0.512,-0.068L0.512,-0C0.503,0.001 0.496,0.002 0.49,0.003C0.483,0.004 0.478,0.004 0.474,0.004C0.453,0.004 0.438,-0.002 0.428,-0.013C0.417,-0.024 0.411,-0.036 0.41,-0.049L0.408,-0.082C0.385,-0.053 0.356,-0.03 0.319,-0.014C0.282,0.002 0.246,0.01 0.21,0.01C0.175,0.01 0.144,0.003 0.117,-0.011C0.09,-0.026 0.068,-0.045 0.053,-0.069C0.038,-0.093 0.03,-0.12 0.03,-0.15ZM0.37,-0.113C0.378,-0.123 0.384,-0.132 0.389,-0.142C0.394,-0.151 0.396,-0.159 0.396,-0.166L0.396,-0.23C0.375,-0.238 0.354,-0.244 0.331,-0.249C0.308,-0.253 0.286,-0.255 0.264,-0.255C0.219,-0.255 0.183,-0.246 0.156,-0.229C0.128,-0.211 0.114,-0.187 0.114,-0.157C0.114,-0.14 0.118,-0.124 0.128,-0.109C0.137,-0.093 0.15,-0.081 0.168,-0.071C0.185,-0.061 0.207,-0.056 0.233,-0.056C0.26,-0.056 0.286,-0.061 0.311,-0.072C0.336,-0.083 0.355,-0.097 0.37,-0.113Z" style="fill:rgb(22,22,22);fill-rule:nonzero;"/>
                </g>
                <g transform="matrix(66.6667,0,0,66.6667,327.827,262.515)">
                    <path d="M0.347,-0.445C0.303,-0.444 0.264,-0.433 0.231,-0.411C0.197,-0.39 0.173,-0.36 0.159,-0.322L0.159,-0L0.071,-0L0.071,-0.519L0.153,-0.519L0.153,-0.401C0.171,-0.437 0.195,-0.466 0.225,-0.489C0.254,-0.511 0.285,-0.523 0.318,-0.526L0.335,-0.526C0.34,-0.526 0.344,-0.526 0.347,-0.525L0.347,-0.445Z" style="fill:rgb(22,22,22);fill-rule:nonzero;"/>
                </g>
                <g transform="matrix(66.6667,0,0,66.6667,355.693,262.515)">
                    <path d="M0.071,-0L0.071,-0.522L0.159,-0.522L0.159,-0L0.071,-0ZM0.071,-0.62L0.071,-0.73L0.159,-0.73L0.159,-0.62L0.071,-0.62Z" style="fill:rgb(22,22,22);fill-rule:nonzero;"/>
                </g>
                <g transform="matrix(66.6667,0,0,66.6667,374.693,262.515)">
                    <path d="M0.299,0.01C0.26,0.01 0.224,0.003 0.192,-0.011C0.16,-0.026 0.132,-0.045 0.109,-0.07C0.086,-0.095 0.068,-0.123 0.055,-0.156C0.042,-0.188 0.036,-0.222 0.036,-0.258C0.036,-0.294 0.042,-0.329 0.055,-0.361C0.068,-0.394 0.086,-0.422 0.109,-0.447C0.132,-0.472 0.16,-0.491 0.193,-0.506C0.225,-0.52 0.261,-0.527 0.3,-0.527C0.339,-0.527 0.374,-0.52 0.406,-0.506C0.438,-0.491 0.466,-0.472 0.49,-0.447C0.513,-0.422 0.531,-0.394 0.544,-0.361C0.557,-0.329 0.563,-0.294 0.563,-0.258C0.563,-0.222 0.557,-0.188 0.544,-0.156C0.531,-0.123 0.513,-0.095 0.49,-0.07C0.467,-0.045 0.439,-0.026 0.406,-0.011C0.374,0.003 0.338,0.01 0.299,0.01ZM0.126,-0.257C0.126,-0.221 0.134,-0.189 0.15,-0.16C0.165,-0.131 0.186,-0.108 0.212,-0.091C0.238,-0.074 0.267,-0.066 0.299,-0.066C0.331,-0.066 0.36,-0.075 0.387,-0.092C0.413,-0.109 0.434,-0.132 0.45,-0.162C0.465,-0.191 0.473,-0.223 0.473,-0.259C0.473,-0.295 0.465,-0.327 0.45,-0.356C0.434,-0.385 0.413,-0.408 0.387,-0.425C0.36,-0.442 0.331,-0.451 0.299,-0.451C0.267,-0.451 0.238,-0.442 0.212,-0.425C0.186,-0.407 0.165,-0.384 0.15,-0.355C0.134,-0.326 0.126,-0.293 0.126,-0.257Z" style="fill:rgb(22,22,22);fill-rule:nonzero;"/>
                </g>
                <g transform="matrix(66.6667,0,0,66.6667,438.827,262.515)">
                    <path d="M0.858,-0L0.77,-0L0.77,-0.289C0.77,-0.344 0.761,-0.384 0.744,-0.409C0.726,-0.435 0.7,-0.448 0.665,-0.448C0.63,-0.448 0.598,-0.435 0.569,-0.41C0.54,-0.384 0.52,-0.352 0.508,-0.311L0.508,-0L0.42,-0L0.42,-0.289C0.42,-0.344 0.411,-0.384 0.394,-0.41C0.377,-0.435 0.351,-0.448 0.316,-0.448C0.281,-0.448 0.25,-0.436 0.221,-0.411C0.192,-0.386 0.171,-0.353 0.159,-0.313L0.159,-0L0.071,-0L0.071,-0.519L0.151,-0.519L0.151,-0.407C0.172,-0.445 0.2,-0.475 0.234,-0.496C0.268,-0.517 0.306,-0.527 0.349,-0.527C0.392,-0.527 0.427,-0.515 0.453,-0.492C0.479,-0.468 0.495,-0.438 0.501,-0.401C0.524,-0.442 0.553,-0.473 0.586,-0.495C0.619,-0.516 0.657,-0.527 0.7,-0.527C0.73,-0.527 0.755,-0.522 0.776,-0.511C0.796,-0.5 0.812,-0.484 0.824,-0.465C0.836,-0.445 0.845,-0.422 0.85,-0.396C0.855,-0.37 0.858,-0.341 0.858,-0.31L0.858,-0Z" style="fill:rgb(22,22,22);fill-rule:nonzero;"/>
                </g>
                <g transform="matrix(66.6667,0,0,66.6667,504.093,262.515)">
                    <path d="M0.302,0.01C0.263,0.01 0.227,0.003 0.195,-0.011C0.162,-0.026 0.134,-0.045 0.111,-0.07C0.087,-0.095 0.069,-0.123 0.056,-0.156C0.043,-0.188 0.036,-0.223 0.036,-0.259C0.036,-0.308 0.047,-0.353 0.07,-0.393C0.093,-0.433 0.124,-0.466 0.165,-0.49C0.205,-0.515 0.251,-0.527 0.303,-0.527C0.356,-0.527 0.402,-0.515 0.441,-0.49C0.48,-0.465 0.51,-0.432 0.532,-0.392C0.553,-0.352 0.564,-0.309 0.564,-0.263C0.564,-0.256 0.564,-0.25 0.564,-0.243C0.563,-0.237 0.563,-0.232 0.562,-0.229L0.129,-0.229C0.132,-0.195 0.141,-0.166 0.158,-0.14C0.174,-0.114 0.195,-0.093 0.221,-0.078C0.247,-0.063 0.275,-0.056 0.305,-0.056C0.337,-0.056 0.367,-0.064 0.396,-0.08C0.424,-0.096 0.443,-0.117 0.454,-0.143L0.53,-0.122C0.519,-0.097 0.502,-0.074 0.48,-0.054C0.457,-0.034 0.431,-0.018 0.401,-0.007C0.37,0.004 0.337,0.01 0.302,0.01ZM0.126,-0.29L0.482,-0.29C0.479,-0.324 0.47,-0.353 0.453,-0.379C0.436,-0.405 0.415,-0.425 0.389,-0.439C0.363,-0.454 0.334,-0.461 0.303,-0.461C0.272,-0.461 0.244,-0.454 0.218,-0.439C0.192,-0.425 0.171,-0.405 0.155,-0.379C0.138,-0.353 0.129,-0.324 0.126,-0.29Z" style="fill:rgb(22,22,22);fill-rule:nonzero;"/>
                </g>
                <g transform="matrix(66.6667,0,0,66.6667,547.16,262.515)">
                    <path d="M0.524,-0L0.436,-0L0.436,-0.289C0.436,-0.344 0.428,-0.384 0.41,-0.41C0.394,-0.435 0.368,-0.448 0.333,-0.448C0.309,-0.448 0.285,-0.442 0.262,-0.43C0.238,-0.418 0.217,-0.402 0.199,-0.382C0.18,-0.362 0.167,-0.339 0.159,-0.313L0.159,-0L0.071,-0L0.071,-0.519L0.151,-0.519L0.151,-0.407C0.165,-0.431 0.183,-0.453 0.205,-0.47C0.227,-0.488 0.252,-0.502 0.28,-0.512C0.308,-0.522 0.337,-0.527 0.368,-0.527C0.398,-0.527 0.423,-0.522 0.444,-0.511C0.464,-0.5 0.48,-0.484 0.492,-0.465C0.503,-0.445 0.511,-0.422 0.517,-0.396C0.522,-0.37 0.524,-0.341 0.524,-0.31L0.524,-0Z" style="fill:rgb(22,22,22);fill-rule:nonzero;"/>
                </g>
                <g transform="matrix(66.6667,0,0,66.6667,590.16,262.515)">
                    <path d="M0.071,-0L0.071,-0.522L0.159,-0.522L0.159,-0L0.071,-0ZM0.071,-0.62L0.071,-0.73L0.159,-0.73L0.159,-0.62L0.071,-0.62Z" style="fill:rgb(22,22,22);fill-rule:nonzero;"/>
                </g>
                <g transform="matrix(66.6667,0,0,66.6667,609.16,262.515)">
                    <path d="M0.439,-0L0.258,-0.253L0.159,-0.16L0.159,-0L0.071,-0L0.071,-0.73L0.159,-0.73L0.159,-0.252L0.429,-0.519L0.524,-0.519L0.316,-0.304L0.534,-0L0.439,-0Z" style="fill:rgb(22,22,22);fill-rule:nonzero;"/>
                </g>
                <g transform="matrix(20.8333,0,0,20.8333,241.631,295.848)">
                    <path d="M0.502,-0.561C0.494,-0.57 0.483,-0.579 0.47,-0.588C0.457,-0.597 0.442,-0.605 0.425,-0.612C0.408,-0.619 0.39,-0.624 0.371,-0.628C0.351,-0.633 0.33,-0.635 0.309,-0.635C0.254,-0.635 0.214,-0.625 0.188,-0.604C0.162,-0.583 0.149,-0.555 0.149,-0.519C0.149,-0.494 0.156,-0.474 0.169,-0.46C0.182,-0.445 0.203,-0.433 0.231,-0.424C0.258,-0.414 0.293,-0.405 0.336,-0.395C0.385,-0.384 0.428,-0.371 0.464,-0.356C0.5,-0.341 0.528,-0.32 0.547,-0.295C0.566,-0.269 0.576,-0.235 0.576,-0.192C0.576,-0.158 0.57,-0.129 0.557,-0.104C0.544,-0.079 0.525,-0.059 0.502,-0.042C0.479,-0.026 0.451,-0.014 0.42,-0.006C0.389,0.001 0.355,0.005 0.318,0.005C0.282,0.005 0.247,0.001 0.213,-0.007C0.178,-0.014 0.146,-0.025 0.115,-0.04C0.084,-0.055 0.056,-0.073 0.029,-0.095L0.072,-0.171C0.083,-0.16 0.097,-0.149 0.114,-0.138C0.131,-0.127 0.15,-0.116 0.172,-0.107C0.193,-0.098 0.217,-0.09 0.242,-0.085C0.267,-0.079 0.293,-0.076 0.32,-0.076C0.371,-0.076 0.41,-0.085 0.438,-0.103C0.466,-0.122 0.48,-0.148 0.48,-0.183C0.48,-0.21 0.472,-0.231 0.457,-0.247C0.441,-0.263 0.418,-0.277 0.387,-0.287C0.356,-0.298 0.319,-0.308 0.275,-0.319C0.227,-0.331 0.187,-0.344 0.154,-0.358C0.121,-0.373 0.097,-0.392 0.081,-0.415C0.064,-0.438 0.056,-0.468 0.056,-0.506C0.056,-0.551 0.067,-0.589 0.089,-0.62C0.111,-0.652 0.141,-0.675 0.18,-0.691C0.219,-0.707 0.262,-0.715 0.311,-0.715C0.343,-0.715 0.373,-0.712 0.401,-0.705C0.428,-0.698 0.454,-0.689 0.478,-0.677C0.502,-0.665 0.524,-0.651 0.544,-0.634L0.502,-0.561Z" style="fill:rgb(22,22,22);fill-rule:nonzero;"/>
                </g>
                <g transform="matrix(20.8333,0,0,20.8333,254.964,295.848)">
                    <path d="M0.373,0.005C0.323,0.005 0.278,-0.005 0.237,-0.025C0.196,-0.045 0.161,-0.072 0.132,-0.107C0.102,-0.141 0.079,-0.18 0.063,-0.223C0.047,-0.266 0.039,-0.31 0.039,-0.355C0.039,-0.402 0.048,-0.448 0.065,-0.491C0.082,-0.534 0.105,-0.572 0.136,-0.606C0.166,-0.639 0.201,-0.666 0.242,-0.686C0.283,-0.705 0.327,-0.715 0.375,-0.715C0.425,-0.715 0.47,-0.705 0.511,-0.684C0.552,-0.663 0.587,-0.636 0.616,-0.601C0.645,-0.566 0.668,-0.528 0.684,-0.485C0.7,-0.442 0.708,-0.399 0.708,-0.354C0.708,-0.307 0.7,-0.262 0.683,-0.219C0.666,-0.175 0.643,-0.137 0.613,-0.103C0.582,-0.07 0.547,-0.043 0.506,-0.024C0.465,-0.005 0.421,0.005 0.373,0.005ZM0.13,-0.355C0.13,-0.319 0.136,-0.284 0.148,-0.251C0.159,-0.217 0.176,-0.187 0.197,-0.161C0.218,-0.135 0.244,-0.114 0.274,-0.099C0.304,-0.084 0.337,-0.076 0.374,-0.076C0.412,-0.076 0.446,-0.084 0.476,-0.1C0.506,-0.116 0.532,-0.137 0.553,-0.164C0.574,-0.191 0.59,-0.221 0.601,-0.254C0.612,-0.287 0.617,-0.321 0.617,-0.355C0.617,-0.391 0.611,-0.426 0.6,-0.459C0.588,-0.492 0.571,-0.522 0.55,-0.549C0.528,-0.575 0.502,-0.596 0.472,-0.611C0.443,-0.625 0.41,-0.633 0.374,-0.633C0.336,-0.633 0.302,-0.625 0.272,-0.61C0.242,-0.594 0.217,-0.573 0.196,-0.546C0.174,-0.519 0.158,-0.49 0.147,-0.457C0.136,-0.424 0.13,-0.39 0.13,-0.355Z" style="fill:rgb(22,22,22);fill-rule:nonzero;"/>
                </g>
                <g transform="matrix(20.8333,0,0,20.8333,271.193,295.848)">
                    <path d="M0.378,0.005C0.321,0.005 0.274,-0.005 0.235,-0.025C0.196,-0.044 0.165,-0.071 0.142,-0.105C0.119,-0.138 0.102,-0.176 0.091,-0.219C0.08,-0.262 0.075,-0.306 0.075,-0.351L0.075,-0.71L0.165,-0.71L0.165,-0.351C0.165,-0.316 0.169,-0.282 0.175,-0.25C0.183,-0.217 0.194,-0.187 0.21,-0.161C0.226,-0.135 0.248,-0.114 0.275,-0.099C0.302,-0.084 0.336,-0.076 0.377,-0.076C0.418,-0.076 0.453,-0.084 0.48,-0.1C0.507,-0.115 0.529,-0.136 0.545,-0.163C0.561,-0.189 0.573,-0.218 0.58,-0.251C0.587,-0.284 0.59,-0.317 0.59,-0.351L0.59,-0.71L0.68,-0.71L0.68,-0.351C0.68,-0.303 0.675,-0.258 0.664,-0.215C0.653,-0.172 0.635,-0.134 0.611,-0.101C0.587,-0.068 0.556,-0.043 0.518,-0.024C0.479,-0.005 0.433,0.005 0.378,0.005Z" style="fill:rgb(22,22,22);fill-rule:nonzero;"/>
                </g>
                <g transform="matrix(20.8333,0,0,20.8333,287.568,295.848)">
                    <path d="M0.175,-0.544L0.175,-0L0.085,-0L0.085,-0.71L0.161,-0.71L0.595,-0.155L0.595,-0.709L0.685,-0.709L0.685,-0L0.603,-0L0.175,-0.544Z" style="fill:rgb(22,22,22);fill-rule:nonzero;"/>
                </g>
                <g transform="matrix(20.8333,0,0,20.8333,304.256,295.848)">
                    <path d="M0.085,-0L0.085,-0.71L0.331,-0.71C0.407,-0.71 0.47,-0.694 0.522,-0.663C0.573,-0.631 0.611,-0.588 0.636,-0.535C0.661,-0.481 0.674,-0.421 0.674,-0.356C0.674,-0.284 0.66,-0.221 0.632,-0.168C0.604,-0.115 0.564,-0.073 0.513,-0.044C0.462,-0.015 0.401,-0 0.331,-0L0.085,-0ZM0.583,-0.356C0.583,-0.409 0.573,-0.457 0.554,-0.498C0.534,-0.539 0.505,-0.572 0.468,-0.595C0.431,-0.618 0.385,-0.63 0.331,-0.63L0.175,-0.63L0.175,-0.08L0.331,-0.08C0.386,-0.08 0.432,-0.092 0.469,-0.117C0.506,-0.141 0.535,-0.174 0.554,-0.216C0.573,-0.257 0.583,-0.304 0.583,-0.356Z" style="fill:rgb(22,22,22);fill-rule:nonzero;"/>
                </g>
                <g transform="matrix(20.8333,0,0,20.8333,325.735,295.848)">
                    <path d="M0.085,-0L0.085,-0.71L0.331,-0.71C0.407,-0.71 0.47,-0.694 0.522,-0.663C0.573,-0.631 0.611,-0.588 0.636,-0.535C0.661,-0.481 0.674,-0.421 0.674,-0.356C0.674,-0.284 0.66,-0.221 0.632,-0.168C0.604,-0.115 0.564,-0.073 0.513,-0.044C0.462,-0.015 0.401,-0 0.331,-0L0.085,-0ZM0.583,-0.356C0.583,-0.409 0.573,-0.457 0.554,-0.498C0.534,-0.539 0.505,-0.572 0.468,-0.595C0.431,-0.618 0.385,-0.63 0.331,-0.63L0.175,-0.63L0.175,-0.08L0.331,-0.08C0.386,-0.08 0.432,-0.092 0.469,-0.117C0.506,-0.141 0.535,-0.174 0.554,-0.216C0.573,-0.257 0.583,-0.304 0.583,-0.356Z" style="fill:rgb(22,22,22);fill-rule:nonzero;"/>
                </g>
                <g transform="matrix(20.8333,0,0,20.8333,341.298,295.848)">
                    <path d="M0.567,-0.08L0.567,-0L0.085,-0L0.085,-0.71L0.558,-0.71L0.558,-0.63L0.175,-0.63L0.175,-0.4L0.508,-0.4L0.508,-0.325L0.175,-0.325L0.175,-0.08L0.567,-0.08Z" style="fill:rgb(22,22,22);fill-rule:nonzero;"/>
                </g>
                <g transform="matrix(20.8333,0,0,20.8333,354.548,295.848)">
                    <path d="M0.502,-0.561C0.494,-0.57 0.483,-0.579 0.47,-0.588C0.457,-0.597 0.442,-0.605 0.425,-0.612C0.408,-0.619 0.39,-0.624 0.371,-0.628C0.351,-0.633 0.33,-0.635 0.309,-0.635C0.254,-0.635 0.214,-0.625 0.188,-0.604C0.162,-0.583 0.149,-0.555 0.149,-0.519C0.149,-0.494 0.156,-0.474 0.169,-0.46C0.182,-0.445 0.203,-0.433 0.231,-0.424C0.258,-0.414 0.293,-0.405 0.336,-0.395C0.385,-0.384 0.428,-0.371 0.464,-0.356C0.5,-0.341 0.528,-0.32 0.547,-0.295C0.566,-0.269 0.576,-0.235 0.576,-0.192C0.576,-0.158 0.57,-0.129 0.557,-0.104C0.544,-0.079 0.525,-0.059 0.502,-0.042C0.479,-0.026 0.451,-0.014 0.42,-0.006C0.389,0.001 0.355,0.005 0.318,0.005C0.282,0.005 0.247,0.001 0.213,-0.007C0.178,-0.014 0.146,-0.025 0.115,-0.04C0.084,-0.055 0.056,-0.073 0.029,-0.095L0.072,-0.171C0.083,-0.16 0.097,-0.149 0.114,-0.138C0.131,-0.127 0.15,-0.116 0.172,-0.107C0.193,-0.098 0.217,-0.09 0.242,-0.085C0.267,-0.079 0.293,-0.076 0.32,-0.076C0.371,-0.076 0.41,-0.085 0.438,-0.103C0.466,-0.122 0.48,-0.148 0.48,-0.183C0.48,-0.21 0.472,-0.231 0.457,-0.247C0.441,-0.263 0.418,-0.277 0.387,-0.287C0.356,-0.298 0.319,-0.308 0.275,-0.319C0.227,-0.331 0.187,-0.344 0.154,-0.358C0.121,-0.373 0.097,-0.392 0.081,-0.415C0.064,-0.438 0.056,-0.468 0.056,-0.506C0.056,-0.551 0.067,-0.589 0.089,-0.62C0.111,-0.652 0.141,-0.675 0.18,-0.691C0.219,-0.707 0.262,-0.715 0.311,-0.715C0.343,-0.715 0.373,-0.712 0.401,-0.705C0.428,-0.698 0.454,-0.689 0.478,-0.677C0.502,-0.665 0.524,-0.651 0.544,-0.634L0.502,-0.561Z" style="fill:rgb(22,22,22);fill-rule:nonzero;"/>
                </g>
                <g transform="matrix(20.8333,0,0,20.8333,367.881,295.848)">
                    <rect x="0.085" y="-0.71" width="0.09" height="0.71" style="fill:rgb(22,22,22);fill-rule:nonzero;"/>
                </g>
                <g transform="matrix(20.8333,0,0,20.8333,373.943,295.848)">
                    <path d="M0.37,0.005C0.323,0.005 0.28,-0.005 0.239,-0.025C0.199,-0.046 0.164,-0.073 0.134,-0.108C0.104,-0.142 0.081,-0.181 0.064,-0.224C0.047,-0.267 0.039,-0.311 0.039,-0.357C0.039,-0.405 0.047,-0.451 0.064,-0.494C0.081,-0.537 0.104,-0.575 0.134,-0.608C0.163,-0.641 0.198,-0.668 0.238,-0.687C0.279,-0.706 0.323,-0.715 0.37,-0.715C0.439,-0.715 0.495,-0.701 0.54,-0.672C0.585,-0.643 0.618,-0.606 0.641,-0.56L0.572,-0.512C0.551,-0.553 0.523,-0.584 0.487,-0.604C0.451,-0.624 0.411,-0.634 0.368,-0.634C0.332,-0.634 0.299,-0.626 0.27,-0.611C0.241,-0.596 0.216,-0.575 0.195,-0.549C0.173,-0.522 0.158,-0.492 0.147,-0.459C0.136,-0.426 0.13,-0.391 0.13,-0.355C0.13,-0.317 0.136,-0.281 0.149,-0.248C0.161,-0.214 0.178,-0.184 0.201,-0.159C0.224,-0.133 0.25,-0.113 0.28,-0.098C0.31,-0.083 0.342,-0.076 0.377,-0.076C0.418,-0.076 0.456,-0.086 0.493,-0.107C0.53,-0.128 0.564,-0.159 0.597,-0.202L0.597,-0.109C0.533,-0.033 0.457,0.005 0.37,0.005ZM0.586,-0.286L0.433,-0.286L0.433,-0.354L0.662,-0.354L0.662,-0L0.586,-0L0.586,-0.286Z" style="fill:rgb(22,22,22);fill-rule:nonzero;"/>
                </g>
                <g transform="matrix(20.8333,0,0,20.8333,389.464,295.848)">
                    <path d="M0.175,-0.544L0.175,-0L0.085,-0L0.085,-0.71L0.161,-0.71L0.595,-0.155L0.595,-0.709L0.685,-0.709L0.685,-0L0.603,-0L0.175,-0.544Z" style="fill:rgb(22,22,22);fill-rule:nonzero;"/>
                </g>
                <g transform="matrix(20.8333,0,0,20.8333,406.152,295.848)">
                    <path d="M0.567,-0.08L0.567,-0L0.085,-0L0.085,-0.71L0.558,-0.71L0.558,-0.63L0.175,-0.63L0.175,-0.4L0.508,-0.4L0.508,-0.325L0.175,-0.325L0.175,-0.08L0.567,-0.08Z" style="fill:rgb(22,22,22);fill-rule:nonzero;"/>
                </g>
                <g transform="matrix(20.8333,0,0,20.8333,419.402,295.848)">
                    <path d="M0.085,-0L0.085,-0.71L0.389,-0.71C0.42,-0.71 0.449,-0.704 0.475,-0.691C0.501,-0.678 0.524,-0.66 0.543,-0.639C0.562,-0.617 0.577,-0.593 0.588,-0.566C0.599,-0.539 0.604,-0.511 0.604,-0.483C0.604,-0.45 0.598,-0.419 0.586,-0.39C0.573,-0.361 0.556,-0.336 0.534,-0.315C0.511,-0.294 0.485,-0.28 0.455,-0.272L0.627,-0L0.525,-0L0.363,-0.255L0.175,-0.255L0.175,-0L0.085,-0ZM0.175,-0.335L0.39,-0.335C0.415,-0.335 0.436,-0.342 0.455,-0.356C0.473,-0.369 0.487,-0.387 0.498,-0.41C0.508,-0.433 0.513,-0.457 0.513,-0.483C0.513,-0.51 0.507,-0.534 0.495,-0.557C0.483,-0.579 0.467,-0.597 0.448,-0.61C0.429,-0.623 0.407,-0.63 0.384,-0.63L0.175,-0.63L0.175,-0.335Z" style="fill:rgb(22,22,22);fill-rule:nonzero;"/>
                </g>
                <g transform="matrix(20.8333,0,0,20.8333,445.568,295.848)">
                    <rect x="0.082" y="-0.775" width="0.076" height="0.905" style="fill:rgb(22,22,22);fill-rule:nonzero;"/>
                </g>
                <g transform="matrix(20.8333,0,0,20.8333,462.402,295.848)">
                    <path d="M0.301,-0.71L0.377,-0.71L0.667,-0L0.571,-0L0.491,-0.208L0.186,-0.208L0.106,-0L0.01,-0L0.301,-0.71ZM0.465,-0.278L0.339,-0.606L0.213,-0.278L0.465,-0.278Z" style="fill:rgb(22,22,22);fill-rule:nonzero;"/>
                </g>
                <g transform="matrix(20.8333,0,0,20.8333,476.548,295.848)">
                    <path d="M0.378,0.005C0.321,0.005 0.274,-0.005 0.235,-0.025C0.196,-0.044 0.165,-0.071 0.142,-0.105C0.119,-0.138 0.102,-0.176 0.091,-0.219C0.08,-0.262 0.075,-0.306 0.075,-0.351L0.075,-0.71L0.165,-0.71L0.165,-0.351C0.165,-0.316 0.169,-0.282 0.175,-0.25C0.183,-0.217 0.194,-0.187 0.21,-0.161C0.226,-0.135 0.248,-0.114 0.275,-0.099C0.302,-0.084 0.336,-0.076 0.377,-0.076C0.418,-0.076 0.453,-0.084 0.48,-0.1C0.507,-0.115 0.529,-0.136 0.545,-0.163C0.561,-0.189 0.573,-0.218 0.58,-0.251C0.587,-0.284 0.59,-0.317 0.59,-0.351L0.59,-0.71L0.68,-0.71L0.68,-0.351C0.68,-0.303 0.675,-0.258 0.664,-0.215C0.653,-0.172 0.635,-0.134 0.611,-0.101C0.587,-0.068 0.556,-0.043 0.518,-0.024C0.479,-0.005 0.433,0.005 0.378,0.005Z" style="fill:rgb(22,22,22);fill-rule:nonzero;"/>
                </g>
                <g transform="matrix(20.8333,0,0,20.8333,492.923,295.848)">
                    <path d="M0.085,-0L0.085,-0.71L0.331,-0.71C0.407,-0.71 0.47,-0.694 0.522,-0.663C0.573,-0.631 0.611,-0.588 0.636,-0.535C0.661,-0.481 0.674,-0.421 0.674,-0.356C0.674,-0.284 0.66,-0.221 0.632,-0.168C0.604,-0.115 0.564,-0.073 0.513,-0.044C0.462,-0.015 0.401,-0 0.331,-0L0.085,-0ZM0.583,-0.356C0.583,-0.409 0.573,-0.457 0.554,-0.498C0.534,-0.539 0.505,-0.572 0.468,-0.595C0.431,-0.618 0.385,-0.63 0.331,-0.63L0.175,-0.63L0.175,-0.08L0.331,-0.08C0.386,-0.08 0.432,-0.092 0.469,-0.117C0.506,-0.141 0.535,-0.174 0.554,-0.216C0.573,-0.257 0.583,-0.304 0.583,-0.356Z" style="fill:rgb(22,22,22);fill-rule:nonzero;"/>
                </g>
                <g transform="matrix(20.8333,0,0,20.8333,508.485,295.848)">
                    <rect x="0.085" y="-0.71" width="0.09" height="0.71" style="fill:rgb(22,22,22);fill-rule:nonzero;"/>
                </g>
                <g transform="matrix(20.8333,0,0,20.8333,514.548,295.848)">
                    <path d="M0.373,0.005C0.323,0.005 0.278,-0.005 0.237,-0.025C0.196,-0.045 0.161,-0.072 0.132,-0.107C0.102,-0.141 0.079,-0.18 0.063,-0.223C0.047,-0.266 0.039,-0.31 0.039,-0.355C0.039,-0.402 0.048,-0.448 0.065,-0.491C0.082,-0.534 0.105,-0.572 0.136,-0.606C0.166,-0.639 0.201,-0.666 0.242,-0.686C0.283,-0.705 0.327,-0.715 0.375,-0.715C0.425,-0.715 0.47,-0.705 0.511,-0.684C0.552,-0.663 0.587,-0.636 0.616,-0.601C0.645,-0.566 0.668,-0.528 0.684,-0.485C0.7,-0.442 0.708,-0.399 0.708,-0.354C0.708,-0.307 0.7,-0.262 0.683,-0.219C0.666,-0.175 0.643,-0.137 0.613,-0.103C0.582,-0.07 0.547,-0.043 0.506,-0.024C0.465,-0.005 0.421,0.005 0.373,0.005ZM0.13,-0.355C0.13,-0.319 0.136,-0.284 0.148,-0.251C0.159,-0.217 0.176,-0.187 0.197,-0.161C0.218,-0.135 0.244,-0.114 0.274,-0.099C0.304,-0.084 0.337,-0.076 0.374,-0.076C0.412,-0.076 0.446,-0.084 0.476,-0.1C0.506,-0.116 0.532,-0.137 0.553,-0.164C0.574,-0.191 0.59,-0.221 0.601,-0.254C0.612,-0.287 0.617,-0.321 0.617,-0.355C0.617,-0.391 0.611,-0.426 0.6,-0.459C0.588,-0.492 0.571,-0.522 0.55,-0.549C0.528,-0.575 0.502,-0.596 0.472,-0.611C0.443,-0.625 0.41,-0.633 0.374,-0.633C0.336,-0.633 0.302,-0.625 0.272,-0.61C0.242,-0.594 0.217,-0.573 0.196,-0.546C0.174,-0.519 0.158,-0.49 0.147,-0.457C0.136,-0.424 0.13,-0.39 0.13,-0.355Z" style="fill:rgb(22,22,22);fill-rule:nonzero;"/>
                </g>
                <g transform="matrix(20.8333,0,0,20.8333,536.693,295.848)">
                    <path d="M0.567,-0.08L0.567,-0L0.085,-0L0.085,-0.71L0.558,-0.71L0.558,-0.63L0.175,-0.63L0.175,-0.4L0.508,-0.4L0.508,-0.325L0.175,-0.325L0.175,-0.08L0.567,-0.08Z" style="fill:rgb(22,22,22);fill-rule:nonzero;"/>
                </g>
                <g transform="matrix(20.8333,0,0,20.8333,549.943,295.848)">
                    <path d="M0.175,-0.544L0.175,-0L0.085,-0L0.085,-0.71L0.161,-0.71L0.595,-0.155L0.595,-0.709L0.685,-0.709L0.685,-0L0.603,-0L0.175,-0.544Z" style="fill:rgb(22,22,22);fill-rule:nonzero;"/>
                </g>
                <g transform="matrix(20.8333,0,0,20.8333,566.631,295.848)">
                    <path d="M0.37,0.005C0.323,0.005 0.28,-0.005 0.239,-0.025C0.199,-0.046 0.164,-0.073 0.134,-0.108C0.104,-0.142 0.081,-0.181 0.064,-0.224C0.047,-0.267 0.039,-0.311 0.039,-0.357C0.039,-0.405 0.047,-0.451 0.064,-0.494C0.081,-0.537 0.104,-0.575 0.134,-0.608C0.163,-0.641 0.198,-0.668 0.238,-0.687C0.279,-0.706 0.323,-0.715 0.37,-0.715C0.439,-0.715 0.495,-0.701 0.54,-0.672C0.585,-0.643 0.618,-0.606 0.641,-0.56L0.572,-0.512C0.551,-0.553 0.523,-0.584 0.487,-0.604C0.451,-0.624 0.411,-0.634 0.368,-0.634C0.332,-0.634 0.299,-0.626 0.27,-0.611C0.241,-0.596 0.216,-0.575 0.195,-0.549C0.173,-0.522 0.158,-0.492 0.147,-0.459C0.136,-0.426 0.13,-0.391 0.13,-0.355C0.13,-0.317 0.136,-0.281 0.149,-0.248C0.161,-0.214 0.178,-0.184 0.201,-0.159C0.224,-0.133 0.25,-0.113 0.28,-0.098C0.31,-0.083 0.342,-0.076 0.377,-0.076C0.418,-0.076 0.456,-0.086 0.493,-0.107C0.53,-0.128 0.564,-0.159 0.597,-0.202L0.597,-0.109C0.533,-0.033 0.457,0.005 0.37,0.005ZM0.586,-0.286L0.433,-0.286L0.433,-0.354L0.662,-0.354L0.662,-0L0.586,-0L0.586,-0.286Z" style="fill:rgb(22,22,22);fill-rule:nonzero;"/>
                </g>
                <g transform="matrix(20.8333,0,0,20.8333,582.152,295.848)">
                    <rect x="0.085" y="-0.71" width="0.09" height="0.71" style="fill:rgb(22,22,22);fill-rule:nonzero;"/>
                </g>
                <g transform="matrix(20.8333,0,0,20.8333,588.214,295.848)">
                    <path d="M0.175,-0.544L0.175,-0L0.085,-0L0.085,-0.71L0.161,-0.71L0.595,-0.155L0.595,-0.709L0.685,-0.709L0.685,-0L0.603,-0L0.175,-0.544Z" style="fill:rgb(22,22,22);fill-rule:nonzero;"/>
                </g>
                <g transform="matrix(20.8333,0,0,20.8333,604.902,295.848)">
                    <path d="M0.567,-0.08L0.567,-0L0.085,-0L0.085,-0.71L0.558,-0.71L0.558,-0.63L0.175,-0.63L0.175,-0.4L0.508,-0.4L0.508,-0.325L0.175,-0.325L0.175,-0.08L0.567,-0.08Z" style="fill:rgb(22,22,22);fill-rule:nonzero;"/>
                </g>
                <g transform="matrix(20.8333,0,0,20.8333,618.152,295.848)">
                    <path d="M0.567,-0.08L0.567,-0L0.085,-0L0.085,-0.71L0.558,-0.71L0.558,-0.63L0.175,-0.63L0.175,-0.4L0.508,-0.4L0.508,-0.325L0.175,-0.325L0.175,-0.08L0.567,-0.08Z" style="fill:rgb(22,22,22);fill-rule:nonzero;"/>
                </g>
                <g transform="matrix(20.8333,0,0,20.8333,631.402,295.848)">
                    <path d="M0.085,-0L0.085,-0.71L0.389,-0.71C0.42,-0.71 0.449,-0.704 0.475,-0.691C0.501,-0.678 0.524,-0.66 0.543,-0.639C0.562,-0.617 0.577,-0.593 0.588,-0.566C0.599,-0.539 0.604,-0.511 0.604,-0.483C0.604,-0.45 0.598,-0.419 0.586,-0.39C0.573,-0.361 0.556,-0.336 0.534,-0.315C0.511,-0.294 0.485,-0.28 0.455,-0.272L0.627,-0L0.525,-0L0.363,-0.255L0.175,-0.255L0.175,-0L0.085,-0ZM0.175,-0.335L0.39,-0.335C0.415,-0.335 0.436,-0.342 0.455,-0.356C0.473,-0.369 0.487,-0.387 0.498,-0.41C0.508,-0.433 0.513,-0.457 0.513,-0.483C0.513,-0.51 0.507,-0.534 0.495,-0.557C0.483,-0.579 0.467,-0.597 0.448,-0.61C0.429,-0.623 0.407,-0.63 0.384,-0.63L0.175,-0.63L0.175,-0.335Z" style="fill:rgb(22,22,22);fill-rule:nonzero;"/>
                </g>
            </g>
            <g id="logo" transform="matrix(0.165632,0,0,0.165632,302.015,428.768)">
                <path d="M48.214,802.948C47.709,824.915 109.671,856.513 131.631,857.27C153.59,858.027 177.46,858.353 201.511,858.394C249.612,858.476 298.43,857.451 334.125,856.693C434.515,852.074 550.715,873.044 653.523,867.487C656.849,868.215 665.528,866.939 665.47,866.415L759.389,869.188C759.389,869.188 787.855,869.939 825.157,870.353C843.808,870.556 864.667,870.574 885.287,870.574C954.668,870.574 961.74,818.333 967.817,770.431C969.778,754.97 970.677,741.855 970.677,741.855C975.925,689.612 976.263,649.95 975.523,607.82C974.672,565.694 972.674,521.105 972.028,458.984C974.224,349.803 979.973,320.842 977.282,207.66C977.259,198.125 977.241,188.502 977.218,178.781C977.078,163.811 941.238,134.098 923.402,134.454C912.44,134.757 901.478,135.06 890.562,135.362C871.113,135.957 851.862,136.551 833.228,137.122C808.776,142.038 765.387,138.217 736.425,142.486L725.137,140.086C715.159,141.543 703.434,142.609 693.363,141.374L693.986,140.616C679.08,142.807 662.211,141.91 654.808,143.005L655.42,142.242L637.281,142.865L640.386,141.746C614.366,144.222 587.526,144.81 563.859,144.245L565.869,147.332C515.234,144.676 496.839,151.456 451.12,148.095L451.731,147.327C394.171,156.553 360.41,143.313 301.061,152.237C308.464,151.119 297.851,150.693 298.44,149.924C271.057,151.346 241.805,152.365 241.496,158.516C221.529,158.848 225.204,156.938 222.554,154.625C222.723,157.31 205.394,158.784 189.818,159.273L196.971,158.085L152.301,160.007L161.189,164.871C137.471,166.968 137.753,166.784 137.753,166.784C110.551,166.783 56.755,252.21 56.756,301.201C58.323,335.294 59.674,369.678 60.455,403.817C62.016,472.095 61.614,539.39 56.383,601.669L53.139,607.086C48.543,609.351 58.923,641.691 54.537,646.327L56.133,660.907C55.195,664.955 54.053,673.529 53.273,666.266C52.661,679.675 53.401,680.03 54.444,689.74L51.112,704.034C49.155,729.599 48.616,742.37 48.523,766.421C48.447,778.443 48.499,790.537 48.214,802.948ZM408.52,475.814L383.823,407.371C380.541,400.624 377.208,393.771 372.547,387.892C354.313,364.896 334.904,342.843 315.323,320.982C307.058,311.754 298.05,303.211 289.061,294.686L272.42,296.279L267.348,305.307C269.534,325.577 290.035,345.849 300.192,366.145C302.512,370.78 307.943,394.407 307.846,398.701C310.147,400.426 312.452,402.154 314.611,404.053C317.826,406.879 320.21,409.431 322.768,412.863C324.526,415.221 327.527,418.249 328.46,421.038C329.037,422.763 329.346,424.569 329.653,426.361L316.801,420.045L307.928,418.63C322.075,443.446 329.664,467.934 325.571,491.837C321.415,495.82 317.251,499.81 312.822,503.488C305.485,509.581 284.396,516.056 280.981,516.471C270.605,517.729 194.554,533.211 194.554,533.211L201.937,538.9C201.937,538.9 209.246,541.057 212.985,541.757C220.643,543.191 247.889,547.504 247.889,547.504C247.889,547.504 258.574,547.346 263.729,547.232C268.759,547.121 278.818,546.82 278.818,546.82L283.334,548.416L269.803,553.766L243.55,555.054C243.55,555.054 222.216,551.203 211.558,549.225C200.39,547.153 176.541,542.621 176.541,542.621L152.65,546.247C152.65,546.247 126.549,551.531 111.593,558.091L105.739,572.551L141.669,587.931L243.075,600.662C247.385,598.182 251.707,595.695 256.215,593.595C262.022,590.89 267.792,587.919 273.982,586.265C278.403,585.084 280.082,598.567 280.082,598.567C288.552,597.747 297.029,596.926 305.448,595.691C317.881,593.868 330.548,592.893 342.617,589.394C349.93,587.273 356.353,582.788 362.965,579.012C366.999,576.708 370.757,573.942 374.498,571.187L387.662,571.431L403.398,555.112L419.135,557.443C423.595,561.39 428.171,565.439 431.374,570.46C433.123,573.201 433.325,576.732 433.511,579.979C433.483,581.682 433.454,583.487 432.734,585.03C429.792,591.334 426.482,597.498 422.631,603.292C421.731,604.647 418.802,604.543 418.686,606.166C418.43,609.739 429.431,606.012 429.431,606.012L451.19,597.27C454.555,593.33 457.946,589.359 461.875,585.981C465.373,582.975 469.375,580.591 473.337,578.231L482.08,579.396L484.799,587.167C481.488,592.889 478.156,598.644 474.114,603.875C470.417,608.66 466.033,612.888 461.681,617.086L456.609,625.573C458.184,626.768 459.796,627.991 461.629,628.731C464.384,629.844 467.332,631.733 470.229,631.073C476.367,629.675 481.684,625.829 487.253,622.893C491.277,620.773 495.133,618.344 498.981,615.92C502.781,612.68 506.611,609.414 509.861,605.623C513.638,601.217 516.81,596.314 519.963,591.441C523.357,593.006 526.781,594.585 529.871,596.687C533.1,598.884 535.966,601.585 538.808,604.263C540.109,606.176 541.42,608.102 542.434,610.181C544.082,613.557 546.184,616.872 546.773,620.582C547.678,626.279 546.988,632.12 546.834,637.885C546.729,641.775 546.362,645.655 545.996,649.529L559.401,660.02C564.531,660.056 569.769,660.092 574.749,658.855C577.314,658.217 579.28,656.117 581.409,654.551C582.723,653.584 583.888,652.427 585.045,651.278L587.765,633.793C585.651,627.396 583.498,620.883 582.908,614.171C582.509,609.64 583.703,605.064 584.851,600.662C589.68,601.115 594.563,601.572 599.227,602.904C603.831,604.218 608.159,606.39 612.438,608.537L617.489,633.599L614.186,642.147C618.864,649.794 623.553,657.457 627.591,665.46C630.561,671.344 632.869,677.545 635.168,683.722L636.528,715.389L619.237,737.342C621.416,739.444 623.635,741.586 625.26,744.141C634.862,759.238 643.281,775.064 652.847,790.184C656.903,796.596 674.994,784.939 674.994,784.939C675.745,780.235 676.498,775.514 676.743,770.757C677.211,761.637 676.438,752.47 677.131,743.364C677.466,738.971 678.647,734.669 679.815,730.421C677.276,725.109 674.734,719.791 672.529,714.332C670.48,709.258 668.543,704.12 667.065,698.851C666.207,695.792 665.876,692.601 665.548,689.441C661.471,682.648 657.366,675.807 654.316,668.495C649.955,658.041 646.393,647.24 643.388,636.319C641.119,628.072 639.822,619.579 638.531,611.124L652.495,608.999L664.637,619.016C667.921,624.312 671.207,629.61 674.654,634.801C686.063,651.979 697.031,666.538 707.499,684.385C718.606,703.321 729.177,722.568 739.746,741.81L748.605,762.325C751.286,765.542 754.048,768.856 757.563,771.132C762.403,774.267 768.281,775.479 773.299,778.32C779.197,781.659 784.714,785.644 790.208,789.613C793.153,789.056 796.105,788.498 799.087,788.201C802.876,787.823 806.699,787.267 810.493,787.59C813.294,787.828 810.412,796.024 810.412,796.024L834.697,797.967C836.067,797.501 837.449,797.03 838.728,796.352C840.634,795.34 842.868,794.601 844.216,792.916C845.455,791.367 845.579,789.18 846.013,787.245C846.295,785.988 846.324,784.684 846.353,783.396C837.935,776.272 829.516,769.146 821.285,761.807C809.242,751.069 797.428,740.077 785.539,729.169C778.61,722.813 771.721,716.415 764.832,710.016C761.526,704.603 758.22,699.187 754.729,693.891C750.706,687.787 746.727,681.639 742.296,675.824C740.492,673.456 738.274,671.424 736.079,669.413C733.938,668.79 731.598,668.11 730.057,666.499C727.176,663.487 725.425,659.567 723.257,656.008C718.086,647.519 714.719,637.756 710.823,628.809C708.589,623.679 706.306,618.57 704.024,613.462L691.979,593.063C691.682,588.278 691.379,583.377 692.367,578.687C692.904,576.139 698.45,573.786 698.45,573.786L719.395,591.999C730.304,603.446 741.213,614.893 752.274,626.194C757.056,631.081 765.387,639.992 772.276,644.279C779.911,649.03 781.401,648.563 791.167,649.283C793.634,649.465 796.115,649.408 798.589,649.351C802.291,648.708 806.091,648.047 809.468,646.398C812.894,644.725 815.803,642.11 818.638,639.56L819.825,624.812L768.828,591.118C755.626,582.483 742.393,573.827 729.973,564.101C725.52,560.614 721.946,556.093 718.438,551.656C713.226,546.434 707.978,541.176 703.564,535.264C701.609,532.645 702.318,525.767 703.564,523.425C705.115,520.508 707.566,518.135 709.939,515.836C712.273,518.283 714.731,520.86 717.831,522.211C728.603,526.904 751.166,535.369 766.096,537.085C770.319,537.57 774.67,538.184 778.845,537.388C783.349,536.531 787.53,534.349 791.595,532.228L792.202,524.032C789.001,522.281 785.725,520.489 783.095,517.961C775.248,510.419 768.083,502.189 760.936,493.98C759.983,490.428 758.985,486.704 759.418,483.052C759.727,480.446 761.47,478.158 763.061,476.071C767.915,473.913 772.947,471.677 778.238,471.214C781.395,470.937 784.517,472.516 787.345,473.946L792.809,463.928L792.505,452.393C796.638,452.76 801.001,453.148 804.648,455.125C809.636,457.83 813.266,462.513 817.7,466.053C825.815,472.532 833.697,479.346 842.288,485.177C845.66,487.466 848.913,484.811 852.306,486.998C858.056,490.707 863.243,495.243 868.394,499.748C872.075,493.773 875.792,487.742 878.411,481.231C887.346,459.019 916.354,397.436 918.178,360.528C918.686,350.239 916.773,328.478 914.875,318.176C913.344,309.865 912.066,301.396 909.047,293.503C907.489,289.429 888.946,252.884 885.967,249.698C874.92,239.863 863.508,232.338 851.489,228.654C839.961,228.057 828.398,227.457 816.867,227.976C810.922,228.244 806.291,233.042 800.159,232.639C795.843,232.354 791.756,230.547 787.641,229.215C784.946,228.342 782.348,227.185 779.76,226.033C759.97,230.789 740.151,235.552 720.709,241.575C698.486,248.46 699.577,251.031 677.297,257.002C673.173,258.108 668.776,258.551 664.972,260.491C662.167,261.922 660.162,264.575 657.987,266.852C656.634,268.269 655.526,269.908 654.429,271.532C656.627,274.569 658.831,277.612 660.778,280.815C671.344,298.189 671.872,316.304 672.735,320.82C674.184,322.239 675.642,323.667 676.879,325.275C678.889,327.888 681.201,330.396 682.449,333.448C687.078,344.773 700.67,387.619 702.848,399.357C703.793,404.452 702.912,409.734 702.516,414.901C702.273,418.073 701.603,421.203 700.937,424.314L724.188,426.925C726.137,428.349 728.096,429.782 729.854,431.436C732.334,433.77 735.439,435.771 736.87,438.861C737.85,440.978 736.912,443.55 736.53,445.852C736.276,447.378 735.62,448.819 734.979,450.228L711.355,469.034L703.118,464.527L703.74,454.891C699.923,451.95 696.096,449.001 692.554,445.734C686.709,440.341 680.48,435.223 675.609,428.936C672.278,424.637 659.025,397.263 657.022,392.912C656.694,392.199 647.929,370.517 645.889,368.468C642.017,364.579 631.786,376.962 631.786,376.962L629.921,385.977L643.748,444.011L659.29,468.723L668.62,482.987L663.486,495.3C659.475,490.679 655.462,486.055 651.645,481.273C634.964,460.379 634.57,460.784 622.69,437.024C620.527,432.698 618.615,428.25 616.705,423.807C613.142,422.526 609.378,421.174 606.62,418.58C605.198,417.243 610.643,414.326 610.643,414.326C603.674,398.88 596.696,383.413 590.75,367.545C587.613,359.175 586.017,350.305 583.445,341.745C583.01,340.299 582.371,338.919 581.735,337.549C576.551,333.823 571.341,330.077 566.66,325.737C563.478,322.788 560.917,319.224 558.267,315.79C554.955,311.499 551.869,307.037 548.786,302.58L536.042,302.113L528.582,305.843C529.299,309.518 530.017,313.197 530.952,316.822C532.505,322.837 533.628,329.027 536.042,334.751C542.551,350.189 549.766,365.348 557.645,380.134C571.053,405.295 588.233,428.324 601.629,453.492C607.68,464.861 612.662,476.77 617.938,488.519C621.108,495.579 624.036,502.746 626.962,509.909C630.183,515.095 633.413,520.297 636.132,525.762C638.811,531.146 641.604,536.574 643.126,542.392C643.978,545.65 643.542,549.153 643.126,552.494L630.071,553.271C616.73,537.118 605.744,520.023 595.568,502.605L590.128,472.142C589.234,469.805 588.308,467.384 586.709,465.459C582.401,460.275 577.471,455.629 572.565,451.005L564.017,449.607L555.003,460.175L558.733,481.312L584.222,525.762C590.398,538.544 594.792,550.929 598.054,563.063L584.067,556.909C582.094,551.139 580.122,545.369 578.161,539.594C576.806,535.608 575.463,531.618 574.12,527.627C571.765,523.132 569.406,518.627 567.437,513.95C565.255,508.77 564.341,503.052 561.686,498.097C559.04,493.158 555.341,488.834 551.699,484.576L537.907,483.022L531.535,487.529L531.535,506.49C535.599,511.344 539.703,516.245 542.88,521.721C544.632,524.739 545.4,528.259 546.144,531.668L542.414,561.353C538.804,560.242 534.965,559.061 532.156,556.535C528.587,553.326 526.208,548.942 523.919,544.723L525.007,524.674L511.019,485.664L500.14,484.731C498.273,486.916 496.331,489.19 495.322,491.881C494.257,494.721 494.166,497.863 494.079,500.895C495.09,503.117 496.151,505.45 496.254,507.889C496.687,518.117 495.038,517.737 491.903,527.316C490.556,531.43 489.983,535.77 489.416,540.061C488.092,540.997 486.669,542.004 485.064,542.237C483.302,542.492 481.406,542.185 479.78,541.46C478.373,540.832 477.331,539.547 476.361,538.351L477.138,510.686C475.272,505.965 473.388,501.201 470.766,496.854C469.705,495.097 467.934,493.843 466.258,492.658L460.123,490.791C459.484,491.573 458.781,492.434 458.643,493.435C458.166,496.902 459.013,500.499 458.315,503.928C456.771,511.502 455.098,519.165 451.96,526.228C450.768,528.91 443.723,529.337 443.723,529.337L434.553,519.701L435.174,509.443L433.62,498.408L414.97,488.461L412.794,477.893L408.52,475.814ZM839.804,383.772C839.804,383.772 842.426,381.853 844.732,380.784C848.988,378.811 862.72,371.694 862.72,371.694C862.72,371.694 866.981,368.645 866.459,367.193C866.131,366.279 864.116,365.132 864.116,365.132C864.116,365.132 859.024,364.01 856.484,364.359C851.494,365.044 834.173,369.247 834.173,369.247C834.173,369.247 831.222,365.703 830.226,363.646C828.111,359.275 821.48,343.02 821.48,343.02L817.915,339.085C817.915,339.085 814.771,338.166 813.966,338.434C811.165,339.367 814.659,357.326 814.659,357.326L818.702,372.151L814.672,375.053C814.672,375.053 803.383,378.889 794.458,383.97C788.976,387.091 783.695,391.464 784.515,393.39C784.938,394.385 786.876,395.57 786.876,395.57C792.299,395.65 796.482,394.195 801.256,393.327C806.121,392.443 811.224,391.441 816.069,390.264C818.877,389.582 821.719,388.843 824.476,388.057L836.806,412.905C836.806,412.905 840.884,419.585 843.496,422.92C845.252,425.162 845.617,424.635 846.378,424.275C848.72,423.166 847.883,416.156 847.474,411.608C846.871,404.924 842.146,396.077 840.226,390.434C838.676,385.879 839.804,383.772 839.804,383.772Z" style="fill:rgb(22,22,22);"/>
            </g>
        </g>
    </g>
</svg>
