<?xml version="1.0" encoding="UTF-8" standalone="no"?>
<!DOCTYPE svg PUBLIC "-//W3C//DTD SVG 1.1//EN" "http://www.w3.org/Graphics/SVG/1.1/DTD/svg11.dtd">
<svg width="100%" height="100%" viewBox="0 0 649 154" version="1.1" xmlns="http://www.w3.org/2000/svg" xmlns:xlink="http://www.w3.org/1999/xlink" xml:space="preserve" xmlns:serif="http://www.serif.com/" style="fill-rule:evenodd;clip-rule:evenodd;stroke-linejoin:round;stroke-miterlimit:2;">
    <g transform="matrix(1,0,0,1,-190.558,-419.471)">
        <g>
            <g transform="matrix(1,0,0,1,-297.721,93.6031)">
                <text x="482.42px" y="418.397px" style="font-family:'YuGothicUI-Regular', 'Yu Gothic UI', sans-serif;font-size:125px;">dario menik</text>
            </g>
            <g transform="matrix(1,0,0,0.95,-186.91,-39.4079)">
                <text x="412.843px" y="637.407px" style="font-family:'YuGothicUI-Regular', 'Yu Gothic UI', sans-serif;font-size:29.167px;fill-opacity:0.7;">S<tspan x="430.963px 455.577px 478.24px 502.683px 525.759px 536.373px 559.449px 576.828px 594.948px 605.335px 627.969px 652.412px 669.791px 689.862px 700.477px 710.08px 720.694px 742.133px 764.795px 787.871px 798.258px 822.872px 833.486px 850.866px 875.309px 897.943px 908.33px 932.773px 950.152px 967.531px " y="637.407px 637.407px 637.407px 637.407px 637.407px 637.407px 637.407px 637.407px 637.407px 637.407px 637.407px 637.407px 637.407px 637.407px 637.407px 637.407px 637.407px 637.407px 637.407px 637.407px 637.407px 637.407px 637.407px 637.407px 637.407px 637.407px 637.407px 637.407px 637.407px 637.407px ">OUND DESIGNER | AUDIO ENGINEER</tspan></text>
            </g>
        </g>
    </g>
</svg>
