<?xml version="1.0" encoding="UTF-8" standalone="no"?>
<!DOCTYPE svg PUBLIC "-//W3C//DTD SVG 1.1//EN" "http://www.w3.org/Graphics/SVG/1.1/DTD/svg11.dtd">
<svg width="100%" height="100%" viewBox="0 0 1500 1000" version="1.1" xmlns="http://www.w3.org/2000/svg" xmlns:xlink="http://www.w3.org/1999/xlink" xml:space="preserve" xmlns:serif="http://www.serif.com/" style="fill-rule:evenodd;clip-rule:evenodd;stroke-linejoin:round;stroke-miterlimit:2;">
    <g id="_-ffffffff" serif:id="#ffffffff">
        <g>
            <path d="M1492.4,583.04C1494.99,580.6 1498.08,578.58 1500,575.5L1500,582.89C1497.45,582.96 1494.92,582.94 1492.4,583.04Z" style="fill:white;fill-rule:nonzero;"/>
            <path d="M89.2,0L95.41,0C125.69,13.22 151.57,36.23 168.38,64.67C187.77,96.95 194.71,136.21 188.36,173.25C182.83,206.2 166.4,237.16 142.45,260.42C110.48,291.86 64.74,308.88 19.98,305.23C13.26,305.05 6.63,303.85 0,302.85L0,299.9C21.76,304.49 44.5,304.04 66.16,299.07C98.89,291.68 129.03,273.31 150.66,247.67C170.47,224.51 183.22,195.41 186.84,165.15C192.51,121.24 178.2,75.23 148.68,42.23C132.58,23.64 111.73,9.62 89.2,0Z" style="fill:white;fill-rule:nonzero;"/>
            <path d="M142.87,0L146.42,0C150.77,2.67 154.39,6.33 158.22,9.67C186.25,35.83 206.07,70.75 213.69,108.37C217.51,125.33 217.64,142.78 217.01,160.07C214.86,189.39 205.6,218.14 190.25,243.21C171.41,274.12 143.39,299.35 110.62,314.75C76.48,331.11 37.27,336.1 0,329.95L0,327.7C9.03,328.15 17.95,329.99 27.01,329.96C61.48,330.56 96.18,321.53 125.71,303.62C158.23,284.17 184.38,254.36 199.51,219.62C213.65,187.14 218.4,150.53 212.28,115.6C205.88,76.49 186.18,39.8 157.38,12.62C152.69,8.24 147.76,4.14 142.87,0Z" style="fill:white;fill-rule:nonzero;"/>
            <path d="M182.93,0L186.33,0C224.24,39.79 245.89,94.98 244.02,150C244.41,160.42 243.07,170.79 241.47,181.06C235.25,219.28 218.19,255.64 192.91,284.97C152.56,332.37 90.43,361.11 28,359.01C18.62,359.37 9.24,358.6 0,356.99L0,354.76C6.23,355.12 12.41,356 18.65,356.29C31.92,357.9 45.29,356.33 58.5,354.93C98.72,349.75 137.26,332.52 167.99,306.08C197.07,281.3 219.13,248.39 231.08,212.11C238.13,191.14 241.2,169.05 241.97,147.01C241.43,118.83 236.39,90.56 225.27,64.56C215.37,40.62 200.59,18.88 182.93,0Z" style="fill:white;fill-rule:nonzero;"/>
            <path d="M218.33,0L221.42,0C257.48,45.93 275,105.74 270.47,163.87C267.82,202.64 255.24,240.62 234.6,273.52C217.43,300.9 194.73,324.8 168.16,343.22C133.61,367.37 92.57,382.17 50.54,385.43C42.06,386.5 33.51,385.84 25,386.04C16.64,386.12 8.24,385.41 0,384L0,381.79C13.65,382.7 27.36,384.44 41.06,383.25C95.91,381.31 149.72,359.15 190.26,322.18C237.39,279.97 266.49,218.12 268.21,154.8C270.69,99.43 252.39,43.66 218.33,0Z" style="fill:white;fill-rule:nonzero;"/>
            <path d="M251.39,0L254.43,0C283.1,43.25 298.21,95.17 298.04,147C297.83,190.23 287.19,233.45 266.7,271.57C248.99,304.84 224.15,334.31 194.29,357.32C148.3,393.11 90.27,413.08 31.99,413.04C21.3,413.19 10.58,412.56 0,411.03L0,408.77C6.81,409 13.56,410.19 20.4,410.02C51.01,411.41 81.86,407.34 111.05,398C158.88,382.92 202.11,353.73 234.14,315.17C272.77,269.02 295,209.27 295.18,149.03C296.17,96.42 280.37,43.85 251.39,0Z" style="fill:white;fill-rule:nonzero;"/>
            <path d="M282.83,0L285.76,0C307.62,37.01 320.25,79.24 323.9,122C324.24,133.98 325.8,145.96 324.49,157.94C322.26,225.75 294.99,292.29 249.45,342.53C210.48,386.15 158.06,417.56 101.24,431.43C78.62,437.14 55.29,439.53 32,440.03C27.68,440.06 23.36,439.97 19.06,439.59C12.71,438.96 6.27,439.36 0,438L0,435.86C6.37,435.72 12.64,437.06 19,436.99C28,437 37,437.02 46.01,436.94C69.93,435.45 93.76,431.5 116.68,424.37C175.94,406.29 228.9,368.52 265.53,318.57C303.17,267.74 323.54,204.26 321.99,141C322.32,132.28 321.28,123.61 320.51,114.94C316.16,74.57 303.38,35.05 282.83,0Z" style="fill:white;fill-rule:nonzero;"/>
            <path d="M313.65,0L316,0C318.05,2.82 319.53,5.99 321.02,9.12C339.82,49.05 350.56,92.9 351.36,137.05C353.52,198.03 337.28,259.42 305.68,311.59C279.75,354.63 243.56,391.4 200.95,418.02C156.32,446.04 104.65,462.7 52.06,466.03C42.38,466.08 32.72,467.34 23.04,466.53C15.37,465.87 7.6,466.47 0,464.99L0,462.87C5.34,462.76 10.65,463.37 15.96,463.85C32.54,464.32 49.15,464.08 65.64,462.15C124.05,455.94 180.5,432.92 226.7,396.68C273.8,359.94 310.27,309.72 330.36,253.45C346.71,207.74 352.63,158.23 346.92,110.01C342.74,71.68 331.06,34.36 313.65,0Z" style="fill:white;fill-rule:nonzero;"/>
            <path d="M343.61,0L345.99,0C348.51,4.1 350.24,8.62 352.1,13.04C365.47,45.28 373.93,79.56 377.03,114.33C378.72,130.84 378.19,147.46 378.04,164.03C375.24,220.11 358.54,275.44 329.74,323.65C307,361.85 276.87,395.62 241.5,422.54C186.4,464.74 118.34,489.75 49.01,493.05C32.68,493.19 16.26,493.91 0,491.98L0,489.85C6.68,489.73 13.32,490.43 19.97,490.91C71.24,492.21 122.89,482.53 169.84,461.75C216.69,441.18 258.74,409.92 292.15,371.19C332.02,325.11 359.37,268.27 370.18,208.28C373.63,190.05 375.06,171.53 375.98,153.03C376.02,144.68 376.17,136.31 375.23,128C373.3,83.78 361.88,40.23 343.61,0Z" style="fill:white;fill-rule:nonzero;"/>
            <path d="M372.74,0L375.54,0C393.42,40.96 402.92,85.4 405.04,129.98C405.03,140.32 404.98,150.66 405.05,161C402.91,214.66 389.24,267.91 364.71,315.72C327.84,388.58 266.32,448.6 192.63,483.76C150.31,504.09 104.08,516.3 57.23,519.41C45.2,520.66 33.07,519.7 21,520.03C13.97,520.32 6.98,519.64 0,518.98L0,516.86C15.03,516.68 30.03,519.12 45.05,517.41C97.87,515.51 150.29,502.14 197.52,478.36C273.45,440.47 335.51,375.7 370.14,298.23C389.77,254.51 400.82,206.95 402.38,159.06C403.69,146.69 402.2,134.32 401.91,121.96C399.07,80.07 389.42,38.56 372.74,0Z" style="fill:white;fill-rule:nonzero;"/>
            <path d="M401.73,0L404.56,0C434.98,76.52 440.12,162.57 420.5,242.44C409.23,288.04 389.86,331.62 363.52,370.51C321.21,433.18 260.92,483.56 191.58,513.76C148.29,532.7 101.59,543.89 54.4,546.47C43.3,547.58 32.13,546.74 21.01,547.04C13.97,547.34 7.01,546.18 0,545.98L0,543.78C8,543.93 16.01,543.9 23.99,544.47C34,545.19 43.99,543.78 54.01,543.94C63.87,543.26 73.72,542.38 83.52,541.07C167.52,530.19 247.62,491.4 308.18,432.19C368.8,373.93 410.03,295.89 423.84,212.95C435.87,141.74 428.52,67.16 401.73,0Z" style="fill:white;fill-rule:nonzero;"/>
            <path d="M430.69,0L433.01,0C435.33,4.67 436.78,9.71 438.4,14.66C467.36,104.09 465.72,203.03 433.65,291.41C406.88,365.96 358.69,432.52 296.61,481.65C231.56,533.41 151.09,565.51 68.23,572.41C54.19,573.47 40.11,574.33 26,574.03C17.31,574.43 8.68,573 0,572.99L0,570.61C21.64,571.13 43.35,571.9 64.94,569.97C148.5,563.63 229.81,531.5 295.3,479.25C355.84,431.22 403.07,366.52 429.83,294C445.35,252.39 454,208.29 455.99,163.96C456.03,147.33 456.66,130.65 455.03,114.08C452.39,75.14 443.66,36.77 430.69,0Z" style="fill:white;fill-rule:nonzero;"/>
            <path d="M458.86,0L461.63,0C474.9,37.61 482.15,77.21 484.96,116.94C485.19,131.6 486.69,146.27 485.43,160.94C483.24,243.69 457.22,325.56 411.83,394.75C369.28,459.88 309.79,513.87 240.72,549.7C184.3,579.18 121.56,596.41 58.03,600.04C48.01,600.11 38.03,601.36 27.99,601.02C18.65,600.99 9.35,599.74 0,599.99L0,597.46C14.98,598.2 30,597.98 45,597.99C49.7,598.08 54.41,597.8 59.08,597.27C81.98,595.98 104.77,592.74 127.18,587.9C209.07,570.29 285.69,529.1 345.64,470.64C399.51,418.66 440.09,353.03 462.44,281.58C474.81,242.24 481.58,201.18 482.99,159.99C483.01,150.33 482.98,140.67 482.99,131C481.2,86.51 473.56,42.09 458.86,0Z" style="fill:white;fill-rule:nonzero;"/>
            <path d="M487.24,0L489.01,0C490.06,1 490.93,2.24 492.15,3.05C496.3,2.43 500.16,0.54 504.35,0L512.83,0C506.09,2.57 498.78,3.41 492.19,6.4C494.27,14.42 496.67,22.38 498.64,30.44C499.71,30.36 500.76,30.12 501.8,29.83C531.26,20.46 562.21,16.31 593.05,15.66C610,14.37 626.97,15.96 643.92,16.14C652.56,17.28 661.29,16.63 669.94,17.62C678.26,18.35 686.63,17.63 694.97,18.32C708.29,19.32 721.66,18.92 735,18.99C746.35,18.93 757.71,19.29 769.03,18.32C804.33,17.27 839.72,14.33 874.38,7.25C884.52,5.39 894.4,2.41 904.42,0L911.78,0C894.01,6.44 875.34,10.01 856.76,13.22C828.39,17.95 799.66,19.83 770.97,21.04C757.97,20.77 744.99,21.69 732,21.56C721.08,21.64 710.18,20.87 699.27,21.02C692.53,21.08 685.78,21.1 679.07,20.42C672.08,19.71 665.04,20.38 658.06,19.68C649.75,18.74 641.36,19.29 633.06,18.21C619.38,17.76 605.68,18.11 591.99,18.02C560.84,19.68 529.26,23 499.72,33.55C500.98,41.9 503.22,50.11 504.7,58.44C508.87,57.56 512.81,55.83 516.91,54.63C552.5,43.8 589.97,41.23 626.98,41.48C636.29,42.1 645.63,41.68 654.94,42.32C663.58,43.42 672.3,42.58 680.96,43.36C693.79,44.52 706.69,43.7 719.55,44.07C736.7,44.56 753.85,43.82 771,44C808.44,42.44 846.01,39.86 882.82,32.35C906.17,27.6 929.26,20.89 950.87,10.74C957.88,7.54 964.52,3.64 971.3,0L975.77,0C959.2,11.02 940.69,18.8 921.86,25.02C877.67,39.18 831.12,43.71 785.01,46.03C773.23,45.73 761.5,47.23 749.72,47.02C731.5,46.87 713.25,47.45 695.05,46.28C686.39,45.68 677.7,46.44 669.06,45.62C659.74,44.68 650.36,45.38 641.06,44.25C607.37,43.18 573.43,44.7 540.34,51.45C528.53,54.1 516.63,56.86 505.42,61.47C506.49,69.9 507.9,78.31 509.06,86.74C512.7,86.11 516.08,84.52 519.58,83.38C548.32,73.45 578.73,69.47 608.98,67.97C619.64,68.16 630.3,67.33 640.96,67.83C649.83,68.27 658.74,67.55 667.59,68.46C672.46,68.93 677.35,69.03 682.24,69C694.84,68.76 707.4,69.93 720,69.99C737.34,69.97 754.69,70.29 772.01,69.13C795.76,68.94 819.45,67.08 843.08,64.73C884.04,60.12 925.35,52.43 962.86,34.71C978.13,27.47 992.58,18.42 1005.46,7.46C1008.37,4.99 1011.04,2.23 1014.15,0L1017.66,0C996.65,20.81 970.58,36.01 942.86,46.01C901.58,60.99 857.66,66.76 814.07,69.99C805.71,70.23 797.4,71.32 789.02,71.14C771.39,72.77 753.67,71.55 736,72.32C719.68,71.82 703.34,72.21 687.02,71.86C678.03,71.14 669.03,70.95 660.02,70.98C634.82,68.96 609.48,70.13 584.36,72.49C560.12,74.97 536.04,79.9 513.19,88.45C511.93,89 510.54,89.48 509.63,90.56C510.24,99.21 511.16,107.84 511.63,116.51C521.67,112.68 531.64,108.55 542.05,105.76C568.36,98.26 595.73,95.08 623,93.95C639.66,94.13 656.33,93.78 672.99,94.11C689.3,95.42 705.66,94.89 722,95C739,94.99 756,95.01 773,94.98C780,94.99 786.95,93.89 793.96,93.98C801.68,94.17 809.32,92.8 817.04,92.85C862.02,89.51 907.4,84.04 950.15,68.97C979.3,58.67 1007.05,43.03 1028.65,20.65C1035.15,14.31 1040.81,7.2 1046.32,0L1049.6,0C1032.99,23.17 1011.12,42.54 985.99,56.02C950.21,75.44 909.93,84.6 869.9,90.2C849.72,93.06 829.38,94.64 809.06,96C801.05,95.77 793.12,97.19 785.12,97.03C773.4,96.85 761.71,97.93 750,98C731.68,98.04 713.34,98.22 695.04,97.31C683.71,96.65 672.35,97.51 661.05,96.48C648.03,95.74 634.95,95.72 621.96,96.8C601.98,97.31 582.05,99.65 562.45,103.55C545.34,107.25 528.19,111.87 512.43,119.59C511.3,128.82 512.9,138.15 512.51,147.42C545.87,130.63 583.12,123.09 620.19,120.85C636.74,119.23 653.39,120.29 670,120C685.34,119.65 700.66,120.83 716,120.99C733.68,120.98 751.36,121.23 769.03,120.28C776,119.83 782.98,120.06 789.96,119.94C810.09,118.73 830.25,117.91 850.32,115.85C894.77,111.31 939.68,103.92 980.76,85.61C1009.65,72.76 1035.79,53.24 1054.94,27.95C1061.75,19.13 1067.76,9.71 1073.21,0L1076.36,0C1063.19,23.82 1046.15,45.8 1024.53,62.53C997.37,83.95 964.57,96.91 931.27,105.28C891.45,115.15 850.45,119.33 809.56,121.5C802.05,122.42 794.47,121.73 786.94,122.37C774.98,123.48 762.97,122.87 750.99,123C730.29,123.13 709.59,122.94 688.89,123.03C676.58,123.18 664.31,121.75 652,122.01C643.17,121.99 634.4,123.13 625.58,123.05C590.4,125.24 554.83,130.97 522.54,145.7C519.3,147.3 515.79,148.52 512.92,150.78C511.26,160.56 512.78,170.59 511.31,180.41C546.19,158.68 587.47,150.15 627.96,147.01C634.32,146.95 640.63,145.88 647,145.96C667.01,146.04 687.01,145.96 707.02,145.99C720.66,146.34 734.31,146.3 747.95,145.99C761.31,145.82 774.7,146.48 788.03,145.28C792.43,144.91 796.85,144.98 801.27,144.98C835.75,143.15 870.28,140.7 904.38,134.93C939.01,129.05 973.61,120.17 1004.83,103.68C1028.44,91.3 1049.52,74 1065.8,52.84C1078.38,36.75 1088.23,18.68 1096.39,0L1099.42,0C1089.61,22.38 1077.52,43.99 1061.39,62.46C1041.97,85.27 1016.53,102.45 989.1,114.21C955.45,128.61 919.29,135.98 883.15,140.8C856.2,144.26 829.08,146.46 801.94,147.33C797.31,147.72 792.68,148.14 788.03,148.03C774.68,147.78 761.37,149.1 748.02,149.01C723.36,148.93 698.68,149.39 674.04,148.19C661.57,147.46 649.15,149.03 636.7,149.08C598.3,151.5 559.22,157.95 524.76,175.88C520.34,178.35 515.5,180.32 511.67,183.66C510.2,189.13 510.36,194.89 509.6,200.47C509.02,205.83 508.25,211.17 507.39,216.49C537.52,193.08 574.94,181.16 612.33,175.92C631.76,173.28 651.38,171.62 671,172C698,171.99 725,172 752,172C764.02,172 776.01,170.71 788.04,170.99C796.39,171.25 804.68,169.77 813.03,169.95C850.53,167.9 888.09,164.85 925.04,157.86C957.24,151.77 989.28,142.74 1018.21,127.05C1041.28,114.7 1061.74,97.51 1077.67,76.75C1095.42,53.83 1107.66,27.2 1117.26,0L1119.65,0C1117.07,10.2 1112.57,19.78 1108.51,29.45C1098.2,52.41 1085.04,74.35 1067.62,92.65C1046.69,115.13 1019.85,131.47 991.3,142.41C954.87,156.41 916.14,163.17 877.51,167.57C853.21,170.35 828.8,171.72 804.4,173.03C799.24,173.03 794.08,173.01 788.94,173.45C776.64,174.55 764.29,173.7 751.97,174.13C726.65,174.94 701.31,174.53 676,174.01C658.86,174.67 641.71,175.09 624.67,177.06C599.16,179.94 573.71,185.15 549.96,195.1C535.88,200.82 522.64,208.48 510.41,217.48C508.54,218.83 506.68,220.52 506.49,222.98C504.49,235.26 502.22,247.52 499.03,259.56C512.44,245.69 528.07,233.96 545.26,225.19C583.38,205.69 626.7,199.63 669.01,197.95C697.34,197.97 725.68,198.34 754,197.14C763.67,196.78 773.36,197.17 783.03,196.89C789.6,196.58 796.16,195.79 802.75,195.98C810.28,196.21 817.75,194.81 825.28,194.93C868.49,192.34 911.82,188.36 954.11,178.75C984.45,171.7 1014.49,161.58 1040.99,144.91C1064.37,130.36 1084.25,110.37 1099.04,87.17C1116.22,60.45 1127.29,30.37 1136.1,0L1138.94,0C1132.18,23.06 1124.4,45.95 1113.42,67.38C1102.16,89.83 1087.29,110.65 1068.54,127.45C1043.61,150.23 1012.37,164.93 980.28,174.6C927.36,190.29 871.98,194.94 817.12,198.03C805.75,198.07 794.43,199.48 783.03,199.07C761.72,200.49 740.35,199.9 719,200.01C701.65,200.2 684.27,199.43 666.95,200.87C654.9,200.95 642.9,202.24 630.93,203.57C606.23,206.62 581.63,212.01 558.69,221.84C539.1,230.16 520.95,241.94 505.66,256.77C502.37,260.05 498.24,263.08 497.05,267.83C491.27,289.96 484.07,311.76 474.98,332.76C484.73,316.13 495.95,300.27 509.15,286.18C521.84,272.81 536.63,261.44 552.87,252.7C590.54,232.45 633.79,226.12 675.97,223.97C692.25,223.94 708.53,223.6 724.81,223.35C742.87,222.42 760.99,223.72 779.04,222.3C787.7,221.6 796.41,222.41 805.06,221.5C812.37,220.63 819.76,221.33 827.07,220.41C867.28,218.15 907.56,214.71 947.18,207.17C978.94,201.07 1010.52,192.23 1039.23,177.06C1062.65,164.84 1083.57,147.74 1099.79,126.85C1115.8,106.38 1127.32,82.76 1136.23,58.45C1143.4,39.26 1148.14,19.27 1155.07,0L1157.49,0C1154.91,9.88 1151.35,19.47 1148.53,29.29C1141.76,52.59 1133.6,75.61 1122.18,97.08C1111.63,116.91 1098.21,135.34 1081.61,150.55C1060.93,169.85 1035.65,183.68 1009.18,193.3C974.46,205.89 937.9,212.5 901.32,216.9C874.06,220.17 846.66,222.16 819.25,223.4C814.84,223.87 810.41,224.11 805.99,224.03C797.3,223.88 788.68,225.35 780,225.03C765.27,224.67 750.58,226.17 735.86,226.02C721.57,226.01 707.29,226 693.01,226.01C660.46,227.05 627.62,229.51 596.14,238.4C573.44,244.68 551.54,254.51 532.7,268.76C519.05,278.94 507.16,291.33 496.87,304.86C480.9,326.01 468.01,349.28 456,372.85C417.47,445.08 360.12,507.11 291.27,551.38C221.04,596.7 138.75,623.13 55.26,627.04C44.51,627.01 33.77,628.2 23.01,627.54C15.35,627.07 7.67,627.01 0,626.92L0,624.35C5.68,623.93 11.33,625 17.01,624.98C26,625.02 35,624.98 44,625C71.69,623.9 99.36,621.05 126.53,615.46C206.32,599.41 281.69,562.35 343.28,509.18C403.77,457.21 451.05,389.96 479.17,315.31C495.81,271.39 505.77,224.98 508.91,178.13C508.96,170.74 510.23,163.4 510,156C509.8,144.98 510.49,133.92 509.38,122.93C507.45,81.23 499.96,39.77 487.24,0Z" style="fill:white;fill-rule:nonzero;"/>
            <path d="M1174.26,0L1176.65,0C1174.3,9.39 1170.56,18.37 1167.77,27.63C1160.17,50.17 1154.61,73.38 1145.6,95.43C1137.05,116.88 1126,137.47 1111.49,155.49C1097.37,173.16 1079.82,187.97 1060.33,199.39C1031.76,216.04 999.83,225.92 967.63,232.71C922.52,242.06 876.48,246 830.56,248.5C826.39,248.99 822.19,249.08 817.99,249.05C811.97,249.01 806,250.06 799.98,250.03C794.96,250.03 789.94,249.97 784.93,250.34C770.98,251.64 756.95,250.51 742.98,251.53C724.63,252.76 706.21,251.12 687.89,252.67C655.89,253.88 623.72,257.83 593.07,267.44C572.76,273.92 553.18,283.24 536.21,296.25C520.77,308.03 507.63,322.66 496.86,338.78C486.51,353.98 478.67,370.66 469.86,386.75C452.62,418.19 434.5,449.58 410.76,476.65C358,533.86 294.51,581.8 223.09,613.18C153.34,644.05 76.12,658.2 0,653.03L0,650.91C22.48,650.92 45.01,651.95 67.42,649.92C113.79,646.31 159.57,635.63 202.86,618.67C276.34,589.92 342.3,543.61 397.11,487.12C424.24,460.46 443.98,427.53 462.49,394.6C473.26,375.64 482.24,355.64 494.44,337.5C505.08,321.52 518.05,307.01 533.21,295.18C547.39,284.09 563.41,275.49 580.21,269.09C613.63,256.39 649.48,251.82 684.97,249.97C698.66,250.09 712.32,249.2 726,248.99C739.35,248.86 752.72,249.37 766.04,248.37C772.69,247.84 779.37,248.02 786.03,247.97C793.29,248 800.49,246.77 807.75,246.98C815.21,247.16 822.59,245.77 830.05,245.93C858.75,244.29 887.45,242.1 915.99,238.51C949.01,234.24 981.99,228.25 1013.58,217.51C1041.02,208.13 1067.46,194.66 1089.12,175.15C1105.34,160.75 1118.67,143.24 1129.08,124.23C1140.39,103.76 1148.51,81.69 1155.09,59.29C1161.06,39.4 1167.31,19.58 1174.26,0Z" style="fill:white;fill-rule:nonzero;"/>
            <path d="M1194.17,0L1196.57,0C1195.74,3.26 1194.43,6.36 1193.48,9.57C1203.59,8.01 1213.74,6.7 1223.95,6.01C1239.47,5.81 1255.06,5.25 1270.51,7.01C1313.01,11.32 1354.47,25.57 1390.6,48.35C1438.99,78.63 1477.65,124.04 1500,176.55L1500,182.87C1496.37,175.72 1493.51,168.2 1489.76,161.11C1471.48,124.63 1444.88,92.43 1412.8,67.25C1372.35,35.42 1322.86,15.23 1271.67,9.83C1256.11,8.34 1240.41,7.08 1224.81,8.79C1215.39,9.2 1206.01,10.34 1196.7,11.78C1194.88,12.23 1192.27,12.1 1191.69,14.35C1189.38,20.59 1187.13,26.87 1185.16,33.23C1197.2,30.91 1209.32,28.72 1221.59,27.97C1228.07,27.83 1234.51,26.97 1241,26.97C1263.26,27.42 1285.56,29.79 1307.13,35.53C1347.58,46.03 1385.3,66.66 1416.12,94.86C1466.38,140.44 1497.8,206.58 1500,274.5L1500,297.46C1498.8,337.4 1487.23,376.86 1467.91,411.78C1447.97,447.6 1419.45,478.62 1385.31,501.35C1350.16,524.98 1309.06,539.59 1266.92,543.67C1254.33,544.52 1241.68,545.78 1229.08,544.52C1189.99,542.83 1151.36,531.9 1117.09,513.03C1080.49,492.94 1048.88,463.87 1025.82,429.06C1002.9,394.75 988.61,354.8 984.2,313.79C982.51,300.59 983.02,287.28 982.97,274.01C983.13,268.12 984.15,262.29 984.26,256.39C977.9,257.52 971.49,258.61 965.26,260.29C963.63,267.07 964.08,274.09 964,281C962.52,335.57 978.27,390.37 1007.86,436.21C1029.67,470.14 1058.96,499.23 1093.05,520.81C1128.1,543.08 1168.23,557.29 1209.49,562.01C1264.93,568.7 1322.31,557.76 1371.63,531.6C1422.84,504.46 1465.25,460.95 1490.78,408.9C1494.1,402.4 1496.77,395.6 1500,389.06L1500,395.37C1471,464.36 1413.19,520.59 1343.34,547.5C1311.44,559.87 1277.24,566.59 1243,566.31C1198.67,567.04 1154.35,556.31 1114.83,536.33C1078.59,517.94 1046.47,491.55 1021.3,459.66C985.44,414.36 964,357.69 961.54,299.93C960.89,293.3 960.9,286.64 961.03,280C961.22,273.66 962.45,267.34 961.82,260.99C955.58,261.59 949.28,262.48 943.21,264.03C941.6,273.26 942.09,282.68 942,292C942.97,320.47 947.28,348.91 955.95,376.08C971.16,424.61 999.15,469.01 1036.14,503.88C1065.56,531.61 1100.59,553.4 1138.58,567.28C1181.17,582.92 1227.35,588.56 1272.45,583.91C1313.76,579.7 1354.17,566.75 1390.18,546.05C1425.65,525.77 1456.91,498.16 1481.37,465.42C1488.12,456.6 1493.97,447.16 1500,437.85L1500,442.37C1463.13,504.26 1402.9,551.73 1334.31,573.66C1261.72,597.21 1180.2,591.96 1111.44,558.74C1074.43,541.09 1041.07,515.78 1014.13,484.87C976.05,441.52 950.8,387.01 942.65,329.87C941,318.3 939.73,306.66 939.84,294.97C939.22,284.72 940.39,274.46 939.79,264.22C933.68,265.08 927.55,265.8 921.46,266.69C920.3,276.4 920.18,286.28 920.75,296.05C922.27,356.5 941.8,416.31 975.83,466.27C999.7,501.35 1030.54,531.69 1066.05,554.91C1111.25,584.52 1164.05,602.48 1217.98,606.24C1229.59,607.6 1241.32,606.78 1252.99,606.97C1300.55,605.28 1347.77,592.96 1389.95,570.85C1423.21,553.53 1453.36,530.28 1478.64,502.59C1486.24,494.45 1493.06,485.64 1500,476.94L1500,480.5C1496.85,486 1492.42,490.62 1488.45,495.52C1462.91,525.72 1431.71,551.07 1397.07,570.11C1356.41,592.47 1310.85,605.78 1264.57,609.01C1253.07,609.33 1241.56,610.71 1230.06,609.53C1183.3,608.11 1136.94,596.07 1095.22,574.94C1064.25,559.13 1035.74,538.45 1011.39,513.61C969.84,471.91 940.21,418.54 926.62,361.28C921.66,340.54 918.91,319.31 917.96,298.03C917.85,287.73 918.25,277.42 917.81,267.13C911.62,267.83 905.34,268.11 899.24,269.4C898.71,279.58 899.13,289.8 899.01,300C900.6,331.64 905.97,363.17 916,393.26C932.65,444.09 961.6,490.78 999.44,528.57C1045.39,574.53 1104.6,607.14 1168.16,620.86C1190.43,625.86 1213.22,628.06 1236,628.99C1279.39,629.22 1322.98,622.02 1363.55,606.41C1415.96,586.58 1463.06,553.38 1500,511.31L1500,514.64C1496.3,520.26 1491.06,524.62 1486.51,529.52C1440.77,575.89 1381.51,608.69 1317.97,622.97C1295,628.02 1271.51,631.25 1247.97,631.13C1162.72,633.64 1077.28,601.93 1013.53,545.41C976.5,512.95 946.58,472.42 926.4,427.5C909.67,390.36 899.7,350.2 896.98,309.57C896.91,300.37 895.64,291.21 896.07,282C896.19,277.81 896.69,273.64 896.56,269.45C890.32,270.01 884.03,270.13 877.85,271.22C876.35,277.01 877.25,283.09 877,289C877.72,319.06 881.3,349.14 889.02,378.24C903.1,432.41 930,483.16 966.82,525.3C1017.89,584.18 1088.32,626 1164.6,642.22C1212.97,652.62 1263.43,653.08 1311.98,643.58C1353.85,635.42 1394.21,619.7 1430.66,597.55C1455.89,582.3 1479.04,563.75 1500,543.05L1500,546.4C1495.16,552.12 1489.2,556.73 1483.78,561.85C1452.48,589.33 1416.53,611.52 1377.84,626.96C1292.59,661.26 1194.45,661.76 1108.86,628.33C1070.77,613.57 1035.21,592.33 1004.09,565.88C966.12,533.72 934.86,493.7 912.68,449.16C896.08,415.67 884.62,379.64 878.91,342.7C876.55,326.57 874.68,310.3 874.91,293.98C874.35,286.38 875.3,278.77 874.82,271.18C868.6,272.11 862.22,271.62 856.07,272.92C854.8,283.57 856.1,294.29 856.02,304.97C859.3,373.9 881.5,441.85 919.81,499.28C965.78,568.79 1034.79,622.74 1113.49,650.24C1151.21,663.58 1191.05,670.71 1231,672C1242.03,671.79 1253.11,672.51 1264.11,671.38C1311.98,668.63 1359.34,656.91 1402.88,636.8C1438.28,620.66 1470.88,598.72 1500,572.98L1500,575.5C1498.08,578.58 1494.99,580.6 1492.4,583.04C1494.92,582.94 1497.45,582.96 1500,582.89L1500,584.9C1495.37,585.76 1489.93,584.77 1486.13,588.11C1479.38,593.68 1472.36,598.9 1465.24,603.98C1476.83,603.94 1488.42,604.21 1500,603.62L1500,605.96C1488.64,606.04 1477.29,606.6 1465.95,606.09C1461.83,605.56 1458.66,608.5 1455.49,610.57C1449.57,614.67 1443.3,618.24 1437.23,622.05C1449.44,623.18 1461.72,622.72 1473.95,623.7C1482.62,624.15 1491.31,623.99 1500,623.94L1500,626.18C1488.34,626.56 1476.69,625.76 1465.03,626.04C1454.22,625.72 1443.38,624.47 1432.6,624.89C1423.47,629.35 1414.64,634.53 1405.31,638.65C1418.18,638.88 1430.94,640.75 1443.8,641.19C1450.81,642.11 1457.9,641.75 1464.93,642.59C1471.26,643.26 1477.63,642.75 1483.98,643.17C1489.31,643.52 1494.65,643.83 1500,644.01L1500,646.02C1490.34,645.94 1480.66,646.39 1471.05,645.32C1449.75,644.62 1428.48,642.98 1407.26,641.03C1404.1,640.84 1400.79,640.56 1397.87,641.98C1366.39,655.88 1333.02,665.53 1298.96,670.44C1297.39,670.81 1295.41,670.91 1294.59,672.52C1289,681.26 1285.94,691.38 1283.94,701.49C1279.46,724.07 1281.31,747.16 1281.05,770.01C1281.6,780.32 1282.34,790.63 1282.01,800.97C1281.97,809.64 1282.59,818.3 1282.11,826.97C1282.29,869.29 1275.21,912.83 1254.13,950.06C1243.3,968.89 1229.66,986.39 1212.62,1000L1208.43,1000C1236.3,978.11 1256.24,947.01 1267.2,913.5C1274.73,890.12 1278.35,865.58 1279.19,841.07C1280.41,827.07 1280.13,812.98 1279.66,798.96C1278.51,786.31 1279.43,773.59 1278.3,760.94C1277.8,748.32 1277.6,735.64 1278.77,723.06C1279.58,705.29 1282.83,687.16 1291.86,671.6C1282.88,672.71 1273.82,673.07 1264.86,674.24C1262.6,678.78 1262.35,684.01 1261.42,688.93C1257.83,715.47 1258.82,742.36 1259.98,769.04C1260,781.35 1260.12,793.66 1259.93,805.97C1259.06,815.8 1259.17,825.7 1257.97,835.51C1255.68,857.79 1251.2,879.97 1243.01,900.87C1235.64,920.1 1225.07,938.09 1212.03,954.03C1195.62,974.35 1173.99,990.47 1149.66,1000L1143.29,1000C1160.43,993.07 1176.95,984.17 1190.97,971.99C1218.05,948.06 1237.1,915.72 1246.82,881.04C1251.3,865.39 1253.93,849.25 1255.54,833.06C1256.2,823.7 1257.34,814.35 1256.99,804.95C1257.54,789.63 1256.88,774.32 1256.99,759C1257.28,746.67 1256.17,734.34 1256.67,722.02C1257.12,713.98 1256.57,705.9 1257.69,697.9C1258.24,689.87 1259.96,682.01 1261.51,674.14C1254.19,674.16 1246.88,674.73 1239.57,674.89C1238.08,681.47 1238.07,688.26 1237.91,694.97C1236.11,721.94 1238.7,748.97 1237.25,775.96C1237.05,799.79 1234.71,823.69 1229.28,846.93C1220.94,883.41 1202.86,917.81 1176.4,944.4C1164.38,956.24 1150.3,965.92 1135.14,973.29C1115.33,982.84 1093.93,988.7 1072.32,992.42C1052.35,995.71 1032.16,997.73 1011.94,998.28C997.99,999.7 983.96,998.63 969.97,999.13C959.31,999.66 948.66,998.8 938,999.01C912.66,999.1 887.33,998.98 862,998.54C847.67,998.59 833.34,999.22 819.01,999C809.47,998.71 800.01,1000.34 790.47,1000L759.2,1000C771.99,997.79 785.04,998.25 797.94,997.01C808.99,997.2 820.01,996.42 831.04,996.02C853.69,995.96 876.33,995.99 898.98,996C929.65,996.71 960.36,997.68 991.04,996.52C1000.71,995.65 1010.46,996.45 1020.11,995.28C1042.32,994.17 1064.52,991.64 1086.27,986.93C1107.7,982.2 1128.73,974.85 1147.56,963.45C1160.67,955.42 1172.71,945.5 1182.65,933.73C1196.67,917.57 1208.12,899.14 1216.17,879.31C1224.71,858.47 1229.72,836.32 1232.26,813.98C1233.73,802.04 1234.15,790.01 1234.96,778.01C1235.02,751.01 1235.02,724 1234.95,696.99C1234.99,689.57 1236.19,682.21 1236.44,674.79C1229.76,674.2 1223.03,673.78 1216.34,674.17C1215,700.74 1215.26,727.4 1215.03,754.01C1213.87,779.69 1211.39,805.51 1204.51,830.37C1195.27,864.49 1177.65,896.54 1152.56,921.55C1137.24,936.95 1118.28,948.38 1098.15,956.32C1062.67,970.22 1024.32,974.46 986.56,976.52C978.72,977.45 970.81,976.7 962.95,977.33C948.99,978.36 934.98,977.93 921,978.01C898.33,978.01 875.66,977.99 853,978.02C838.52,978.19 824.05,979.23 809.57,979.01C801.34,978.8 793.19,980.26 784.97,980.03C737.11,982.5 689.2,987.7 642.45,998.6C640.15,999.13 637.87,999.72 635.53,1000L627.13,1000C635.38,996.97 644.09,995.57 652.62,993.57C699.52,983.51 747.43,978.97 795.27,976.96C806.2,977.23 817.07,975.65 828.01,975.98C841.34,975.92 854.68,976.18 868.01,975.72C891.99,975.63 915.99,975.87 939.96,975.07C949.65,974.83 959.35,975.19 969.04,974.86C975.11,974.42 981.17,973.82 987.27,973.94C1011.66,972.36 1036.12,970.18 1060.03,964.9C1082.09,960.15 1103.77,952.74 1123.16,941.04C1135.63,933.63 1146.84,924.24 1156.61,913.52C1171.78,896.56 1184.25,877.12 1192.88,856.04C1205.38,826.17 1210.29,793.74 1211.96,761.6C1211.86,753.05 1212.95,744.55 1212.98,736.01C1213.16,715.22 1212.64,694.42 1213.33,673.66C1206.9,673.11 1200.46,672.4 1194.03,672C1193.25,686.97 1192.88,701.98 1193.03,716.97C1193.21,724.69 1191.9,732.34 1192.02,740.06C1190.42,764.81 1186.95,789.57 1179.57,813.31C1169.55,845.98 1151.63,876.31 1127.31,900.37C1115.2,911.79 1101.29,921.27 1086.24,928.38C1062.76,939.68 1037.13,945.76 1011.47,949.65C989.42,952.8 967.19,954.67 944.94,955.28C933.65,956.59 922.28,955.59 910.97,956.4C894.33,957.39 877.65,956.88 860.99,957.03C849.65,957.16 838.34,958.17 827,958.02C819.31,957.99 811.61,957.86 803.95,958.6C795.61,959.4 787.21,958.58 778.9,959.69C733.71,961.82 688.53,966.54 644.15,975.57C614.39,981.57 585.1,989.81 556.52,1000L550.01,1000C558.07,996.15 566.7,993.77 575.12,990.87C644.13,968.41 716.8,959.33 789.07,956.63C799.03,955.47 809.06,956.36 819.05,955.59C831.34,954.67 843.67,955.06 855.98,954.99C870.33,954.98 884.65,953.82 899,953.98C908.68,953.95 918.38,954.24 928.04,953.41C936.37,952.58 944.77,953.44 953.08,952.39C977.35,951.12 1001.65,949.01 1025.56,944.51C1045.32,940.85 1064.83,935.36 1083.11,926.92C1101.54,918.36 1118.61,906.51 1132.24,891.37C1155.98,865.39 1172.54,833.18 1180.78,799.02C1187.22,772.54 1189.77,745.23 1190.16,718.03C1191.09,702.54 1191.34,686.98 1190.7,671.49C1184.21,670.44 1177.72,669.31 1171.19,668.57C1170.71,677.35 1171.46,686.17 1170.59,694.94C1169.76,702.08 1170.38,709.3 1169.44,716.43C1167.52,744.2 1163.11,772.01 1153.65,798.29C1142.54,829.23 1124.53,857.92 1100.43,880.39C1085.2,894.25 1067.03,904.61 1047.85,911.95C1004.54,928.3 957.8,931.51 912.01,934.03C902.35,933.68 892.77,935.35 883.11,935.02C871.72,934.7 860.37,936.32 848.98,936.01C840.97,935.9 832.96,936.16 824.98,936.79C816.31,937.35 807.6,936.6 798.95,937.55C790.95,938.39 782.88,937.63 774.91,938.69C727.66,941.06 680.4,945.7 633.95,954.97C585.63,964.48 538.3,979.27 493.6,1000L488.13,1000C512.45,987.71 538.1,978.21 564.03,969.94C632.24,948.4 703.76,939.53 774.96,935.97C782.67,936.15 790.3,934.68 798,934.97C807.98,935.25 817.9,933.59 827.89,933.98C839.7,934.31 851.46,932.71 863.27,932.99C869.56,933.06 875.85,932.97 882.12,932.4C891.15,931.52 900.24,932.51 909.26,931.4C949.9,929.54 990.99,926.52 1030.24,915.08C1051.98,908.61 1073.03,899 1090.92,884.92C1102.51,875.92 1112.36,864.9 1121.16,853.21C1132.53,838.11 1141.78,821.44 1148.71,803.86C1157.59,781.17 1162.68,757.13 1165.28,732.95C1166.61,722.34 1166.89,711.66 1167.83,701.03C1168.18,694.7 1167.74,688.35 1168.35,682.04C1168.54,677.35 1169.46,672.59 1168.55,667.93C1161.96,666.53 1155.4,664.89 1148.78,663.76C1147.57,670.97 1148.48,678.32 1147.52,685.56C1145.89,710.13 1142.67,734.73 1135.85,758.44C1126.72,790.99 1110.24,821.52 1087.56,846.63C1074.88,861 1059.12,872.48 1042.09,881.18C1022.08,891.28 1000.39,897.66 978.46,902C942.41,909.15 905.61,911.12 869,913.04C860.11,912.69 851.29,914.33 842.4,914.02C834.05,913.82 825.76,915.29 817.4,915.03C809.1,914.77 800.87,916.31 792.57,916.03C741.41,918.48 690.15,922.23 639.62,931.09C570.16,943.23 501.62,964.51 440.38,1000L435.21,1000C480.5,972.95 530.3,954.01 581.29,940.89C646.83,923.87 714.55,917.17 782,913.96C789.4,914.15 796.73,912.75 804.13,912.97C812.36,913.22 820.53,911.74 828.76,911.97C838.28,912.24 847.74,910.58 857.27,910.97C904.12,908.52 951.53,906.74 997.2,894.96C1019.5,889.1 1041.31,880.43 1060.29,867.18C1074.35,857.55 1086.28,845.14 1096.52,831.58C1118.45,803.26 1132.29,769.26 1138.87,734.19C1143.2,712.35 1144.6,690.09 1146,667.93C1145.98,666.22 1146,664.48 1145.47,662.85C1138.81,660.86 1132.11,658.9 1125.35,657.32C1122.96,698.73 1115.24,740.7 1095.81,777.74C1086.91,794.77 1075.77,810.62 1062.89,824.87C1052.58,836.13 1040.52,845.73 1027.35,853.42C1008.53,864.43 987.74,871.65 966.61,876.73C927.59,885.87 887.45,888.6 847.58,891.02C839.02,891.1 830.53,892.27 821.97,892.19C812.98,893.33 803.9,892.68 794.91,893.76C715.15,897.45 634.84,904.42 557.59,925.8C508.56,939.16 460.86,958.1 417.24,984.34C408.86,989.29 400.76,994.68 392.61,1000L388.21,1000C428.4,971.77 473.1,950.22 519.6,934.6C569.65,917.67 621.66,906.96 674.07,900.6C714.46,895.52 755.12,893.11 795.74,890.97C802.71,891.18 809.61,889.86 816.59,889.96C823.75,890 830.84,888.7 838.01,888.94C884.21,886.05 930.95,883.72 975.86,871.55C997.52,865.62 1018.66,856.97 1037.09,843.98C1051.73,833.91 1063.93,820.74 1074.5,806.54C1096.27,777.71 1110.05,743.38 1116.59,707.97C1119.73,690.95 1121.83,673.69 1122.82,656.43C1115.86,653.85 1108.88,651.19 1101.75,649.16C1097.73,689.38 1087.78,729.78 1066.78,764.69C1055.85,782.79 1042.86,799.89 1026.95,813.91C1000.77,836.77 967.16,848.92 933.61,856.05C886.78,865.85 838.84,867.87 791.26,871.02C743.76,873.73 696.22,877.01 649.06,883.62C591.6,891.58 534.71,904.87 480.53,925.76C433.47,943.78 389.09,968.83 349.48,1000L345.25,1000C390.45,963.66 442.25,935.81 497,916.83C548.52,898.6 602.23,887.05 656.36,879.92C706.04,873.29 756.1,870.43 806.08,867.44C849.3,864.6 892.81,862.13 935.27,852.93C954.98,848.51 974.52,842.64 992.57,833.45C1008.42,825.64 1023.03,815.19 1035.18,802.33C1060.28,775.66 1078.42,742.66 1088.29,707.43C1092.73,691.93 1095.7,676.04 1097.78,660.05C1098.11,655.96 1099.51,651.8 1098.55,647.72C1095.42,645.99 1091.98,644.94 1088.74,643.46C1085.04,641.97 1081.51,639.93 1077.58,639.14C1074.31,661.55 1069.3,683.8 1061.12,704.97C1053.32,725.46 1042.57,744.81 1029.38,762.33C1020.79,773.6 1011.52,784.49 1000.46,793.43C985.8,805.52 968.83,814.57 951.12,821.3C929.66,829.43 907.13,834.37 884.5,837.93C838.93,845 792.82,847.1 746.9,850.63C693.16,854.6 639.35,859.82 586.46,870.47C549.15,877.88 512.34,887.88 476.62,900.94C446.92,911.75 417.99,924.77 390.74,940.82C362.87,957.09 336.62,976.11 312.32,997.33C311.2,998.27 310.04,999.15 308.84,1000L305.26,1000C328.28,979.29 353.17,960.65 379.54,944.41C408.91,926.23 440.28,911.41 472.69,899.52C533.66,876.78 597.78,863.45 662.29,855.82C715.05,849.39 768.15,846.76 821.09,842.51C864.08,838.59 907.71,834.28 948.54,819.39C967.17,812.52 985,803.03 1000.19,790.15C1011.48,780.8 1020.79,769.33 1029.51,757.62C1050.78,728.65 1064.5,694.59 1071.35,659.42C1072.57,652.15 1074.59,644.91 1074.79,637.53C1070.26,634.45 1064.94,632.74 1060.28,629.87C1057.79,629.07 1055.94,626.73 1053.3,626.55C1049.32,647.35 1043.94,667.98 1035.63,687.51C1027.88,706.04 1017.77,723.57 1005.63,739.57C995.48,752.95 984.07,765.57 970.44,775.48C952.83,788.46 932.55,797.38 911.71,803.74C866.95,817.14 820.09,820.64 773.79,824.77C714.66,829.41 655.37,833.85 596.89,844.16C557.3,851.05 518.15,860.6 480.06,873.41C446.79,884.8 414.03,898.11 383.34,915.38C346.8,935.74 313.02,960.9 282.43,989.39C278.62,992.96 275.07,996.83 270.91,1000L267.46,1000C311.85,956.01 363.54,919.02 420.76,893.61C483.96,865.45 551.48,847.88 619.8,837.7C679.54,828.56 739.91,825.12 800.04,819.79C844.86,815.34 890.5,810.48 932.59,793.43C952.64,785.08 971.65,773.52 986.68,757.68C1010.51,732.76 1028.52,702.38 1039.49,669.71C1043.87,657.01 1047.06,643.92 1049.74,630.77C1050.08,628.8 1050.54,626.82 1050.45,624.82C1043.35,620.28 1036.07,615.91 1028.82,611.61C1021.09,649.04 1005.93,685.17 982.73,715.68C972.88,728.69 962.09,741.18 948.92,750.97C932.58,763.42 913.78,772.33 894.31,778.7C872.31,786.09 849.43,790.44 826.51,793.86C774.07,801.35 721.1,804.05 668.48,809.95C598.17,817.37 528,829.88 461.12,853.3C427.06,865.27 393.66,879.44 362.29,897.39C330.62,915.6 301.09,937.45 273.92,961.87C260.25,973.89 247.73,987.15 234.85,1000L231.46,1000C235.08,995.82 239.49,992.29 242.65,987.75C242.09,983.94 240.3,980.43 239.02,976.84C225.16,940.62 207.5,905.33 182.33,875.58C160.54,849.47 132.58,828.95 102.14,813.99C80.57,803.11 57.92,794.58 35.38,785.98C23.59,781.33 11.52,777.36 0,772.08L0,769.61C39.82,785.32 80.94,798.45 118.37,819.57C147.23,835.78 172.87,857.78 192.76,884.29C215.3,914.03 231.53,948.07 244.15,983.06C244.46,983.87 244.81,984.67 245.21,985.47C250.12,981 254.68,976.11 259.56,971.59C260.68,970.12 263.36,968.79 262.31,966.63C248.6,929.14 230.98,892.51 205.47,861.53C193.24,846.82 179.37,833.42 163.93,822.11C136.67,801.96 105.31,788.41 73.86,776.28C54.15,768.66 34.28,761.43 14.72,753.44C9.76,751.39 4.7,749.56 0,746.96L0,744.54C18.63,752.18 37.33,759.63 56.2,766.66C93.12,780.65 130.63,794.84 162.92,818.06C192.89,839.35 217.04,868.1 235.04,900.02C245.54,918.64 254.48,938.13 261.98,958.14C263.04,960.72 263.76,963.46 265.12,965.93C269.46,962.68 273.19,958.7 277.37,955.26C279.31,953.55 281.47,952.01 282.92,949.84C278.48,936 272.52,922.65 266.45,909.45C249.43,873.03 226.25,838.76 194.85,813.23C166.94,790.18 133.67,774.95 100.17,761.95C76.18,752.58 51.92,743.91 28.19,733.91C18.73,729.75 9.03,726.01 0,720.96L0,718.52C17.44,726.39 34.96,734.13 52.84,740.96C94.86,757.45 138.53,771.37 176.51,796.39C205.44,815.26 229.66,840.9 248.02,870.08C263.6,894.4 275.31,920.94 285.43,947.92C291.66,943.33 297.64,938.36 303.58,933.41C303.69,932.19 303.23,931.02 302.89,929.89C290.94,897.9 276.23,866.63 255.9,839.05C242.47,820.77 226.49,804.33 208.3,790.76C179.02,768.6 144.78,754.5 110.71,741.53C73.19,727.21 35.14,713.53 0,693.86L0,691.39C12.34,697.13 24.26,703.76 36.77,709.14C75.06,726.5 115.3,739.04 153.68,756.18C175.04,765.81 195.72,777.26 214.13,791.83C242.86,814.2 265.22,843.87 282.03,875.98C291.56,893.77 299.19,912.5 306.35,931.33C312.52,926.76 318.98,922.52 324.85,917.58C324.74,916.03 324.24,914.56 323.76,913.12C310.79,878.22 294.43,844.11 271.12,814.86C257.42,797.68 241.32,782.38 223.28,769.82C193.49,748.86 159.3,735.59 125.46,722.76C94.01,710.91 62.5,698.93 32.58,683.53C28.88,681.74 25.34,679.04 21.06,679.06C14.04,678.85 7,679.33 0,678.62L0,676.21C4.31,675.75 8.65,676.04 12.96,676.37C24.97,677.23 37.04,677.21 49.05,676.29C55.4,675.76 61.8,676.25 68.13,675.4C148.06,669.88 227.08,646.81 296.31,606.23C364.96,566.14 423.45,508.73 464.54,440.66C483.46,409.7 499.25,376.6 522.25,348.32C535.43,332.04 551.38,317.94 569.51,307.4C604.91,286.79 646.19,279.28 686.58,276.5C694.7,275.58 702.89,276.19 711.04,275.51C726.35,274.41 741.73,275.62 757.04,274.37C763.39,273.86 769.77,274 776.14,273.97C784.02,274.05 791.86,272.74 799.75,272.98C807.9,273.22 815.98,271.7 824.13,271.96C879.21,268.73 934.64,264.89 988.56,252.45C1018.02,245.55 1047.18,235.81 1073.17,220.06C1092.05,208.64 1108.96,193.92 1122.46,176.45C1136.56,158.38 1147.16,137.8 1155.33,116.45C1162.19,98.96 1166.78,80.72 1172.53,62.86C1179.23,41.74 1186.23,20.69 1194.17,0M1185.65,35.87C1183.98,36.27 1183.28,37.99 1182.88,39.47C1180.96,45.56 1178.75,51.56 1177.12,57.73C1232.46,42 1293.56,47.2 1345.24,72.63C1380.38,89.61 1411.07,115.56 1433.93,147.16C1459.33,182.16 1474.87,224.26 1478.05,267.39C1478.47,277.23 1479.67,287.09 1478.46,296.93C1477.26,329.82 1468.63,362.37 1453.98,391.82C1435.84,428.22 1408.14,459.76 1374.49,482.57C1338.16,507.21 1294.86,521.5 1250.99,523.05C1240.96,522.72 1230.86,523.68 1220.89,522.28C1164.7,517.84 1110.73,491.88 1071.57,451.44C1037.26,416.32 1014.26,370.3 1007.06,321.71C1003.64,298.27 1003.62,274.3 1007,250.85C1000.42,252.09 993.97,253.98 987.48,255.57C985.74,263.23 986.24,271.13 985.48,278.91C984.75,287.28 985.91,295.62 986.04,303.99C988.83,345.12 1001.85,385.52 1023.58,420.56C1045.8,456.58 1077.09,486.93 1113.76,508.06C1152.22,530.18 1196.58,542.5 1241,541.99C1286,542.72 1330.98,530.28 1369.9,507.79C1404.88,487.54 1434.96,458.92 1456.86,424.94C1480.94,387.81 1495.1,344.29 1497.36,300.1C1498.29,290.41 1498.29,280.59 1497.26,270.9C1494.83,225.39 1479.62,180.67 1454.09,142.93C1433.67,112.6 1406.67,86.75 1375.52,67.61C1338.45,44.78 1295.47,31.74 1252,30.01C1241.05,30.23 1230.05,29.37 1219.17,30.87C1207.88,31.65 1196.74,33.7 1185.65,35.87M1196.78,55.79C1189.89,57.35 1182.74,58.4 1176.19,61.06C1173.29,68.11 1171.52,75.64 1169.2,82.91C1207.1,69.33 1248.8,67.04 1288.09,75.47C1330.61,84.76 1370.07,107.39 1399.56,139.39C1424.81,166.38 1442.81,200.06 1451.32,236.02C1461.7,279.61 1458.2,326.42 1441.08,367.87C1426.04,404.66 1400.53,437.07 1368.37,460.4C1333.62,485.81 1291.01,500.52 1247.94,501.38C1201.81,503.1 1155.33,489.1 1117.67,462.44C1082.67,437.82 1055.13,402.65 1040.03,362.58C1031.01,339.15 1026.52,314.08 1025.96,289.02C1025.59,273.68 1027.65,258.43 1030.05,243.33C1023.94,245.21 1017.93,247.4 1011.78,249.12C1010.13,249.2 1009.78,250.92 1009.47,252.22C1003.53,291.88 1008.34,333.02 1022.73,370.45C1038.66,411.78 1066.56,448.41 1102.24,474.67C1137.18,500.72 1179.58,516.39 1222.99,519.9C1232.49,520.13 1241.99,521.4 1251.5,520.28C1279.78,519.3 1307.82,512.81 1333.84,501.71C1374.46,484.41 1409.9,455.27 1434.88,418.88C1459.83,382.88 1474.11,339.71 1475.99,295.99C1476.11,282.57 1476.25,269.13 1474.17,255.83C1466.93,197.21 1436.1,142.05 1390.37,104.73C1357.25,77.41 1316.46,59.52 1273.91,53.7C1263.68,52.07 1253.33,51.94 1243.02,51.33C1227.52,51.65 1212,52.69 1196.78,55.79M1188.64,79.79C1181.84,81.75 1174.79,83.24 1168.4,86.33C1165.53,94.05 1163.67,102.14 1160.59,109.8C1179.32,101.09 1199.5,95.6 1220.02,93.26C1231.28,92.36 1242.63,91.2 1253.92,92.58C1305.86,95.36 1355.95,120.77 1389.41,160.5C1418.75,194.82 1435.7,239.77 1435.31,285C1435.92,316.61 1428.02,348.24 1413.34,376.19C1395.55,410.13 1367.47,438.56 1333.73,456.72C1294.53,478.06 1247.83,485.07 1204.1,476.33C1162.95,468.38 1124.68,446.46 1096.88,415.13C1067.8,382.82 1050.24,340.42 1047.96,297.02C1048.04,289.22 1047.92,281.41 1047.99,273.62C1048.99,259.93 1051.2,246.32 1054.98,233.12C1047.83,236.28 1040.45,239.01 1033.39,242.32C1028.6,262.18 1028.29,282.8 1029.28,303.11C1031.67,330.16 1038.86,356.81 1051.05,381.1C1069.2,417.4 1097.93,448.31 1132.81,469.06C1171.68,492.22 1218.12,502.67 1263.12,497.86C1305.25,493.68 1345.96,476.49 1378.33,449.2C1407.27,424.96 1429.65,392.93 1442.24,357.32C1456.8,316.56 1458.38,271.37 1446.93,229.65C1436.42,191.1 1414.69,155.71 1385.12,128.85C1353.13,99.41 1311.83,80.23 1268.68,74.85C1242.01,71.11 1214.71,73.21 1188.64,79.79M1162.64,111.75C1161.25,112.49 1159.34,112.9 1158.91,114.62C1155.46,123.88 1151.57,132.96 1147.19,141.81C1172.68,125.19 1202.58,115.35 1232.99,113.95C1239.68,114.07 1246.37,113.87 1253.07,114.01C1261.41,114.77 1269.77,115.77 1277.97,117.59C1318.42,126.11 1355.24,150.04 1379.85,183.21C1406.62,218.79 1418.51,265.08 1412.35,309.14C1407.22,348.24 1388.03,385.27 1359.05,412.01C1327.07,442.13 1283,459.49 1239,458.01C1217.88,458.44 1196.88,453.58 1177.28,445.93C1137.72,430.11 1104.53,399.01 1086.23,360.54C1064.47,315.83 1063.72,261.63 1084.01,216.26C1075.91,221.99 1067.12,226.62 1058.47,231.41C1052.73,248.29 1051.04,266.26 1050.03,283.98C1049.74,290.15 1050.81,296.26 1051.05,302.4C1054.97,351.76 1079.34,399 1116.98,431.11C1151.33,460.7 1196.56,477.88 1242,477.05C1292.62,477.8 1342.73,456.11 1378.07,420.05C1406.76,390.86 1425.84,352.31 1431.13,311.68C1434.81,287.1 1432.81,261.91 1426.73,237.87C1416.47,198.09 1392.89,161.88 1360.68,136.39C1326.54,109.12 1282.76,93.76 1239,95C1212.73,94.75 1186.59,101.12 1162.64,111.75M1227.6,117.02C1198.68,119.22 1170.48,129.34 1146.49,145.58C1143.82,147.33 1142.76,150.48 1141.19,153.1C1128.9,174.87 1112.71,194.66 1092.75,209.82C1090.73,211.37 1088.38,212.79 1087.4,215.26C1076.39,239.18 1071.12,265.69 1072.01,292C1072.95,317.53 1079.67,342.87 1091.69,365.45C1109.65,399.42 1139.47,426.94 1174.85,441.98C1196.28,451.38 1219.71,455.51 1243.02,455.95C1248.07,455.82 1253.07,455.02 1258.12,454.87C1281.02,452.63 1303.49,445.71 1323.62,434.51C1355.28,417.02 1381.13,389.16 1396.04,356.18C1410.71,324.32 1414.69,287.86 1408.08,253.49C1400.72,215.07 1379.4,179.62 1349.13,154.88C1315.6,127.11 1270.97,113.12 1227.6,117.02M809.98,275.08C825.24,282.42 839.85,291.17 853.23,301.59C852.58,292.12 853.32,282.61 852.85,273.14C846.89,272.52 841,273.84 835.07,274.02C826.68,273.78 818.38,275.46 809.98,275.08M791.99,276.03C779.38,275.48 766.84,277.63 754.24,276.93C782.39,287.44 810.22,300.22 833.6,319.42C842.1,326.23 849.6,334.13 857.02,342.07C855.46,331.4 853.99,320.67 853.88,309.88C853.68,307.87 853.89,305.37 851.93,304.15C838.3,293.13 823.04,284.28 807.23,276.8C802.5,274.17 797.05,276.46 791.99,276.03M695.07,278.5C725.54,290.67 757.09,300.77 785.59,317.34C804.31,328.19 821.46,341.92 835.53,358.4C859.09,385.62 874.75,418.68 886.66,452.4C900.38,493.09 915.49,533.48 935.38,571.61C954.05,607.12 977.28,640.98 1008.16,666.98C1011.81,659.08 1015.52,650.91 1017.38,642.42C1013.29,637.94 1008.72,633.9 1004.61,629.42C981.64,604.58 963.61,575.59 948.61,545.38C946.59,541.45 945.06,537.21 942.15,533.82C898.83,481.7 869.45,418 858.39,351.11C857.71,344.84 851.86,341.21 848.18,336.66C834.94,322.66 819.36,310.97 802.52,301.64C785.85,292.21 768.02,285.05 750.21,278.09C746.31,276.39 742,277.33 737.91,277.44C723.65,278.66 709.33,277.39 695.07,278.5M646.25,283.53C658.19,288.81 670.36,293.57 682.55,298.24C717.81,311.71 754.28,324.22 784.73,347.2C801.99,360.17 816.94,376.14 829.09,393.97C847.05,420.23 859.52,449.81 869.44,479.91C884.01,522.11 900.31,563.95 922.24,602.93C941.21,636.44 964.92,668.04 995.61,691.65C999.75,684.65 1003.57,677.44 1006.91,670.03C1006.26,669.02 1005.4,668.19 1004.55,667.39C989.96,654.98 977.17,640.58 965.66,625.31C937.07,586.94 917.16,542.98 900.19,498.48C890.04,472.49 882.59,445.47 870.82,420.13C855.87,386.96 834.75,355.69 805.36,333.68C773.65,309.43 735.2,297.07 698.44,282.79C694.67,281.5 691.09,279.34 687.07,279.02C673.41,279.94 659.84,281.94 646.25,283.53M609.27,292.6C623.07,299.54 637.48,305.24 651.84,310.9C686.61,324.5 722.7,336.09 754.05,356.9C770.84,368.03 785.93,381.74 798.42,397.55C821.68,426.72 836.9,461.35 848.58,496.54C863.19,539.08 879.6,581.23 901.62,620.56C921.6,656.14 947.04,689.45 980.02,713.9C982.26,712.59 983.4,710.06 984.98,708.09C987.96,703.46 991.48,699.13 993.84,694.14C984.19,685.86 974.39,677.65 965.91,668.14C950.49,651.77 937.27,633.44 925.7,614.2C898.43,568.78 879.82,518.88 862.84,468.9C850.27,433.85 833.59,399.46 808.12,371.89C794.69,357.38 778.96,345.08 761.77,335.33C726.26,315.09 686.58,304.14 649.32,287.79C646.01,286.45 642.64,284.28 638.92,285.2C628.91,287.13 619.1,289.92 609.27,292.6M579.87,304.99C600.87,315.9 623.08,324.31 645.16,332.76C680.07,345.95 715.93,359.05 745.51,382.47C775.56,405.77 797.01,438.38 812.23,472.87C819.92,489.87 825.82,507.58 831.87,525.2C846.45,566.46 862.94,607.27 885,645.15C905.1,679.47 930.4,711.56 962.97,734.81C968.6,729.1 974,722.99 978.53,716.36C951.48,695.79 928.87,669.77 910.77,641.09C882.83,597 863.58,548.13 846.59,498.98C835.1,464.31 820.4,430.09 797.79,401.11C784.18,383.5 767.4,368.41 748.57,356.56C714.3,334.95 675.06,323.6 637.88,308.25C626.99,304.01 616.46,298.86 605.74,294.29C596.74,296.65 588.1,300.64 579.87,304.99M571.98,309.02C566.49,312.47 560.72,315.61 555.84,319.92C556.66,320.49 557.52,321.01 558.42,321.46C578.72,331.53 599.79,339.92 620.96,347.92C655.94,361.19 691.92,374.06 721.94,397.04C752.67,420.2 774.92,452.88 790.48,487.73C799.23,506.56 805.57,526.35 812.41,545.91C818.27,562.38 824.45,578.75 831.18,594.89C849.34,638.3 871.29,680.84 902.45,716.47C914.39,729.72 927.2,742.44 941.84,752.67C948.71,748.18 955.09,742.83 960.86,737C951.63,729.66 942.35,722.33 934.06,713.92C916.87,697.11 902.16,677.9 889.38,657.57C860.04,610.61 840.25,558.51 822.5,506.3C809.69,469.7 792.5,433.79 766.05,405C752.47,390.31 736.5,377.9 719.15,367.98C700.78,357.36 681.07,349.37 661.31,341.77C633.4,331.14 605.24,320.94 578.53,307.49C576.28,305.92 573.97,308.04 571.98,309.02M543.62,329.67C540.97,332.07 538.04,334.31 536.15,337.39C551.64,345.06 567.6,351.78 583.71,358.06C617.17,371.27 651.83,382.34 682.71,401.18C699.77,411.57 715.46,424.34 728.63,439.39C754.47,468.61 771.35,504.5 784.11,541.05C794.79,572.82 806.44,604.31 820.36,634.82C839.97,677.73 864.42,719.39 898.85,752.15C904.35,757.36 909.82,762.77 916.14,766.99C924.42,764.07 931.86,759.1 939.33,754.56C934.63,750.61 929.63,747.02 925.09,742.88C891.09,713.25 866.03,674.8 846.24,634.61C828.46,598.73 814.55,561.09 801.71,523.2C789.52,488.56 773.52,454.6 749.43,426.57C734.94,409.86 717.63,395.64 698.44,384.65C663.71,364.61 624.94,353.43 588.18,337.89C576.26,333.11 564.74,327.36 553.06,322.07C549.52,324.07 546.71,327.08 543.62,329.67M523.78,350.67C522.57,352.49 520.31,353.99 520.32,356.36C539.92,365.77 560.24,373.58 580.56,381.28C615.51,394.5 651.31,407.74 681.03,431.02C711.28,454.37 733.25,486.84 748.78,521.43C757.52,540.23 763.98,559.94 770.72,579.51C781.38,609.3 792.8,638.89 806.89,667.25C812.41,676.12 818.3,684.78 823.02,694.13C827.73,702.52 830.77,711.8 836.43,719.64C848.54,737.78 862.22,754.93 877.94,770.08C880.85,772.81 883.52,775.95 887.02,777.98C896.09,775.83 904.76,772.16 913.37,768.6C893.55,752.48 876.08,733.51 861.28,712.7C827.45,665.07 805.46,610.37 786.21,555.57C779.34,534.88 771.83,514.34 762,494.85C746.44,463.19 724.73,433.91 695.86,413.2C661.09,387.73 619.32,375.17 579.74,359.39C564.19,353.4 548.98,346.53 533.9,339.46C530.07,342.74 527.09,346.9 523.78,350.67M510.2,369.12C508.83,371.27 507.05,373.24 506.26,375.7L506.62,376.2C543.11,393.01 581.9,404.32 618.11,421.78C636.12,430.66 653.38,441.28 668.47,454.6C696.99,479.2 716.91,512.17 731.6,546.51C739.98,565.84 746.09,586.02 753.29,605.8C754.47,608.74 754.97,612.25 757.54,614.38C772.86,626.91 786.85,641.11 798.92,656.8C790.97,639.95 783.96,622.68 777.33,605.28C765.28,574.37 756.62,542.08 741.5,512.42C725.61,479.81 703.17,449.78 673.38,428.66C638.59,403.62 597.12,391.06 557.73,375.39C544.29,370.25 531.19,364.27 518.04,358.49C514.95,361.65 512.77,365.56 510.2,369.12M504.3,378.39C500.44,384.06 496.99,390.03 493.61,396C496.61,397.94 500.24,398.89 503.52,400.37C541.89,416.37 582.36,428.08 618.12,449.76C635.83,460.49 652.03,473.78 665.68,489.36C690.57,517.59 707.35,551.93 720.04,587.1C720.7,589.86 723.54,590.88 725.71,592.23C734.86,597.46 743.48,603.58 751.95,609.85C742.37,583.71 734.41,556.89 721.97,531.89C706.18,498.96 684.09,468.36 654.39,446.66C620.46,421.46 579.7,408.6 540.79,393.38C528.46,388.8 516.46,383.34 504.3,378.39M492.21,398.73C488.5,404.44 484.91,410.37 482.13,416.59C518.29,431.68 556.23,442.95 590.46,462.36C608.34,472.47 624.92,484.98 639.05,499.92C658.94,520.52 673.95,545.33 685.9,571.23C686.92,574.26 690.45,574.65 692.97,575.88C701.22,579.08 709.02,583.27 717.02,587.01C713.95,577.7 710.04,568.68 706.17,559.69C690.74,524.85 669.42,491.7 639.28,467.82C608.86,443.16 571.66,429.44 535.45,415.76C520.92,410.38 506.56,404.52 492.21,398.73M480.44,419.12C476.92,424.88 473.35,430.68 470.33,436.72C503.53,450 537.93,460.91 569.15,478.67C585.8,488.1 601.29,499.63 614.87,513.13C629,527.37 640.99,543.64 651.04,560.98C652.22,563.41 655.18,563.48 657.46,564.19C666.17,566.17 674.61,569.12 683.08,571.91C667.48,536.91 644.75,504.35 614,481.05C583.46,457.66 546.9,444.42 511.29,430.94C500.94,427.18 490.82,422.77 480.44,419.12M468.52,439.3C465.11,445.07 461.23,450.59 458.1,456.52C496.46,471.35 536.34,484.49 569.8,509.15C587.2,521.89 602.57,537.42 615.2,554.9C616.18,556.16 617.22,557.78 619.06,557.69C629.05,558.46 639.02,559.93 648.78,562.24C640.75,548.94 632.01,535.98 621.63,524.38C609.21,510.03 594.5,497.74 578.55,487.5C545.8,466.54 508.48,454.69 472.57,440.48C471.25,439.98 469.92,439.48 468.52,439.3M456.35,458.94C452.33,464.43 448.61,470.16 444.6,475.68C479.02,489.09 514.53,501.4 544.94,522.96C558.87,532.48 571.11,544.19 582.5,556.56C585.64,557.03 588.84,556.46 592.01,556.47C599.05,556.14 606.07,557.32 613.11,556.91C595.35,531.25 570.82,510.59 543.51,495.65C524.45,485.1 504.19,476.98 483.87,469.22C474.68,465.86 465.62,462 456.35,458.94M439.06,483.02C436.22,486.98 432.91,490.6 430.19,494.65C455.93,504.49 481.93,514.17 505.86,528.01C520.82,536.56 534.81,546.81 547.37,558.63C548.74,560.32 550.93,560.09 552.87,559.77C561.44,558.32 570.1,557.39 578.77,556.86C567.78,544 554.71,532.86 540.73,523.31C510.9,503.13 476.75,490.76 443.24,478.29C441.32,479.31 440.43,481.44 439.06,483.02M417.89,508.97C416.92,510.32 415.08,511.49 415.32,513.36C443.22,524.02 471.29,535.07 496.35,551.57C504.05,556.36 510.96,562.29 518.27,567.61C527.23,565.25 536.19,562.77 545.3,561C544.75,559.06 542.66,558.15 541.37,556.77C524.81,541.92 505.76,530.07 485.77,520.45C468.96,512.39 451.55,505.67 434.15,499.02C432.2,498.3 430.31,497.36 428.22,497.16C424.47,500.81 421.53,505.21 417.89,508.97M412.42,515.45C407.44,520.43 402.53,525.57 397.99,530.96C408.06,535.32 418.45,538.96 428.49,543.43C449.2,552.4 469.43,562.88 487.39,576.66C488.47,577.32 489.69,578.63 491.06,577.85C498.87,574.43 506.9,571.58 514.92,568.72C492.09,549.35 464.92,535.96 437.3,524.84C429.02,521.71 420.92,517.91 412.42,515.45M395.4,533.4C390.08,538.44 384.61,543.34 379.43,548.53C408.67,559.64 437.78,572.18 463.14,590.77C464.38,591.83 465.77,590.49 466.93,589.99C473.36,586.14 480.17,582.99 486.87,579.65C462.68,560.81 434.39,548.23 406.01,537.15C402.49,535.85 399.1,534.06 395.4,533.4M951.03,544.2C968.46,579.23 989.99,612.85 1018.7,639.75C1021.34,630.66 1024.33,621.56 1025.73,612.2C1020.44,604.45 1011.91,600.07 1004.8,594.27C985.32,579.35 967.39,562.46 951.03,544.2M360.01,565.33C376.56,572.04 393.22,578.61 409.04,586.96C420.24,592.56 430.79,599.35 441.12,606.37C443.59,605.24 445.63,603.37 447.89,601.89C452.17,598.68 456.98,596.24 461.23,592.99C456.69,589.01 451.41,586 446.35,582.75C425.63,569.95 403.07,560.55 380.44,551.71C379.38,551.3 378.29,551.01 377.18,550.86C371.18,555.32 365.78,560.57 360.01,565.33M545.62,563.76C506.19,571.23 468.71,588.43 437.09,613.12C408.04,635.91 383.72,664.86 366.9,697.77C349.43,731.42 339.69,769.08 338.65,806.97C337.72,815.64 339.05,824.31 339.06,832.99C340.69,855.65 345.4,878.06 352.72,899.56C358.66,896.63 364.39,893.2 370.03,889.74C370.15,888.4 369.44,887.2 369.08,885.98C363.83,869.56 360.63,852.52 359.02,835.37C358.73,825.27 357.27,815.17 358.47,805.07C360.03,761.11 374.54,717.75 399.47,681.53C421.85,648.75 452.66,621.82 488.11,603.97C517.8,588.9 550.76,580.43 584,578.95C594.34,579.29 604.75,578.31 615.04,579.7C673.31,584.39 729.26,612.17 768.51,655.44C802.73,692.38 824.32,740.66 829.38,790.74C835.82,789.74 842.3,788.75 848.68,787.44C842.01,719.39 805.78,655.11 751.83,613.26C716.83,585.82 674.54,567.73 630.48,561.62C602.34,557.41 573.53,558.31 545.62,563.76M357.31,567.64C350.94,572.02 345.22,577.31 338.69,581.48C340.17,582.79 342.32,582.82 344,583.83C362.51,591.05 380.78,599.04 398.06,608.89C405.93,613.14 413.14,618.51 420.68,623.24C426.57,618.11 432.82,613.27 438.7,608.22C416.07,591.62 390.14,580.26 364.18,569.94C361.91,569.12 359.73,567.93 357.31,567.64M578.06,582.03C544.29,584.28 510.99,594.09 481.4,610.56C446.82,629.66 417.24,657.69 396.34,691.21C374.93,725.22 362.78,764.9 361.01,805.01C361,812 361.01,819 361,826C362.19,847.16 366.01,868.19 372.59,888.35C377.82,886.09 382.75,883.09 387.92,880.67C388.66,880.06 390.4,879.84 390.17,878.6C384.51,859.61 380.73,839.84 380.86,819.96C379.71,790.01 385.57,759.92 397.12,732.29C412.34,695.87 437.97,663.91 470.07,640.97C502.93,617.37 542.66,603.36 583.09,601.5C594.67,600.2 606.3,601.56 617.85,602.4C656.71,606.6 694.29,621.78 725.15,645.77C751.51,666.13 773.01,692.73 787.36,722.79C798.17,745.04 804.46,769.27 807.36,793.78C813.77,792.88 820.23,792.17 826.63,791.15C825.38,776.73 822.32,762.51 818.32,748.62C803.51,697.91 770.62,652.87 727.19,622.87C684.05,592.83 630.47,578.09 578.06,582.03M320.91,593.96C319.49,595.38 317.23,595.84 316.2,597.64C346.38,608.96 376.12,622.42 402.11,641.73C405.86,638.62 408.78,634.65 412.4,631.39C414.35,629.3 416.68,627.55 418.45,625.29C394.46,607.63 366.91,595.64 339.31,584.84C338.26,584.42 337.18,584.14 336.07,584C330.7,586.79 326.17,590.96 320.91,593.96M291.21,612.45C314.3,621.2 337.25,630.7 358.52,643.35C368.08,648.77 376.84,655.43 385.74,661.81C388.72,658.77 390.93,655.04 393.74,651.84C395.86,649.23 398.27,646.81 400.05,643.94C398.42,642.23 396.36,641.01 394.48,639.61C369.55,622.23 341.49,609.86 313.09,599.42C305.7,603.56 298.49,608.11 291.21,612.45M490.14,631.32C458.26,649.4 431.26,675.94 412.61,707.49C395.65,736.06 385.57,768.71 383.67,801.89C382.1,813.93 383.46,826.06 384.44,838.09C386.26,851.56 388.38,865.18 393.09,877.98C398.98,875.67 404.65,872.79 410.46,870.28C410.72,868.51 409.94,866.8 409.62,865.1C401.18,834.34 400.74,801.51 408.13,770.5C416.87,733.36 437.16,699.09 465.43,673.49C496.84,644.52 538.33,626.79 580.95,623.96C589.9,623.68 598.84,623.66 607.79,623.96C644.05,626.41 679.54,639.51 708.64,661.31C728.81,676.44 746.12,695.44 759,717.13C773.25,740.97 782.08,767.99 784.88,795.6C787.56,796.43 790.41,795.77 793.12,795.43C796.82,794.82 800.63,794.92 804.29,794C799.41,737.03 769.05,683.08 723.88,648.2C692.82,624.01 654.86,608.65 615.63,604.91C604.82,603.34 593.88,604.23 583,604.03C550.53,605.92 518.39,615.1 490.14,631.32M264.2,626.53C287.16,635.16 310.04,644.33 331.48,656.34C345.59,664.18 358.87,673.47 371.16,683.92C374.06,680.15 376.15,675.83 378.92,671.97C380.57,669.42 382.58,667.07 383.87,664.31C366.51,649.71 346.27,638.92 325.73,629.47C313.34,624.1 300.91,618.65 288.13,614.29C280.09,618.17 272.2,622.53 264.2,626.53M546.08,632.42C508.18,642.29 473.76,664.56 448.84,694.74C423.61,725.16 408.22,763.73 406.02,803.21C404.69,825.28 407.03,847.6 413.41,868.8C419.5,866.57 425.44,863.89 431.46,861.48C431.41,859.76 430.8,858.12 430.44,856.46C420.1,815.61 425.5,770.89 445.93,733.95C464.61,699.58 495.59,672.09 532,657.77C571.18,642.07 616.26,641.92 655.56,657.29C687.53,669.64 715.53,692.01 734.62,720.48C750.32,743.52 759.86,770.58 762.71,798.27C769.13,798.15 775.49,796.92 781.93,796.74C782.27,791.53 780.94,786.42 780.17,781.31C772.69,738.99 750.01,699.67 717.37,671.76C688.07,646.47 650.78,630.48 612.22,627.04C590.1,624.45 567.59,626.95 546.08,632.42M257.5,629.63C250.09,633.16 242.55,636.43 234.95,639.53C249.01,645.27 263.35,650.38 277.25,656.53C306.92,669.23 335.42,685.71 358.61,708.4C361.98,700.92 366.14,693.8 369.66,686.41C339,659.04 300.41,643.04 262.42,628.67C260.72,627.75 259.06,629.04 257.5,629.63M202.22,651.62C241.43,666.54 281.73,680.9 315.64,706.31C327.44,715.02 338.17,725.07 348.22,735.72C350.63,728.19 353.37,720.76 356.52,713.51C356.82,712.52 357.66,711.15 356.69,710.28C332.29,686.34 301.86,669.63 270.51,656.6C257.48,651.27 244.43,645.86 231.12,641.34C221.45,644.62 212.02,648.68 202.22,651.62M491.29,684.34C461.93,707.36 440.77,740.61 432.35,776.96C425.93,804.28 426.41,833.3 434.36,860.26C440.44,858.13 446.42,855.69 452.48,853.5C450.42,842.44 447.61,831.34 447.96,819.99C448.07,814.63 447.86,809.28 448.01,803.93C449.23,789.26 452.46,774.72 457.91,761.03C470.98,727.7 496.79,699.64 528.81,683.66C557.1,669.43 590.03,664.99 621.13,670.68C654.92,676.81 686.23,695.4 707.91,722.02C726.22,744.17 737.5,771.83 740.48,800.38C747,800 753.48,799.27 759.98,798.66C757.69,774.84 750.14,751.5 737.98,730.87C723.95,706.86 703.76,686.51 679.92,672.2C651.02,654.79 616.73,646.52 583.08,649.01C549.83,650.96 517.38,663.68 491.29,684.34M175.44,659.77C172.22,660.98 168.82,661.38 165.84,662.63C172.79,664.23 179.24,667.52 185.99,669.82C224.22,684.28 263.26,698.85 296.03,723.93C312.74,736.41 327.15,751.67 340.12,767.93C341.69,758.22 344.41,748.76 346.93,739.28C345.64,736.65 343.29,734.8 341.45,732.59C328.39,719.11 313.68,707.24 297.7,697.37C275.99,683.85 252.36,673.8 228.58,664.56C218.61,660.83 208.77,656.71 198.69,653.34C190.82,654.67 183.32,658.21 175.44,659.77M158.32,664.27C147.68,666.84 136.96,669.11 126.16,670.93C141.9,677.79 158.15,683.46 174.15,689.68C209.71,703.14 245.57,717.67 275.88,741.13C300.27,759.77 320.26,783.71 336,809.93C335.76,798.23 337.3,786.58 338.91,775.02C339.07,773.29 339.19,771.35 337.98,769.95C320.8,746.97 299.11,727.42 274.57,712.56C240.22,691.64 201.78,679.07 164.54,664.48C162.57,663.56 160.36,663.72 158.32,664.27M532.07,685.1C500.51,700.14 474.88,727.12 461.48,759.4C453.84,777.26 450.49,796.68 450.04,816.02C450.84,828.24 451.81,840.6 455.37,852.39C461.46,850.42 467.56,848.3 473.56,846.17C473.74,844.04 472.98,841.99 472.6,839.94C466,809.3 472.02,776.23 488.56,749.64C507.4,718.76 540.39,696.91 576.27,691.95C585.44,690.25 594.8,691.2 604.07,690.97C634.9,693.23 664.63,707.63 685.51,730.43C703.95,749.88 715.13,775.57 718.24,802.08C724.78,802.29 731.24,801.03 737.75,800.73C735.22,775.61 726.09,751.16 711.21,730.73C691.53,703.23 661.78,683.14 628.93,675.13C596.79,667.04 561.9,670.67 532.07,685.1M80.39,677.06C103.73,687.33 127.57,696.43 151.44,705.41C185.7,718.39 220.22,732.2 249.95,754.04C267.57,766.84 283.28,782.23 296.53,799.5C319.49,829.26 335.71,863.63 348.31,898.89C348.71,900.16 349.53,901.23 350.43,902.23C349.98,899 348.71,895.98 347.79,892.88C340.79,871.26 337.14,848.65 335.96,826C335.86,822.4 336.31,818.75 335.65,815.2C334.29,811.81 332.07,808.85 330.19,805.74C318.86,787.64 305.39,770.81 289.66,756.34C275.53,743.07 259.46,731.99 242.52,722.65C205.76,702.48 165.48,690.19 126.87,674.26C124.02,673.16 121.09,671.47 117.94,672.29C105.5,674.45 92.95,675.9 80.39,677.06M29.95,679.06C44.75,686.94 60.05,693.88 75.52,700.36C114.35,716.78 154.91,729.13 192.55,748.31C213.53,759.06 233.43,772.22 250.51,788.54C278.53,814.71 298.95,847.96 314.38,882.81C319.36,893.61 323.27,904.87 327.79,915.85C334.1,911.66 340.47,907.55 346.82,903.44C346.38,900.71 345.22,898.16 344.29,895.58C330.61,858.71 313,822.73 287.46,792.55C264.97,765.55 235.6,744.98 203.94,730.11C163.68,711.07 120.8,698.37 80.33,679.8C75.04,676.8 68.8,678.22 63.03,678.25C52.06,679.67 40.97,678.72 29.95,679.06M533.47,709.64C501.15,728.1 478.3,762.16 473.74,799.12C472.02,814.39 472.51,830.09 476.47,845.01C482.83,843.51 489.19,841.6 495.26,839.23C493.99,832.85 492.66,826.46 492.68,819.92C490.38,785.16 507.99,750.16 536.84,730.78C552.67,719.77 571.74,713.77 590.95,712.96C611.31,712.38 631.9,717.85 649.07,728.88C675.11,745.14 692.75,773.79 695.86,804.3C702.35,804.11 708.8,803.14 715.27,802.71C713.64,782.99 706.54,763.8 695.54,747.39C677.52,720.25 648.22,700.89 616.1,695.23C605.52,693.62 594.7,692.08 584.02,693.77C566.26,695.2 548.86,700.69 533.47,709.64M561.75,721.14C543.14,727.7 526.44,739.77 514.73,755.69C497.18,779 490.73,810.26 497.87,838.58C504.26,837.22 510.56,835.27 516.83,833.46C513.31,817.11 514.28,799.58 520.96,784.13C529.45,763.84 546.71,747.35 567.47,740.03C580.2,735.31 594.12,734.53 607.49,736.4C627.2,739.59 645.4,750.66 657.54,766.48C666.44,778.07 672.17,792.14 673.52,806.71C680,805.99 686.52,805.52 692.99,804.66C692.41,795.07 689.66,785.68 686.06,776.81C674.02,747.25 646.79,724.54 615.56,717.95C597.79,714.24 578.94,715.13 561.75,721.14M836.27,724.15C844.42,744.13 849,765.49 851.38,786.9C861.2,785.14 870.95,782.74 880.53,780.06C881.52,779.8 883.09,780.08 883.65,779.02C865.56,762.89 849.8,744.23 836.27,724.15M560.07,746.12C542.54,754.8 528.6,770.43 522.01,788.85C516.9,802.84 516.09,818.29 519.48,832.78C525.82,831.39 532.16,829.82 538.42,828.2C538.41,826.7 538.1,825.23 537.92,823.76C535.6,811.38 538.26,798.32 544.28,787.34C551.73,773.51 565.26,763.17 580.5,759.42C597.92,755.12 617.35,759.28 631.04,771.04C642.43,780.4 649.71,794.27 651.4,808.89C657.84,808.79 664.28,807.72 670.68,806.93C670.94,804.87 670.38,802.85 670.03,800.85C666.65,782.61 656.42,765.69 641.72,754.35C629.3,744.55 613.76,738.89 598.01,738.03C584.94,737.44 571.75,740.25 560.07,746.12M575.53,763.78C563.36,768.23 552.93,777.18 546.67,788.52C540.11,800.24 538.18,814.5 541.38,827.52C547.63,826.15 554.08,825.09 560.17,823.34C559.98,818.65 559.41,813.94 560,809.27C562.05,795.79 572.82,784.07 586.16,781.09C598.59,777.76 612.6,782.49 620.88,792.25C625.8,797.72 628.05,804.85 629.41,811.94C635.81,811.23 642.19,810.19 648.62,809.59C647.03,790.29 633.95,772.58 616.19,764.98C603.46,759.3 588.58,758.89 575.53,763.78M579.41,786.52C566.67,792.97 558.9,809.07 563.34,822.88C584.24,818.72 605.3,815.29 626.41,812.34C625.61,798.73 615.05,786.61 601.8,783.6C594.3,782.26 586.17,782.7 579.41,786.52Z" style="fill:white;fill-rule:nonzero;"/>
            <path d="M1331.3,0L1339.35,0C1375.7,12.57 1409.7,31.96 1438.8,57.13C1462.84,77.8 1483.58,102.33 1500,129.45L1500,133.97C1492.79,123.24 1486.02,112.19 1477.9,102.1C1453.54,70.74 1422.84,44.37 1388.25,24.9C1370.21,14.58 1350.92,6.71 1331.3,0Z" style="fill:white;fill-rule:nonzero;"/>
            <path d="M1388.1,0L1393.34,0C1427.53,17.95 1458.16,42.43 1483.86,71.21C1489.43,77.73 1495.22,84.13 1500,91.27L1500,94.9C1494.73,88.82 1490.02,82.27 1484.66,76.25C1470.14,59.5 1453.95,44.17 1436.32,30.72C1421.22,19.03 1404.83,9.15 1388.1,0Z" style="fill:white;fill-rule:nonzero;"/>
            <path d="M1430.8,0L1435.27,0C1451.7,11.16 1467.24,23.7 1481.48,37.56C1487.75,44 1494.55,50.01 1500,57.19L1500,60.76C1479.71,37.58 1456.23,17.35 1430.8,0Z" style="fill:white;fill-rule:nonzero;"/>
            <path d="M1467.44,0L1471.4,0C1481.51,7.76 1490.95,16.4 1500,25.37L1500,28.78C1489.37,18.93 1478.8,9.01 1467.44,0Z" style="fill:white;fill-rule:nonzero;"/>
            <path d="M0,17.19C9.05,14.27 18.63,13.86 28.04,13.3C55.24,12.69 82.58,20.55 105.12,35.84C131.56,53.51 151.23,81 159.38,111.74C167.67,142.58 164.4,176.38 150.09,204.95C137.38,230.85 115.9,252.34 90.02,265.08C70.58,274.83 48.7,279.45 27,278.95C17.94,278.21 8.72,277.79 0,275L0,272.65C9.56,274.48 19.21,276.46 29,276C47.91,276.75 66.85,272.56 84.11,264.93C110.61,253.11 132.92,232.19 146.33,206.45C154.72,190.59 159.58,172.94 160.91,155.07C161.03,149.36 161.02,143.64 160.94,137.93C159.16,109.16 147.54,81.09 128.27,59.62C107.85,36.49 78.9,21.06 48.29,17.1C32.21,14.71 15.83,16.1 0,19.5L0,17.19Z" style="fill:white;fill-rule:nonzero;"/>
            <path d="M0,44.93C14.02,40.28 29.19,38.97 43.82,40.91C71.4,43.99 97.34,58.78 114.38,80.64C129.23,99.32 137.23,123.17 137.09,147C136.85,168.5 129.99,189.89 117.49,207.4C104.59,225.66 85.75,239.63 64.53,246.67C43.79,253.55 20.84,254.07 0,247.32L0,245.04C4.85,245.88 9.58,247.29 14.45,248.07C35.55,251.38 57.7,248.3 76.84,238.68C102.59,226.08 122.5,202.24 130.34,174.67C134.22,162.15 134.54,148.95 133.84,135.97C131.43,110.02 118.6,85.24 98.89,68.22C82.6,53.88 61.67,45.1 40.09,43.13C34.38,42.94 28.66,42.98 22.95,43.08C15.15,43.5 7.59,45.59 0,47.29L0,44.93Z" style="fill:white;fill-rule:nonzero;"/>
            <path d="M0,73.37C23.25,62.95 51.52,65.34 72.97,78.96C90.08,89.52 102.77,106.92 107.72,126.39C114.81,153.14 106.53,183.34 86.49,202.49C64.53,224.87 28.64,231.52 0,218.9L0,216.51C5.35,217.93 10.51,220.01 15.96,221.05C35.21,225.09 55.95,221.05 72.44,210.38C87.32,200.83 98.72,185.96 103.97,169.07C108.19,155.69 108.68,141.19 105.23,127.58C100.56,108.38 88.01,91.28 71.15,80.99C50.15,67.78 22.6,66.05 0,76.18L0,73.37Z" style="fill:white;fill-rule:nonzero;"/>
            <path d="M0,104.12C17,90.77 42.58,90.43 60.27,102.68C74.65,112.34 84.07,129.53 83.13,146.99C83.82,173.76 59.8,198.26 33.03,198.16C21.28,198.87 9.19,195.36 0,187.94L0,185.44C3.76,187.48 7.31,189.91 11.25,191.62C20.56,195.55 31.11,197.26 41.04,194.7C60.43,190.97 76.58,174.53 79.84,155.03C82.25,144.69 80.05,133.76 75.65,124.27C68.54,109.62 53.88,98.92 37.7,96.9C24.39,94.9 10.57,99.05 0,107.24L0,104.12Z" style="fill:white;fill-rule:nonzero;"/>
            <path d="M8.11,124.13C18.48,112.86 37.32,111.21 49.58,120.33C61.14,128.36 65.88,144.48 60.62,157.52C56.6,168.26 46.32,176.23 34.95,177.56C18.93,179.97 2.04,167.87 0,151.64L0,140.46C0.76,134.3 3.91,128.62 8.11,124.13M24.43,117.8C11.65,120.64 1.83,132.91 2.01,146C1.86,155.75 7.16,165.37 15.41,170.55C24.03,176.2 35.75,176.59 44.78,171.66C56.91,165.42 63.16,150 58.63,137.09C54.41,123.17 38.55,114.07 24.43,117.8Z" style="fill:white;fill-rule:nonzero;"/>
            <path d="M1224.36,136.3C1246.56,134.2 1269.32,135.99 1290.44,143.48C1327,155.85 1358.31,182.96 1375.71,217.43C1395.97,256.28 1397.59,304.12 1380.53,344.42C1365.58,380.2 1336.29,409.67 1300.54,424.72C1259.63,442.27 1210.92,440.39 1171.59,419.47C1138.24,402.09 1111.95,371.74 1099.51,336.25C1091.27,312.84 1088.79,287.38 1092.73,262.86C1099.28,218.02 1127.75,177.26 1167.15,155.03C1184.71,145.01 1204.29,138.64 1224.36,136.3M1225.56,138.95C1207.67,140.82 1190.14,146.09 1174.14,154.31C1138.91,172.23 1111.52,204.85 1100.08,242.71C1091.53,270.64 1091.49,301.12 1100,329.06C1110.95,365.62 1136.78,397.35 1170.24,415.67C1190.33,426.8 1213.08,433 1236,433.99C1259.64,434.79 1283.54,430.02 1304.89,419.77C1338.54,404.03 1365.66,375.02 1379.23,340.45C1394.3,302.84 1392.82,259.08 1375.3,222.55C1366.43,204 1353.72,187.23 1338.08,173.87C1307.57,147.38 1265.71,134.18 1225.56,138.95Z" style="fill:white;fill-rule:nonzero;"/>
            <path d="M1230.4,157.5C1269.31,153.73 1309.45,169.3 1335.93,198.04C1350.73,213.81 1361.43,233.39 1366.72,254.37C1372.25,276.88 1371.85,300.94 1365.2,323.17C1354.25,360.24 1325.65,391.48 1289.75,405.76C1264.63,415.92 1236.32,417.84 1210.05,411.17C1177.18,403.01 1148.02,381.25 1130.77,352.12C1123.02,339.13 1117.53,324.78 1114.8,309.9C1112.37,298.74 1112.84,287.28 1112.96,275.94C1114.78,251.88 1123.59,228.39 1138.05,209.06C1159.61,179.75 1194.1,160.42 1230.4,157.5M1226.44,160.56C1191.11,164.68 1158.04,184.59 1137.89,213.89C1122.68,235.4 1115.06,261.77 1115.01,288.01C1115.79,304.85 1119.1,321.7 1126.04,337.14C1134.96,357.25 1149.17,375.03 1166.99,387.97C1197.22,410.49 1237.84,417.94 1274.17,408.09C1292.02,403.4 1308.75,394.62 1322.87,382.75C1355.34,355.84 1372.76,311.82 1366.88,270C1364.31,248.66 1355.9,228.11 1343.11,210.86C1319.58,178.72 1279.96,158.57 1240.01,159.96C1235.48,160.07 1230.91,159.79 1226.44,160.56Z" style="fill:white;fill-rule:nonzero;"/>
            <path d="M1233.22,178.97C1239.16,179 1245.1,178.88 1251.04,179.01C1273.43,181.02 1295.2,190.12 1312.05,205.04C1324.8,216.1 1334.92,230.19 1341.19,245.86C1350.42,268.61 1351.57,294.5 1344.15,317.92C1333.09,354.67 1300.8,383.92 1263.12,391.25C1253,393.77 1242.55,392.91 1232.23,393.03C1213.1,391.35 1194.43,384.51 1178.9,373.2C1162.69,361.48 1149.74,345.25 1142.19,326.71C1131.38,300.48 1131.59,269.93 1142.8,243.88C1150.61,225.47 1163.78,209.48 1180.11,197.99C1195.68,187.04 1214.25,180.42 1233.22,178.97M1229.54,182.06C1193.28,185.83 1160.26,210.37 1145.79,243.77C1135.59,266.75 1134.08,293.43 1141.7,317.39C1152.36,352.41 1182.82,380.45 1218.61,388.17C1229.51,390.36 1240.79,392 1251.87,390.2C1280.14,387.64 1306.88,372.72 1324.22,350.3C1336.41,334.77 1343.9,315.71 1345.89,296.09C1346.15,285.32 1346.53,274.41 1343.93,263.86C1339.62,243.77 1329.19,225.04 1314.36,210.81C1299.83,196.62 1281.02,186.91 1261.08,183.14C1250.67,181.34 1240.03,180.24 1229.54,182.06Z" style="fill:white;fill-rule:nonzero;"/>
            <path d="M1228.29,201.3C1248.86,198.14 1270.55,202.52 1288.02,213.93C1312.33,229.43 1328.3,257.99 1327.04,287C1327.57,306.45 1319.94,325.68 1307.71,340.64C1296.26,354.53 1280.34,364.71 1262.87,369.09C1239.79,375.05 1214.27,370.92 1194.44,357.63C1176.97,346.29 1164.04,328.25 1158.73,308.13C1152.22,284.19 1156.86,257.51 1171.12,237.19C1184.18,218.07 1205.42,204.84 1228.29,201.3M1231.44,203.56C1216.17,205.54 1201.41,211.62 1189.47,221.39C1171.48,235.77 1159.85,257.98 1158.76,281.02C1157.31,301.2 1163.88,321.73 1176.46,337.54C1189.15,353.76 1208.14,364.87 1228.48,368.07C1248.56,371.34 1269.78,366.85 1286.81,355.69C1305.22,343.91 1318.48,324.48 1322.9,303.08C1324.27,295.05 1325.74,286.81 1324.3,278.67C1322.43,255.74 1310.38,233.88 1292,220.04C1275,206.91 1252.74,200.84 1231.44,203.56Z" style="fill:white;fill-rule:nonzero;"/>
            <path d="M1233.4,222.41C1252.16,219.89 1271.96,226.28 1285.57,239.47C1297.09,250.19 1304.49,265.34 1305.44,281.09C1307.1,299.62 1300,318.68 1286.61,331.6C1272.13,346.24 1250.24,352.97 1230.04,349.1C1211.46,345.86 1194.77,333.74 1185.64,317.29C1174.62,297.91 1174.91,272.63 1186.36,253.5C1196.18,236.65 1214.03,224.81 1233.4,222.41M1235.53,224.96C1220.92,226.31 1206.9,233.22 1196.88,243.92C1183.31,258.3 1176.97,279.54 1181.53,298.89C1185.44,317.61 1198.64,334.06 1216.09,341.9C1234.47,350.41 1257.11,349.03 1274.2,338.08C1287.64,329.63 1297.68,315.88 1301.29,300.38C1306.52,279.92 1299.89,256.95 1284.66,242.34C1272.01,229.52 1253.4,223.05 1235.53,224.96Z" style="fill:white;fill-rule:nonzero;"/>
            <path d="M1233.34,244.32C1243.8,242.76 1255,244 1263.98,249.96C1279.75,259.36 1287.83,279.86 1282.5,297.47C1277.79,315.17 1260.48,328.89 1241.99,328.27C1228.14,328.97 1214.5,321.56 1206.71,310.24C1197.04,296.75 1196.59,277.57 1205.52,263.6C1211.68,253.76 1221.94,246.59 1233.34,244.32M1234.44,246.9C1216.17,249.97 1201.32,267.35 1201.98,286C1201.33,303.88 1214.93,320.77 1232.27,324.66C1243.94,327.98 1256.83,324.52 1266.27,317.19C1279.48,307.12 1284.77,288.32 1279.07,272.76C1273.09,254.9 1252.94,242.94 1234.44,246.9Z" style="fill:white;fill-rule:nonzero;"/>
            <path d="M1238.25,261.99C1245.53,261.03 1253.18,263.32 1258.42,268.54C1262.76,272.55 1265.21,278.23 1265.87,284.05C1266.79,294.42 1260.25,304.97 1250.47,308.63C1239.71,312.94 1226.16,308.52 1220.61,298.19C1216.15,290.62 1216.3,280.54 1221.05,273.14C1224.7,267.08 1231.26,262.92 1238.25,261.99M1237.49,264.86C1227.65,266.63 1219.74,275.94 1220.02,286C1219.78,295.85 1227.26,305.11 1236.9,307.06C1249.65,310.57 1263.82,299.31 1263.02,286.02C1263.81,272.95 1250.11,261.87 1237.49,264.86Z" style="fill:white;fill-rule:nonzero;"/>
            <path d="M1343.01,665.84C1363.87,657.12 1386.93,656.38 1409.21,657.1C1432.74,658.78 1456.22,661.28 1479.8,662.23C1486.5,663.03 1493.25,663.05 1500,663L1500,665.58C1481.96,665.5 1463.95,664.02 1445.95,662.8C1418.75,660.42 1391.1,657.23 1364.02,662.38C1348.35,665.31 1332.62,671.75 1321.84,683.89C1309.91,696.95 1305.47,714.84 1303.49,731.97C1302.74,741.63 1301.71,751.29 1302,761C1301.62,771.5 1303.26,781.93 1303.02,792.43C1302.91,798.32 1303.87,804.15 1304.01,810.03C1303.81,825.36 1305.68,840.66 1304.87,856C1304.07,867.98 1304.11,880.01 1302.45,891.93C1298.85,924.11 1289.2,956.04 1271.41,983.3C1267.52,989.07 1263.75,995.02 1258.85,1000L1256.28,1000C1260.17,994.07 1264.82,988.69 1268.61,982.69C1280.94,963.83 1289.6,942.68 1294.72,920.76C1300.31,896.62 1302.43,871.75 1301.99,847C1301.83,835.96 1302.46,824.89 1301.32,813.89C1300.62,806.59 1301.34,799.23 1300.49,791.93C1299.55,783.63 1300.22,775.28 1299.86,766.96C1299.49,744.15 1299.58,720.38 1308.94,699.11C1315.31,684.06 1327.93,672.01 1343.01,665.84Z" style="fill:white;fill-rule:nonzero;"/>
            <path d="M1357.14,688.97C1377.81,677.82 1402.03,676.59 1425.03,676.99C1450.04,678.37 1474.94,681.61 1500,682.18L1500,685.25C1486.01,684.07 1471.99,683.56 1458.02,682.19C1447.26,681.54 1436.56,679.88 1425.77,679.96C1403.62,679.19 1380.43,680.3 1360.22,690.35C1346.11,697.28 1335.43,710.17 1330.42,724.98C1322.04,749.09 1323.92,774.98 1324.17,800.06C1325.25,808.7 1324.74,817.44 1325.77,826.09C1326.22,830.73 1325.88,835.41 1326.31,840.07C1327.63,853 1326.78,866.02 1327,879C1327.57,902.07 1325.08,925.21 1319.78,947.67C1315.28,965.96 1308.48,983.77 1298.85,1000L1295.75,1000C1304.78,984.78 1311.63,968.29 1316.08,951.17C1322.55,927.34 1324.26,902.56 1325,878C1325.43,865.59 1323.85,853.24 1323.94,840.85C1323.84,835.56 1322.91,830.32 1322.96,825.03C1323.06,818.32 1321.74,811.7 1321.96,804.99C1322.08,797.65 1320.82,790.38 1320.97,783.04C1320.82,762.98 1321.36,742.4 1328.17,723.3C1333.28,708.86 1343.49,696.14 1357.14,688.97Z" style="fill:white;fill-rule:nonzero;"/>
            <path d="M1418.1,697.85C1445.44,694.77 1472.7,700.27 1500,701.09L1500,703.56C1487.45,703.52 1474.96,701.97 1462.46,701C1448.97,699.5 1435.36,699.77 1421.82,700.12C1404.12,701.6 1385.7,705.32 1371.29,716.35C1358.16,726.19 1350.93,742 1348,757.8C1344.55,776.65 1344.24,795.99 1345.85,815.05C1346.44,835.28 1348.81,855.42 1349.23,875.67C1350.43,886.75 1349.9,897.9 1350.03,909.03C1349.47,939.92 1345.36,971.15 1333.79,1000L1330.77,1000C1337.55,983.65 1341.83,966.33 1344.34,948.83C1348.02,925.04 1347.19,900.92 1346.93,876.94C1345.58,856.98 1344.51,837.02 1343.05,817.07C1342.8,795.01 1341.1,772.51 1346.79,750.93C1350.25,737.29 1357.22,724.15 1368.34,715.25C1382.33,703.92 1400.49,699.37 1418.1,697.85Z" style="fill:white;fill-rule:nonzero;"/>
            <path d="M1400.75,727.6C1417.15,719.28 1435.88,717.49 1453.99,716.95C1469.37,717.03 1484.7,718.53 1500,720.03L1500,722.16C1492.65,722.34 1485.39,721.24 1478.09,720.72C1470.43,719.67 1462.7,720.11 1455.01,720C1436.23,719.63 1416.77,722.09 1399.99,731.01C1386.39,738.22 1376.44,751.27 1372.05,765.92C1367.57,779.48 1366.91,793.83 1366.36,807.97C1366.75,839.26 1370.24,870.39 1372.02,901.6C1371.94,915.05 1373.59,928.5 1372.31,941.95C1372.1,961.51 1369.37,981 1364.78,1000L1361.82,1000C1365.92,984.63 1368.32,968.81 1369.19,952.94C1370.59,940.34 1369.77,927.65 1370,915C1368.89,887.15 1366.02,859.4 1364.48,831.57C1363.47,821.07 1364.21,810.5 1363.96,799.97C1364.67,785.28 1366.59,770.32 1372.68,756.79C1378.26,744.18 1388.37,733.66 1400.75,727.6Z" style="fill:white;fill-rule:nonzero;"/>
            <path d="M1408.85,755.8C1424.34,742.57 1445.26,738.38 1465.08,737.44C1476.72,736.05 1488.35,738 1500,738.08L1500,740.56C1476.01,739.7 1450.99,738.22 1428.23,747.35C1415,752.47 1403.47,762.27 1397.3,775.15C1389.63,790.85 1387.71,808.73 1388,826C1387.45,853.11 1391.32,880.04 1393.17,907.04C1394.03,919.34 1395.29,931.64 1395.01,943.99C1395.19,962.68 1395.63,981.52 1392.32,1000L1389.82,1000C1392.42,978.45 1394.12,956.63 1392.16,934.95C1391.32,904.2 1386.67,873.67 1385.64,842.93C1384.3,829.53 1385.15,816.03 1386.59,802.69C1388.82,785.32 1395.16,767.43 1408.85,755.8Z" style="fill:white;fill-rule:nonzero;"/>
            <path d="M1425.57,779.56C1438.53,765.7 1457.75,760.07 1476.09,758.11C1484.05,757.71 1492.01,756.59 1500,757.22L1500,759.87C1492.25,760.3 1484.44,759.53 1476.75,760.79C1459.76,762.54 1442.12,767.35 1429.45,779.41C1416.91,791.37 1411.71,808.87 1410.05,825.67C1407.86,842.77 1409.34,860.02 1410.51,877.13C1413.16,907.41 1416.83,937.62 1418.04,968C1417.98,978.67 1418.04,989.33 1417.98,1000L1414.82,1000C1415.48,989.47 1416.05,978.9 1415.13,968.36C1414.4,921.46 1404.14,874.96 1407.06,827.95C1408.65,810.63 1413.23,792.48 1425.57,779.56Z" style="fill:white;fill-rule:nonzero;"/>
            <path d="M1447.87,797.88C1461.53,784.21 1481.31,779.34 1500,777.81L1500,780.18C1490.07,781.76 1479.95,782.9 1470.55,786.72C1457.23,791.59 1445.59,801.35 1439.36,814.2C1431.78,829.26 1430.78,846.45 1430.06,862.99C1431.39,908.83 1440.07,954.14 1441.07,1000L1438.05,1000C1438.22,976.8 1435.3,953.73 1432.93,930.69C1430.62,908.19 1427.46,885.66 1427.99,863C1427.97,856.3 1427.68,849.57 1428.75,842.93C1430.57,826.56 1435.75,809.63 1447.87,797.88Z" style="fill:white;fill-rule:nonzero;"/>
            <path d="M0,794.42C10.55,797.57 20.66,802.03 31,805.82C53.57,814.53 75.99,823.88 97.06,835.86C126.76,852.54 152.93,875.44 173.22,902.83C195.08,932.23 210.94,965.67 223.38,1000L220.51,1000C207.33,963.92 190.39,928.79 166.49,898.51C147.26,873.97 122.96,853.57 95.81,838.29C65.51,820.96 32.44,809.4 0,796.84L0,794.42Z" style="fill:white;fill-rule:nonzero;"/>
            <path d="M1460.61,827.69C1469.05,813.5 1484.3,804.82 1500,800.95L1500,803.41C1490.91,806.61 1481.61,809.9 1474.16,816.23C1460.48,827.14 1454.51,844.77 1452.59,861.62C1450.21,884.51 1452.46,907.54 1455.02,930.32C1457.46,953.54 1461.13,976.66 1462.27,1000L1460.22,1000C1458.53,988.56 1457.97,976.98 1456.45,965.51C1453.58,940.06 1449.87,914.65 1448.96,889.04C1448.56,868.21 1449.41,845.97 1460.61,827.69Z" style="fill:white;fill-rule:nonzero;"/>
            <path d="M0,818.54C18.12,825.06 35.97,832.37 53.4,840.57C84.65,855.28 113.93,875.03 136.96,900.96C163.07,929.64 181.58,964.31 196.23,1000L193.42,1000C186.26,983.65 179.01,967.29 170.05,951.82C153.35,922.23 131.52,895.27 104.5,874.5C86.17,860.28 65.72,849.03 44.63,839.48C30.01,832.69 14.8,827.29 0,820.97L0,818.54Z" style="fill:white;fill-rule:nonzero;"/>
            <path d="M1473.51,866.61C1477.14,851.38 1486.23,837.11 1500,829.2L1500,831.59C1493.78,837.15 1487,842.43 1483.03,849.97C1471.89,869.3 1472.45,892.38 1473.04,913.95C1474.77,942.78 1479.67,971.3 1482.72,1000L1480.33,1000C1477.61,981.48 1475.49,962.86 1473.13,944.29C1470.45,918.55 1467.28,892.1 1473.51,866.61Z" style="fill:white;fill-rule:nonzero;"/>
            <path d="M0,842.85C9.1,846.71 18.29,850.39 27.24,854.6C61.61,870.16 93.77,891.69 118.51,920.43C139.32,944.01 155.11,971.53 168.22,1000L165.34,1000C151.99,971.67 136.24,944.12 115.19,920.74C91.76,893.89 61.63,873.63 29.49,858.65C19.82,854.03 9.93,849.89 0,845.85L0,842.85Z" style="fill:white;fill-rule:nonzero;"/>
            <path d="M0,868.44C33.47,882.57 64.93,902.46 90.03,928.94C110.23,949.72 126.02,974.35 139.31,1000L136.4,1000C128.73,986.1 120.99,972.18 111.66,959.31C92.78,932.56 68.55,909.58 40.62,892.45C27.67,884.19 13.72,877.73 0,870.9L0,868.44Z" style="fill:white;fill-rule:nonzero;"/>
            <path d="M1491.48,905.54C1492.46,893.94 1494.21,881.98 1500,871.69L1500,876.41C1496.72,887.32 1493.87,898.52 1494.01,910.01C1494.12,920.32 1493.53,930.68 1494.84,940.94C1495.85,955.88 1498.34,970.66 1500,985.53L1500,1000L1499.12,1000C1497.25,981.44 1494,963.03 1492.39,944.44C1491.53,931.5 1490.08,918.5 1491.48,905.54Z" style="fill:white;fill-rule:nonzero;"/>
            <path d="M0,894.62C19.02,904.68 37.28,916.36 53.46,930.61C76.11,950.1 94.33,974.25 109.3,1000L106.45,1000C98.02,986.81 89.71,973.46 79.58,961.46C58.05,934.79 30.37,913.48 0,897.77L0,894.62Z" style="fill:white;fill-rule:nonzero;"/>
            <path d="M0,923.4C31.47,942.38 57.97,969.21 77.89,1000L75.39,1000C72.14,996.68 69.81,992.63 67.02,988.94C54.56,972.02 40.1,956.53 23.71,943.35C16.21,937 7.81,931.86 0,925.93L0,923.4Z" style="fill:white;fill-rule:nonzero;"/>
            <path d="M0,954.37C16.92,967.52 32.21,982.84 45.06,1000L42.51,1000C38.76,996.86 36.1,992.69 32.84,989.09C22.84,977.7 11.88,967.14 0,957.72L0,954.37Z" style="fill:white;fill-rule:nonzero;"/>
            <path d="M0,989.33C3.55,992.72 7.05,996.18 10.16,1000L7.55,1000C4.65,998.03 2.28,995.41 0,992.78L0,989.33Z" style="fill:white;fill-rule:nonzero;"/>
        </g>
    </g>
    <g id="_-969696ff" serif:id="#969696ff">
    </g>
</svg>
